<?xml version="1.0" encoding="UTF-8" standalone="no"?>
<!DOCTYPE svg PUBLIC "-//W3C//DTD SVG 1.1//EN"
 "http://www.w3.org/Graphics/SVG/1.1/DTD/svg11.dtd">
<!-- Generated by graphviz version 8.0.5 (20230430.1635)
 -->
<!-- Pages: 1 -->
<svg width="2765pt" height="176pt"
 viewBox="0.00 0.00 2765.47 176.32" xmlns="http://www.w3.org/2000/svg" xmlns:xlink="http://www.w3.org/1999/xlink">
<g id="graph0" class="graph" transform="scale(1 1) rotate(0) translate(4 172.32)">
<polygon fill="white" stroke="none" points="-4,4 -4,-172.32 2761.47,-172.32 2761.47,4 -4,4"/>
<!-- &#45;1 -->
<g id="node1" class="node">
<title>&#45;1</title>
<polygon fill="lightgray" stroke="black" points="1667.05,-168.32 1643.55,-168.32 1643.55,-149.07 1667.05,-149.07 1667.05,-168.32"/>
<text text-anchor="middle" x="1655.3" y="-155.77" font-family="Times New Roman,serif" font-size="9.00">&#45;1</text>
</g>
<!-- 2 -->
<g id="node20" class="node">
<title>2</title>
<ellipse fill="lightblue" stroke="black" cx="1357.3" cy="-14.5" rx="14.5" ry="14.5"/>
<text text-anchor="middle" x="1357.3" y="-11.57" font-family="Times New Roman,serif" font-size="9.00">2</text>
</g>
<!-- &#45;1&#45;&gt;2 -->
<g id="edge80" class="edge">
<title>&#45;1&#45;&gt;2</title>
<path fill="none" stroke="green" stroke-width="0.39" d="M1660.27,-148.75C1669.65,-130.55 1687.21,-88.91 1666.3,-64.99 1626.89,-19.92 1457.69,-42.2 1399.3,-28.99 1392.92,-27.55 1386.13,-25.57 1379.91,-23.57"/>
<polygon fill="green" stroke="green" stroke-width="0.39" points="1381.34,-20.36 1370.75,-20.49 1379.11,-26.99 1381.34,-20.36"/>
</g>
<!-- 4 -->
<g id="node22" class="node">
<title>4</title>
<ellipse fill="lightblue" stroke="black" cx="1672.3" cy="-14.5" rx="14.5" ry="14.5"/>
<text text-anchor="middle" x="1672.3" y="-11.57" font-family="Times New Roman,serif" font-size="9.00">4</text>
</g>
<!-- &#45;1&#45;&gt;4 -->
<g id="edge8" class="edge">
<title>&#45;1&#45;&gt;4</title>
<path fill="none" stroke="red" stroke-width="0.36" d="M1667.36,-151.98C1689.18,-141.52 1733.32,-119.76 1737.3,-113.07 1748.21,-94.7 1746.78,-84.14 1737.3,-64.99 1728.38,-46.99 1709.44,-33.76 1694.29,-25.53"/>
<polygon fill="red" stroke="red" stroke-width="0.36" points="1695.98,-22.46 1685.47,-21.05 1692.81,-28.7 1695.98,-22.46"/>
</g>
<!-- 6 -->
<g id="node24" class="node">
<title>6</title>
<ellipse fill="lightblue" stroke="black" cx="1422.3" cy="-14.5" rx="14.5" ry="14.5"/>
<text text-anchor="middle" x="1422.3" y="-11.57" font-family="Times New Roman,serif" font-size="9.00">6</text>
</g>
<!-- &#45;1&#45;&gt;6 -->
<g id="edge46" class="edge">
<title>&#45;1&#45;&gt;6</title>
<path fill="none" stroke="red" stroke-width="0.25" d="M1667.25,-149.78C1677.93,-141.91 1692.86,-128.78 1699.3,-113.07 1707.41,-93.3 1713.01,-81.38 1699.3,-64.99 1667.06,-26.48 1507.93,-17.9 1446.53,-16.02"/>
<polygon fill="red" stroke="red" stroke-width="0.25" points="1446.99,-12.53 1436.89,-15.75 1446.79,-19.53 1446.99,-12.53"/>
</g>
<!-- 7 -->
<g id="node25" class="node">
<title>7</title>
<ellipse fill="lightblue" stroke="black" cx="1625.3" cy="-89.03" rx="14.5" ry="14.5"/>
<text text-anchor="middle" x="1625.3" y="-86.11" font-family="Times New Roman,serif" font-size="9.00">7</text>
</g>
<!-- &#45;1&#45;&gt;7 -->
<g id="edge116" class="edge">
<title>&#45;1&#45;&gt;7</title>
<path fill="none" stroke="green" stroke-width="0.46" d="M1651.37,-148.85C1647.22,-139.49 1640.51,-124.36 1634.94,-111.79"/>
<polygon fill="green" stroke="green" stroke-width="0.46" points="1638.21,-110.53 1630.96,-102.81 1631.82,-113.37 1638.21,-110.53"/>
</g>
<!-- 924 -->
<g id="node28" class="node">
<title>924</title>
<ellipse fill="white" stroke="black" cx="1018.3" cy="-89.03" rx="20.86" ry="20.86"/>
<text text-anchor="middle" x="1018.3" y="-86.11" font-family="Times New Roman,serif" font-size="9.00">924</text>
</g>
<!-- &#45;1&#45;&gt;924 -->
<g id="edge68" class="edge">
<title>&#45;1&#45;&gt;924</title>
<path fill="none" stroke="red" stroke-width="0.66" d="M1643.14,-156.41C1567.98,-148.42 1166.02,-105.73 1049.79,-93.38"/>
<polygon fill="red" stroke="red" stroke-width="0.66" points="1049.47,-89.82 1039.16,-92.25 1048.73,-96.79 1049.47,-89.82"/>
</g>
<!-- &#45;2 -->
<g id="node2" class="node">
<title>&#45;2</title>
<polygon fill="lightgray" stroke="black" points="397.05,-168.32 373.55,-168.32 373.55,-149.07 397.05,-149.07 397.05,-168.32"/>
<text text-anchor="middle" x="385.3" y="-155.77" font-family="Times New Roman,serif" font-size="9.00">&#45;2</text>
</g>
<!-- 0 -->
<g id="node18" class="node">
<title>0</title>
<ellipse fill="lightblue" stroke="black" cx="988.3" cy="-14.5" rx="14.5" ry="14.5"/>
<text text-anchor="middle" x="988.3" y="-11.57" font-family="Times New Roman,serif" font-size="9.00">0</text>
</g>
<!-- &#45;2&#45;&gt;0 -->
<g id="edge62" class="edge">
<title>&#45;2&#45;&gt;0</title>
<path fill="none" stroke="green" stroke-width="0.53" d="M373.2,-155.04C364.82,-153.24 353.41,-150.88 343.3,-149.07 290.64,-139.69 140.18,-153.63 105.3,-113.07 91.36,-96.87 90.52,-80.43 105.3,-64.99 136.75,-32.13 878.16,-34.63 923.3,-28.99 937.15,-27.26 952.44,-24.15 964.71,-21.35"/>
<polygon fill="green" stroke="green" stroke-width="0.53" points="965.28,-24.81 974.21,-19.11 963.67,-18 965.28,-24.81"/>
</g>
<!-- 1 -->
<g id="node19" class="node">
<title>1</title>
<ellipse fill="lightblue" stroke="black" cx="1047.3" cy="-14.5" rx="14.5" ry="14.5"/>
<text text-anchor="middle" x="1047.3" y="-11.57" font-family="Times New Roman,serif" font-size="9.00">1</text>
</g>
<!-- &#45;2&#45;&gt;1 -->
<g id="edge12" class="edge">
<title>&#45;2&#45;&gt;1</title>
<path fill="none" stroke="green" stroke-width="0.17" d="M373.31,-156.16C352.2,-152.73 308.86,-142.3 290.3,-113.07 278.84,-95.03 275.57,-80.47 290.3,-64.99 345.58,-6.88 932.75,-45.26 1011.3,-28.99 1015.83,-28.05 1020.55,-26.63 1025.02,-25.06"/>
<polygon fill="green" stroke="green" stroke-width="0.17" points="1026.18,-28.36 1034.25,-21.5 1023.66,-21.83 1026.18,-28.36"/>
</g>
<!-- &#45;2&#45;&gt;2 -->
<g id="edge50" class="edge">
<title>&#45;2&#45;&gt;2</title>
<path fill="none" stroke="green" stroke-width="0.38" d="M384.72,-148.76C384.03,-129.82 385.45,-85.67 411.3,-64.99 415.94,-61.28 1183.88,-23.9 1332.54,-16.69"/>
<polygon fill="green" stroke="green" stroke-width="0.38" points="1332.7,-20.19 1342.52,-16.21 1332.36,-13.2 1332.7,-20.19"/>
</g>
<!-- 3 -->
<g id="node21" class="node">
<title>3</title>
<ellipse fill="lightblue" stroke="black" cx="882.3" cy="-14.5" rx="14.5" ry="14.5"/>
<text text-anchor="middle" x="882.3" y="-11.57" font-family="Times New Roman,serif" font-size="9.00">3</text>
</g>
<!-- &#45;2&#45;&gt;3 -->
<g id="edge49" class="edge">
<title>&#45;2&#45;&gt;3</title>
<path fill="none" stroke="red" stroke-width="0.15" d="M373.22,-154.92C364.85,-153.07 353.44,-150.69 343.3,-149.07 273.94,-138 76.05,-165.49 29.3,-113.07 15.07,-97.13 14.63,-80.53 29.3,-64.99 58.51,-34.04 721.08,-18.8 857.77,-15.98"/>
<polygon fill="red" stroke="red" stroke-width="0.15" points="857.77,-19.48 867.69,-15.78 857.62,-12.48 857.77,-19.48"/>
</g>
<!-- 923 -->
<g id="node27" class="node">
<title>923</title>
<ellipse fill="white" stroke="black" cx="1458.3" cy="-89.03" rx="20.86" ry="20.86"/>
<text text-anchor="middle" x="1458.3" y="-86.11" font-family="Times New Roman,serif" font-size="9.00">923</text>
</g>
<!-- &#45;2&#45;&gt;923 -->
<g id="edge78" class="edge">
<title>&#45;2&#45;&gt;923</title>
<path fill="none" stroke="red" stroke-width="0.46" d="M397.51,-151.89C400.34,-150.77 403.38,-149.74 406.3,-149.07 685.01,-85.91 762.96,-129.09 1048.3,-113.07 1190.14,-105.11 1359.58,-95.58 1427.72,-91.75"/>
<polygon fill="red" stroke="red" stroke-width="0.46" points="1427.6,-95.26 1437.39,-91.21 1427.21,-88.28 1427.6,-95.26"/>
</g>
<!-- &#45;2&#45;&gt;924 -->
<g id="edge23" class="edge">
<title>&#45;2&#45;&gt;924</title>
<path fill="none" stroke="red" stroke-width="0.22" d="M397.52,-151.92C400.35,-150.8 403.38,-149.76 406.3,-149.07 625.8,-97.59 689.13,-145.1 912.3,-113.07 938.25,-109.35 967.32,-102.86 988.45,-97.72"/>
<polygon fill="red" stroke="red" stroke-width="0.22" points="989.27,-101.12 998.13,-95.32 987.58,-94.33 989.27,-101.12"/>
</g>
<!-- 925 -->
<g id="node29" class="node">
<title>925</title>
<ellipse fill="white" stroke="black" cx="882.3" cy="-89.03" rx="20.86" ry="20.86"/>
<text text-anchor="middle" x="882.3" y="-86.11" font-family="Times New Roman,serif" font-size="9.00">925</text>
</g>
<!-- &#45;2&#45;&gt;925 -->
<g id="edge17" class="edge">
<title>&#45;2&#45;&gt;925</title>
<path fill="none" stroke="green" stroke-width="0.24" d="M397.53,-151.97C400.36,-150.85 403.39,-149.8 406.3,-149.07 566.65,-109.26 613.07,-138.67 776.3,-113.07 802.2,-109.01 831.28,-102.56 852.42,-97.51"/>
<polygon fill="green" stroke="green" stroke-width="0.24" points="853.21,-100.92 862.11,-95.16 851.57,-94.11 853.21,-100.92"/>
</g>
<!-- &#45;3 -->
<g id="node3" class="node">
<title>&#45;3</title>
<polygon fill="lightgray" stroke="black" points="1868.05,-168.32 1844.55,-168.32 1844.55,-149.07 1868.05,-149.07 1868.05,-168.32"/>
<text text-anchor="middle" x="1856.3" y="-155.77" font-family="Times New Roman,serif" font-size="9.00">&#45;3</text>
</g>
<!-- &#45;3&#45;&gt;0 -->
<g id="edge92" class="edge">
<title>&#45;3&#45;&gt;0</title>
<path fill="none" stroke="red" stroke-width="0.48" d="M1855.17,-148.59C1852.24,-129.32 1842.47,-84.57 1813.3,-64.99 1740.43,-16.09 1110.27,-46.61 1024.3,-28.99 1019.76,-28.06 1015.04,-26.64 1010.57,-25.07"/>
<polygon fill="red" stroke="red" stroke-width="0.48" points="1011.93,-21.85 1001.34,-21.51 1009.41,-28.38 1011.93,-21.85"/>
</g>
<!-- &#45;3&#45;&gt;2 -->
<g id="edge36" class="edge">
<title>&#45;3&#45;&gt;2</title>
<path fill="none" stroke="green" stroke-width="0.48" d="M1859.15,-148.82C1864.47,-130.37 1873.46,-87.73 1851.3,-64.99 1816.13,-28.91 1448.72,-38.76 1399.3,-28.99 1392.89,-27.72 1386.08,-25.8 1379.86,-23.8"/>
<polygon fill="green" stroke="green" stroke-width="0.48" points="1381.3,-20.6 1370.71,-20.68 1379.04,-27.22 1381.3,-20.6"/>
</g>
<!-- &#45;3&#45;&gt;3 -->
<g id="edge127" class="edge">
<title>&#45;3&#45;&gt;3</title>
<path fill="none" stroke="green" stroke-width="0.44" d="M1844.08,-149.54C1814.88,-130.53 1738.08,-83.52 1666.3,-64.99 1515.27,-26 1120.4,-45.53 965.3,-28.99 945.22,-26.85 922.61,-23.08 906.07,-20.07"/>
<polygon fill="green" stroke="green" stroke-width="0.44" points="907.1,-16.7 896.63,-18.32 905.82,-23.59 907.1,-16.7"/>
</g>
<!-- 5 -->
<g id="node23" class="node">
<title>5</title>
<ellipse fill="lightblue" stroke="black" cx="2201.3" cy="-14.5" rx="14.5" ry="14.5"/>
<text text-anchor="middle" x="2201.3" y="-11.57" font-family="Times New Roman,serif" font-size="9.00">5</text>
</g>
<!-- &#45;3&#45;&gt;5 -->
<g id="edge109" class="edge">
<title>&#45;3&#45;&gt;5</title>
<path fill="none" stroke="green" stroke-width="0.31" d="M1868.24,-156.83C1923.64,-152.68 2153.79,-134.27 2177.3,-113.07 2197.87,-94.51 2202.16,-61.42 2202.44,-38.97"/>
<polygon fill="green" stroke="green" stroke-width="0.31" points="2205.94,-39.17 2202.33,-29.21 2198.95,-39.25 2205.94,-39.17"/>
</g>
<!-- &#45;3&#45;&gt;6 -->
<g id="edge131" class="edge">
<title>&#45;3&#45;&gt;6</title>
<path fill="none" stroke="green" stroke-width="0.53" d="M1864.82,-148.64C1880.77,-130.59 1911.58,-89.76 1889.3,-64.99 1874.32,-48.34 1540.86,-23.8 1446.8,-17.19"/>
<polygon fill="green" stroke="green" stroke-width="0.53" points="1447.24,-13.71 1437.02,-16.5 1446.75,-20.69 1447.24,-13.71"/>
</g>
<!-- &#45;3&#45;&gt;7 -->
<g id="edge98" class="edge">
<title>&#45;3&#45;&gt;7</title>
<path fill="none" stroke="red" stroke-width="0.25" d="M1844.2,-154.16C1807.54,-143.42 1697.2,-111.1 1648.65,-96.88"/>
<polygon fill="red" stroke="red" stroke-width="0.25" points="1649.86,-93.58 1639.28,-94.13 1647.89,-100.3 1649.86,-93.58"/>
</g>
<!-- &#45;3&#45;&gt;923 -->
<g id="edge14" class="edge">
<title>&#45;3&#45;&gt;923</title>
<path fill="none" stroke="green" stroke-width="0.35" d="M1844.39,-155.67C1790.68,-146.54 1570.14,-109.05 1488.7,-95.2"/>
<polygon fill="green" stroke="green" stroke-width="0.35" points="1489.48,-91.78 1479.04,-93.56 1488.31,-98.69 1489.48,-91.78"/>
</g>
<!-- 926 -->
<g id="node30" class="node">
<title>926</title>
<ellipse fill="white" stroke="black" cx="1962.3" cy="-89.03" rx="20.86" ry="20.86"/>
<text text-anchor="middle" x="1962.3" y="-86.11" font-family="Times New Roman,serif" font-size="9.00">926</text>
</g>
<!-- &#45;3&#45;&gt;926 -->
<g id="edge86" class="edge">
<title>&#45;3&#45;&gt;926</title>
<path fill="none" stroke="green" stroke-width="0.54" d="M1868.41,-150.2C1882.58,-141.39 1906.73,-126.31 1927.3,-113.07 1930.42,-111.07 1933.68,-108.95 1936.91,-106.83"/>
<polygon fill="green" stroke="green" stroke-width="0.54" points="1938.82,-109.77 1945.25,-101.36 1934.97,-103.92 1938.82,-109.77"/>
</g>
<!-- &#45;4 -->
<g id="node4" class="node">
<title>&#45;4</title>
<polygon fill="lightgray" stroke="black" points="2631.05,-168.32 2607.55,-168.32 2607.55,-149.07 2631.05,-149.07 2631.05,-168.32"/>
<text text-anchor="middle" x="2619.3" y="-155.77" font-family="Times New Roman,serif" font-size="9.00">&#45;4</text>
</g>
<!-- &#45;4&#45;&gt;2 -->
<g id="edge75" class="edge">
<title>&#45;4&#45;&gt;2</title>
<path fill="none" stroke="red" stroke-width="0.13" d="M2607.29,-150.85C2574.78,-132.69 2481.75,-83.51 2397.3,-64.99 1963.75,30.06 1836.48,-105.6 1399.3,-28.99 1392.86,-27.86 1386.05,-25.99 1379.83,-23.99"/>
<polygon fill="red" stroke="red" stroke-width="0.13" points="1381.27,-20.79 1370.68,-20.84 1378.99,-27.4 1381.27,-20.79"/>
</g>
<!-- &#45;4&#45;&gt;4 -->
<g id="edge96" class="edge">
<title>&#45;4&#45;&gt;4</title>
<path fill="none" stroke="green" stroke-width="0.39" d="M2631.32,-155.82C2651.58,-151.94 2692.01,-140.94 2709.3,-113.07 2720.56,-94.91 2724.04,-80.46 2709.3,-64.99 2691.23,-46.04 1851.28,-20.71 1696.63,-16.2"/>
<polygon fill="green" stroke="green" stroke-width="0.39" points="1697.17,-12.71 1687.07,-15.92 1696.97,-19.71 1697.17,-12.71"/>
</g>
<!-- &#45;4&#45;&gt;5 -->
<g id="edge81" class="edge">
<title>&#45;4&#45;&gt;5</title>
<path fill="none" stroke="red" stroke-width="0.2" d="M2631.47,-157.73C2657.87,-157.04 2720.17,-151.25 2747.3,-113.07 2759.67,-95.65 2761.71,-80.77 2747.3,-64.99 2711.69,-26.01 2327.59,-17.42 2225.89,-15.82"/>
<polygon fill="red" stroke="red" stroke-width="0.2" points="2226.23,-12.33 2216.18,-15.68 2226.13,-19.33 2226.23,-12.33"/>
</g>
<!-- &#45;4&#45;&gt;6 -->
<g id="edge42" class="edge">
<title>&#45;4&#45;&gt;6</title>
<path fill="none" stroke="red" stroke-width="0.12" d="M2624.89,-148.59C2635.47,-130.1 2655.44,-87.96 2633.3,-64.99 2595.33,-25.61 1703.94,-31.61 1649.3,-28.99 1575.48,-25.45 1488.23,-19.87 1446.67,-17.13"/>
<polygon fill="red" stroke="red" stroke-width="0.12" points="1447.11,-13.65 1436.9,-16.48 1446.64,-20.63 1447.11,-13.65"/>
</g>
<!-- &#45;4&#45;&gt;924 -->
<g id="edge114" class="edge">
<title>&#45;4&#45;&gt;924</title>
<path fill="none" stroke="green" stroke-width="0.24" d="M2607.11,-157.09C2577.4,-155.61 2498.86,-151.77 2433.3,-149.07 1986.72,-130.72 1874.78,-133.62 1428.3,-113.07 1286.38,-106.55 1116.98,-96.22 1048.87,-91.96"/>
<polygon fill="green" stroke="green" stroke-width="0.24" points="1049.4,-88.49 1039.2,-91.36 1048.96,-95.48 1049.4,-88.49"/>
</g>
<!-- &#45;4&#45;&gt;926 -->
<g id="edge39" class="edge">
<title>&#45;4&#45;&gt;926</title>
<path fill="none" stroke="red" stroke-width="0.16" d="M2607.05,-156.44C2529.89,-148.49 2110.59,-105.31 1992.98,-93.19"/>
<polygon fill="red" stroke="red" stroke-width="0.16" points="1993.48,-89.73 1983.17,-92.18 1992.76,-96.69 1993.48,-89.73"/>
</g>
<!-- 927 -->
<g id="node31" class="node">
<title>927</title>
<ellipse fill="white" stroke="black" cx="320.3" cy="-89.03" rx="20.86" ry="20.86"/>
<text text-anchor="middle" x="320.3" y="-86.11" font-family="Times New Roman,serif" font-size="9.00">927</text>
</g>
<!-- &#45;4&#45;&gt;927 -->
<g id="edge88" class="edge">
<title>&#45;4&#45;&gt;927</title>
<path fill="none" stroke="green" stroke-width="0.3" d="M2607.11,-157.03C2577.41,-155.41 2498.88,-151.28 2433.3,-149.07 1667.78,-123.33 1475.63,-143.67 710.3,-113.07 576.49,-107.73 417.1,-96.92 351.18,-92.26"/>
<polygon fill="green" stroke="green" stroke-width="0.3" points="351.64,-88.78 341.42,-91.57 351.15,-95.77 351.64,-88.78"/>
</g>
<!-- &#45;5 -->
<g id="node5" class="node">
<title>&#45;5</title>
<polygon fill="lightgray" stroke="black" points="627.05,-168.32 603.55,-168.32 603.55,-149.07 627.05,-149.07 627.05,-168.32"/>
<text text-anchor="middle" x="615.3" y="-155.77" font-family="Times New Roman,serif" font-size="9.00">&#45;5</text>
</g>
<!-- &#45;5&#45;&gt;0 -->
<g id="edge135" class="edge">
<title>&#45;5&#45;&gt;0</title>
<path fill="none" stroke="green" stroke-width="0.35" d="M603.08,-156.96C546.45,-153.39 311.35,-137.22 290.3,-113.07 276.25,-96.97 275.62,-80.53 290.3,-64.99 338.68,-13.78 853.45,-38.18 923.3,-28.99 937.13,-27.17 952.42,-24.05 964.7,-21.27"/>
<polygon fill="green" stroke="green" stroke-width="0.35" points="965.26,-24.74 974.2,-19.05 963.66,-17.92 965.26,-24.74"/>
</g>
<!-- &#45;5&#45;&gt;1 -->
<g id="edge100" class="edge">
<title>&#45;5&#45;&gt;1</title>
<path fill="none" stroke="red" stroke-width="0.15" d="M603.13,-151.42C590.49,-144.13 571.44,-130.8 563.3,-113.07 554.37,-93.66 548.8,-80.7 563.3,-64.99 597.16,-28.29 962.56,-39.86 1011.3,-28.99 1015.82,-27.98 1020.53,-26.53 1025,-24.95"/>
<polygon fill="red" stroke="red" stroke-width="0.15" points="1026.15,-28.26 1034.23,-21.4 1023.64,-21.72 1026.15,-28.26"/>
</g>
<!-- &#45;5&#45;&gt;2 -->
<g id="edge101" class="edge">
<title>&#45;5&#45;&gt;2</title>
<path fill="none" stroke="green" stroke-width="0.14" d="M619.99,-148.79C630.69,-129.48 659,-84 697.3,-64.99 726.33,-50.58 1217.2,-23.11 1332.97,-16.81"/>
<polygon fill="green" stroke="green" stroke-width="0.14" points="1332.9,-20.31 1342.7,-16.28 1332.52,-13.33 1332.9,-20.31"/>
</g>
<!-- &#45;5&#45;&gt;3 -->
<g id="edge63" class="edge">
<title>&#45;5&#45;&gt;3</title>
<path fill="none" stroke="green" stroke-width="0.11" d="M603.07,-157.12C542.95,-154.13 280.77,-139.66 257.3,-113.07 243.15,-97.06 242.79,-80.69 257.3,-64.99 298.67,-20.21 746.31,-15.9 857.44,-15.52"/>
<polygon fill="green" stroke="green" stroke-width="0.11" points="857.4,-19.02 867.39,-15.5 857.38,-12.02 857.4,-19.02"/>
</g>
<!-- &#45;5&#45;&gt;5 -->
<g id="edge76" class="edge">
<title>&#45;5&#45;&gt;5</title>
<path fill="none" stroke="red" stroke-width="0.1" d="M627.43,-155.6C654.83,-150.6 723.26,-136.58 776.3,-113.07 812.84,-96.88 814.12,-76.82 852.3,-64.99 885.2,-54.8 1996.29,-21.56 2176.67,-16.22"/>
<polygon fill="red" stroke="red" stroke-width="0.1" points="2176.65,-19.72 2186.54,-15.93 2176.44,-12.73 2176.65,-19.72"/>
</g>
<!-- &#45;5&#45;&gt;6 -->
<g id="edge89" class="edge">
<title>&#45;5&#45;&gt;6</title>
<path fill="none" stroke="red" stroke-width="0.24" d="M621.08,-148.69C634.18,-129.2 668.29,-83.39 710.3,-64.99 850.54,-3.58 1251.26,-71.63 1398.3,-28.99 1399.48,-28.65 1400.68,-28.23 1401.86,-27.77"/>
<polygon fill="red" stroke="red" stroke-width="0.24" points="1403.13,-31.05 1410.57,-23.51 1400.05,-24.76 1403.13,-31.05"/>
</g>
<!-- &#45;5&#45;&gt;923 -->
<g id="edge28" class="edge">
<title>&#45;5&#45;&gt;923</title>
<path fill="none" stroke="red" stroke-width="0.52" d="M627.54,-156.72C718.4,-149.42 1288.22,-103.69 1427.57,-92.5"/>
<polygon fill="red" stroke="red" stroke-width="0.52" points="1427.52,-96.01 1437.21,-91.73 1426.96,-89.04 1427.52,-96.01"/>
</g>
<!-- &#45;5&#45;&gt;924 -->
<g id="edge2" class="edge">
<title>&#45;5&#45;&gt;924</title>
<path fill="none" stroke="red" stroke-width="0.65" d="M627.51,-156.15C668.12,-150.95 802.29,-133.27 912.3,-113.07 938.08,-108.34 967.17,-101.94 988.35,-97.09"/>
<polygon fill="red" stroke="red" stroke-width="0.65" points="989.1,-100.51 998.05,-94.84 987.52,-93.69 989.1,-100.51"/>
</g>
<!-- &#45;5&#45;&gt;925 -->
<g id="edge61" class="edge">
<title>&#45;5&#45;&gt;925</title>
<path fill="none" stroke="green" stroke-width="0.21" d="M627.19,-155.31C657.66,-149.11 740.94,-131.69 809.3,-113.07 823.95,-109.08 840.06,-104.07 853.42,-99.73"/>
<polygon fill="green" stroke="green" stroke-width="0.21" points="854.18,-103.16 862.59,-96.72 852,-96.51 854.18,-103.16"/>
</g>
<!-- &#45;5&#45;&gt;927 -->
<g id="edge15" class="edge">
<title>&#45;5&#45;&gt;927</title>
<path fill="none" stroke="red" stroke-width="0.22" d="M603.37,-154.96C560.6,-145.15 414.12,-111.55 350.36,-96.93"/>
<polygon fill="red" stroke="red" stroke-width="0.22" points="351.39,-93.57 340.86,-94.75 349.83,-100.4 351.39,-93.57"/>
</g>
<!-- &#45;6 -->
<g id="node6" class="node">
<title>&#45;6</title>
<polygon fill="lightgray" stroke="black" points="800.05,-168.32 776.55,-168.32 776.55,-149.07 800.05,-149.07 800.05,-168.32"/>
<text text-anchor="middle" x="788.3" y="-155.77" font-family="Times New Roman,serif" font-size="9.00">&#45;6</text>
</g>
<!-- &#45;6&#45;&gt;0 -->
<g id="edge124" class="edge">
<title>&#45;6&#45;&gt;0</title>
<path fill="none" stroke="red" stroke-width="0.16" d="M776.11,-156.71C738.15,-153.34 623.32,-140.97 601.3,-113.07 588.06,-96.3 587.05,-80.92 601.3,-64.99 649.3,-11.32 852.19,-40.32 923.3,-28.99 937.08,-26.8 952.37,-23.66 964.65,-20.96"/>
<polygon fill="red" stroke="red" stroke-width="0.16" points="965.17,-24.43 974.17,-18.83 963.64,-17.6 965.17,-24.43"/>
</g>
<!-- &#45;6&#45;&gt;2 -->
<g id="edge58" class="edge">
<title>&#45;6&#45;&gt;2</title>
<path fill="none" stroke="red" stroke-width="0.16" d="M776.08,-154.83C757.96,-149.83 724.54,-137.64 710.3,-113.07 699.58,-94.59 695.77,-80.67 710.3,-64.99 721.1,-53.33 1215.78,-23.76 1332.71,-16.92"/>
<polygon fill="red" stroke="red" stroke-width="0.16" points="1332.75,-20.43 1342.53,-16.35 1332.35,-13.44 1332.75,-20.43"/>
</g>
<!-- &#45;6&#45;&gt;3 -->
<g id="edge97" class="edge">
<title>&#45;6&#45;&gt;3</title>
<path fill="none" stroke="red" stroke-width="0.26" d="M776.27,-156.83C722.58,-152.84 506.62,-135.47 487.3,-113.07 473.34,-96.89 473.16,-81.01 487.3,-64.99 511.94,-37.07 775.12,-21.08 857.68,-16.72"/>
<polygon fill="red" stroke="red" stroke-width="0.26" points="857.65,-20.23 867.45,-16.22 857.29,-13.24 857.65,-20.23"/>
</g>
<!-- &#45;6&#45;&gt;4 -->
<g id="edge85" class="edge">
<title>&#45;6&#45;&gt;4</title>
<path fill="none" stroke="red" stroke-width="0.38" d="M800.46,-155.74C895.36,-140.48 1517.13,-40.46 1648.11,-19.39"/>
<polygon fill="red" stroke="red" stroke-width="0.38" points="1648.65,-22.85 1657.96,-17.8 1647.54,-15.93 1648.65,-22.85"/>
</g>
<!-- &#45;6&#45;&gt;6 -->
<g id="edge51" class="edge">
<title>&#45;6&#45;&gt;6</title>
<path fill="none" stroke="green" stroke-width="0.56" stroke-dasharray="1,5" d="M791.37,-148.82C798.55,-129.57 818.45,-84.2 852.3,-64.99 958.05,-4.97 1281.74,-63.65 1398.3,-28.99 1399.48,-28.64 1400.67,-28.22 1401.86,-27.75"/>
<polygon fill="green" stroke="green" stroke-width="0.56" points="1403.13,-31.03 1410.56,-23.47 1400.04,-24.74 1403.13,-31.03"/>
</g>
<!-- 1099 -->
<g id="node26" class="node">
<title>1099</title>
<ellipse fill="white" stroke="black" cx="743.3" cy="-89.03" rx="24.04" ry="24.04"/>
<text text-anchor="middle" x="743.3" y="-86.11" font-family="Times New Roman,serif" font-size="9.00">1099</text>
</g>
<!-- &#45;6&#45;&gt;1099 -->
<g id="edge138" class="edge">
<title>&#45;6&#45;&gt;1099</title>
<path fill="none" stroke="green" stroke-width="0.22" d="M782.41,-148.85C777.17,-140.97 769.22,-129.01 761.85,-117.93"/>
<polygon fill="green" stroke="green" stroke-width="0.22" points="764.83,-116.09 756.38,-109.7 759,-119.97 764.83,-116.09"/>
</g>
<!-- &#45;6&#45;&gt;923 -->
<g id="edge90" class="edge">
<title>&#45;6&#45;&gt;923</title>
<path fill="none" stroke="red" stroke-width="0.23" d="M800.26,-156.73C854.61,-152.29 1083.75,-133.29 1271.3,-113.07 1326.44,-107.13 1390.57,-98.95 1427.59,-94.11"/>
<polygon fill="red" stroke="red" stroke-width="0.23" points="1427.83,-97.61 1437.29,-92.83 1426.92,-90.67 1427.83,-97.61"/>
</g>
<!-- &#45;6&#45;&gt;925 -->
<g id="edge26" class="edge">
<title>&#45;6&#45;&gt;925</title>
<path fill="none" stroke="red" stroke-width="0.4" d="M800.2,-149.13C814.6,-138.77 839.2,-121.06 857.72,-107.72"/>
<polygon fill="red" stroke="red" stroke-width="0.4" points="859.68,-110.63 865.75,-101.95 855.59,-104.95 859.68,-110.63"/>
</g>
<!-- &#45;7 -->
<g id="node7" class="node">
<title>&#45;7</title>
<polygon fill="lightgray" stroke="black" points="439.05,-168.32 415.55,-168.32 415.55,-149.07 439.05,-149.07 439.05,-168.32"/>
<text text-anchor="middle" x="427.3" y="-155.77" font-family="Times New Roman,serif" font-size="9.00">&#45;7</text>
</g>
<!-- &#45;7&#45;&gt;0 -->
<g id="edge113" class="edge">
<title>&#45;7&#45;&gt;0</title>
<path fill="none" stroke="red" stroke-width="0.39" d="M415.4,-152.52C412.45,-151.32 409.28,-150.1 406.3,-149.07 349.58,-129.65 312.59,-160.79 276.3,-113.07 263.36,-96.07 261.61,-80.52 276.3,-64.99 325.77,-12.68 851.91,-38.34 923.3,-28.99 937.14,-27.18 952.43,-24.06 964.7,-21.28"/>
<polygon fill="red" stroke="red" stroke-width="0.39" points="965.26,-24.74 974.2,-19.06 963.66,-17.93 965.26,-24.74"/>
</g>
<!-- &#45;7&#45;&gt;3 -->
<g id="edge121" class="edge">
<title>&#45;7&#45;&gt;3</title>
<path fill="none" stroke="green" stroke-width="0.23" d="M415.47,-152.29C412.52,-151.09 409.33,-149.93 406.3,-149.07 357.55,-135.36 214.15,-151.6 181.3,-113.07 167.43,-96.81 166.73,-80.63 181.3,-64.99 228.28,-14.57 738.4,-14.6 857.52,-15.3"/>
<polygon fill="green" stroke="green" stroke-width="0.23" points="857.49,-18.8 867.51,-15.36 857.54,-11.8 857.49,-18.8"/>
</g>
<!-- &#45;7&#45;&gt;5 -->
<g id="edge94" class="edge">
<title>&#45;7&#45;&gt;5</title>
<path fill="none" stroke="green" stroke-width="0.21" d="M439.2,-155.09C466.8,-148.91 537.17,-132.45 594.3,-113.07 647.15,-95.15 655.75,-76.79 710.3,-64.99 747.66,-56.91 1985,-21.62 2176.51,-16.2"/>
<polygon fill="green" stroke="green" stroke-width="0.21" points="2176.56,-19.7 2186.46,-15.91 2176.36,-12.7 2176.56,-19.7"/>
</g>
<!-- &#45;7&#45;&gt;6 -->
<g id="edge47" class="edge">
<title>&#45;7&#45;&gt;6</title>
<path fill="none" stroke="red" stroke-width="0.52" d="M439.55,-150.63C471.88,-132.4 562.71,-83.89 645.3,-64.99 971.91,9.74 1076.3,-121.59 1398.3,-28.99 1399.49,-28.65 1400.68,-28.24 1401.86,-27.78"/>
<polygon fill="red" stroke="red" stroke-width="0.52" points="1403.13,-31.06 1410.57,-23.52 1400.05,-24.77 1403.13,-31.06"/>
</g>
<!-- &#45;7&#45;&gt;7 -->
<g id="edge84" class="edge">
<title>&#45;7&#45;&gt;7</title>
<path fill="none" stroke="green" stroke-width="0.21" d="M439.45,-157.02C466.99,-155.51 536.29,-151.74 594.3,-149.07 991.53,-130.82 1092.77,-154.13 1488.3,-113.07 1528.29,-108.92 1574.29,-100.41 1601.52,-94.97"/>
<polygon fill="green" stroke="green" stroke-width="0.21" points="1601.87,-98.47 1610.98,-93.06 1600.48,-91.61 1601.87,-98.47"/>
</g>
<!-- &#45;7&#45;&gt;924 -->
<g id="edge44" class="edge">
<title>&#45;7&#45;&gt;924</title>
<path fill="none" stroke="red" stroke-width="0.31" d="M439.36,-157.13C494.17,-154.45 725.1,-141.92 912.3,-113.07 938.21,-109.08 967.29,-102.62 988.42,-97.55"/>
<polygon fill="red" stroke="red" stroke-width="0.31" points="989.22,-100.96 998.11,-95.19 987.57,-94.16 989.22,-100.96"/>
</g>
<!-- &#45;7&#45;&gt;927 -->
<g id="edge35" class="edge">
<title>&#45;7&#45;&gt;927</title>
<path fill="none" stroke="red" stroke-width="0.12" d="M415.44,-150.2C398.82,-139.69 368.17,-120.31 346.14,-106.38"/>
<polygon fill="red" stroke="red" stroke-width="0.12" points="348.2,-103.54 337.88,-101.15 344.46,-109.45 348.2,-103.54"/>
</g>
<!-- &#45;8 -->
<g id="node8" class="node">
<title>&#45;8</title>
<polygon fill="lightgray" stroke="black" points="1709.05,-168.32 1685.55,-168.32 1685.55,-149.07 1709.05,-149.07 1709.05,-168.32"/>
<text text-anchor="middle" x="1697.3" y="-155.77" font-family="Times New Roman,serif" font-size="9.00">&#45;8</text>
</g>
<!-- &#45;8&#45;&gt;5 -->
<g id="edge60" class="edge">
<title>&#45;8&#45;&gt;5</title>
<path fill="none" stroke="red" stroke-width="0.25" d="M1709.37,-157.11C1750.08,-154.87 1885.69,-145.29 1992.3,-113.07 2064.74,-91.18 2144.12,-48.44 2180.72,-27.55"/>
<polygon fill="red" stroke="red" stroke-width="0.25" points="2182.16,-30.77 2189.07,-22.74 2178.66,-24.7 2182.16,-30.77"/>
</g>
<!-- &#45;8&#45;&gt;7 -->
<g id="edge40" class="edge">
<title>&#45;8&#45;&gt;7</title>
<path fill="none" stroke="red" stroke-width="0.19" d="M1687.88,-148.85C1676.43,-138.09 1656.88,-119.71 1642.67,-106.36"/>
<polygon fill="red" stroke="red" stroke-width="0.19" points="1645.09,-103.83 1635.41,-99.54 1640.3,-108.93 1645.09,-103.83"/>
</g>
<!-- &#45;8&#45;&gt;923 -->
<g id="edge69" class="edge">
<title>&#45;8&#45;&gt;923</title>
<path fill="none" stroke="red" stroke-width="0.27" d="M1685.4,-152.51C1682.45,-151.31 1679.28,-150.09 1676.3,-149.07 1610.26,-126.67 1530.77,-106.9 1488.39,-96.92"/>
<polygon fill="red" stroke="red" stroke-width="0.27" points="1489.22,-93.52 1478.69,-94.65 1487.63,-100.34 1489.22,-93.52"/>
</g>
<!-- &#45;8&#45;&gt;925 -->
<g id="edge9" class="edge">
<title>&#45;8&#45;&gt;925</title>
<path fill="none" stroke="red" stroke-width="0.34" d="M1685.09,-151.88C1682.26,-150.76 1679.22,-149.73 1676.3,-149.07 1377.55,-81.96 1291.78,-153.73 988.3,-113.07 962.31,-109.59 933.24,-103.08 912.12,-97.87"/>
<polygon fill="red" stroke="red" stroke-width="0.34" points="913,-94.48 902.45,-95.43 911.29,-101.27 913,-94.48"/>
</g>
<!-- &#45;8&#45;&gt;926 -->
<g id="edge119" class="edge">
<title>&#45;8&#45;&gt;926</title>
<path fill="none" stroke="green" stroke-width="0.33" d="M1709.37,-154.62C1748.81,-144.55 1874.6,-112.43 1932.55,-97.63"/>
<polygon fill="green" stroke="green" stroke-width="0.33" points="1933.07,-101.11 1941.89,-95.24 1931.34,-94.33 1933.07,-101.11"/>
</g>
<!-- &#45;9 -->
<g id="node9" class="node">
<title>&#45;9</title>
<polygon fill="lightgray" stroke="black" points="1117.05,-168.32 1093.55,-168.32 1093.55,-149.07 1117.05,-149.07 1117.05,-168.32"/>
<text text-anchor="middle" x="1105.3" y="-155.77" font-family="Times New Roman,serif" font-size="9.00">&#45;9</text>
</g>
<!-- &#45;9&#45;&gt;2 -->
<g id="edge55" class="edge">
<title>&#45;9&#45;&gt;2</title>
<path fill="none" stroke="green" stroke-width="0.38" d="M1104.77,-148.81C1104.2,-130.35 1105.68,-87.69 1129.3,-64.99 1158.32,-37.09 1279.77,-22.67 1332.59,-17.63"/>
<polygon fill="green" stroke="green" stroke-width="0.38" points="1332.84,-21.12 1342.47,-16.71 1332.19,-14.15 1332.84,-21.12"/>
</g>
<!-- &#45;9&#45;&gt;6 -->
<g id="edge13" class="edge">
<title>&#45;9&#45;&gt;6</title>
<path fill="none" stroke="green" stroke-width="0.24" stroke-dasharray="1,5" d="M1117.36,-151.07C1146.84,-135.04 1225.09,-93.37 1293.3,-64.99 1338.85,-46.04 1353.28,-49.16 1398.3,-28.99 1399.43,-28.49 1400.57,-27.94 1401.72,-27.38"/>
<polygon fill="green" stroke="green" stroke-width="0.24" points="1403.13,-30.59 1410.31,-22.8 1399.84,-24.42 1403.13,-30.59"/>
</g>
<!-- &#45;9&#45;&gt;923 -->
<g id="edge83" class="edge">
<title>&#45;9&#45;&gt;923</title>
<path fill="none" stroke="green" stroke-width="0.4" d="M1117.45,-155.37C1167,-145.87 1354.69,-109.89 1428.36,-95.77"/>
<polygon fill="green" stroke="green" stroke-width="0.4" points="1428.81,-99.25 1437.97,-93.93 1427.49,-92.37 1428.81,-99.25"/>
</g>
<!-- &#45;9&#45;&gt;924 -->
<g id="edge32" class="edge">
<title>&#45;9&#45;&gt;924</title>
<path fill="none" stroke="red" stroke-width="0.62" d="M1093.92,-148.85C1080.86,-138.69 1059.07,-121.74 1042.22,-108.64"/>
<polygon fill="red" stroke="red" stroke-width="0.62" points="1044.45,-105.94 1034.41,-102.56 1040.15,-111.47 1044.45,-105.94"/>
</g>
<!-- &#45;9&#45;&gt;925 -->
<g id="edge52" class="edge">
<title>&#45;9&#45;&gt;925</title>
<path fill="none" stroke="green" stroke-width="0.29" d="M1093.4,-156.34C1063.01,-152.55 980.43,-140.34 917.3,-113.07 913.89,-111.6 910.45,-109.8 907.13,-107.87"/>
<polygon fill="green" stroke="green" stroke-width="0.29" points="909.03,-104.93 898.71,-102.54 905.29,-110.84 909.03,-104.93"/>
</g>
<!-- &#45;10 -->
<g id="node10" class="node">
<title>&#45;10</title>
<polygon fill="lightgray" stroke="black" points="2424.3,-168.32 2396.3,-168.32 2396.3,-149.07 2424.3,-149.07 2424.3,-168.32"/>
<text text-anchor="middle" x="2410.3" y="-155.77" font-family="Times New Roman,serif" font-size="9.00">&#45;10</text>
</g>
<!-- &#45;10&#45;&gt;0 -->
<g id="edge1" class="edge">
<title>&#45;10&#45;&gt;0</title>
<path fill="none" stroke="green" stroke-width="0.35" d="M2396.09,-153.66C2333.91,-135.98 2088.51,-66.27 2080.3,-64.99 1616.25,7.03 1484.88,-120.62 1024.3,-28.99 1019.76,-28.09 1015.03,-26.68 1010.56,-25.11"/>
<polygon fill="green" stroke="green" stroke-width="0.35" points="1011.92,-21.89 1001.33,-21.55 1009.4,-28.42 1011.92,-21.89"/>
</g>
<!-- &#45;10&#45;&gt;1 -->
<g id="edge34" class="edge">
<title>&#45;10&#45;&gt;1</title>
<path fill="none" stroke="green" stroke-width="0.31" d="M2395.83,-151.04C2356.18,-133.17 2241.99,-84.17 2141.3,-64.99 1964.96,-31.4 1513.62,-37.21 1334.3,-28.99 1237.04,-24.54 1121.26,-19.03 1071.73,-16.66"/>
<polygon fill="green" stroke="green" stroke-width="0.31" points="1072.09,-13.18 1061.93,-16.2 1071.75,-20.17 1072.09,-13.18"/>
</g>
<!-- &#45;10&#45;&gt;2 -->
<g id="edge72" class="edge">
<title>&#45;10&#45;&gt;2</title>
<path fill="none" stroke="green" stroke-width="0.34" d="M2409.18,-148.58C2406.27,-129.26 2396.55,-84.44 2367.3,-64.99 2277.67,-5.39 1505.3,-47.63 1399.3,-28.99 1392.86,-27.86 1386.05,-25.98 1379.83,-23.99"/>
<polygon fill="green" stroke="green" stroke-width="0.34" points="1381.27,-20.78 1370.68,-20.83 1378.99,-27.4 1381.27,-20.78"/>
</g>
<!-- &#45;10&#45;&gt;4 -->
<g id="edge25" class="edge">
<title>&#45;10&#45;&gt;4</title>
<path fill="none" stroke="red" stroke-width="0.12" d="M2424.75,-156.68C2449.13,-154.1 2497.87,-144.99 2519.3,-113.07 2531.21,-95.33 2533.96,-80.54 2519.3,-64.99 2490.33,-34.28 1833.77,-18.88 1697.09,-16"/>
<polygon fill="red" stroke="red" stroke-width="0.12" points="1697.22,-12.5 1687.15,-15.79 1697.07,-19.5 1697.22,-12.5"/>
</g>
<!-- &#45;10&#45;&gt;5 -->
<g id="edge110" class="edge">
<title>&#45;10&#45;&gt;5</title>
<path fill="none" stroke="red" stroke-width="0.49" d="M2424.35,-150.31C2436.93,-142.82 2454.55,-129.94 2462.3,-113.07 2471.22,-93.66 2475.93,-81.45 2462.3,-64.99 2432.39,-28.88 2285.32,-18.91 2226.09,-16.33"/>
<polygon fill="red" stroke="red" stroke-width="0.49" points="2226.23,-12.84 2216.09,-15.93 2225.95,-19.83 2226.23,-12.84"/>
</g>
<!-- &#45;10&#45;&gt;6 -->
<g id="edge93" class="edge">
<title>&#45;10&#45;&gt;6</title>
<path fill="none" stroke="red" stroke-width="0.15" d="M2424.6,-153.41C2441.62,-147.46 2469.26,-134.86 2481.3,-113.07 2491.63,-94.37 2496.08,-80.43 2481.3,-64.99 2449.3,-31.58 1695.5,-31.36 1649.3,-28.99 1575.49,-25.2 1488.24,-19.74 1446.68,-17.07"/>
<polygon fill="red" stroke="red" stroke-width="0.15" points="1447.1,-13.59 1436.9,-16.45 1446.65,-20.58 1447.1,-13.59"/>
</g>
<!-- &#45;10&#45;&gt;923 -->
<g id="edge117" class="edge">
<title>&#45;10&#45;&gt;923</title>
<path fill="none" stroke="green" stroke-width="0.43" d="M2395.84,-157.11C2300.87,-153.18 1765.03,-130.54 1602.3,-113.07 1562.66,-108.82 1517.32,-101.08 1488.27,-95.76"/>
<polygon fill="green" stroke="green" stroke-width="0.43" points="1489.19,-92.37 1478.72,-93.98 1487.91,-99.25 1489.19,-92.37"/>
</g>
<!-- &#45;10&#45;&gt;926 -->
<g id="edge133" class="edge">
<title>&#45;10&#45;&gt;926</title>
<path fill="none" stroke="red" stroke-width="0.25" d="M2395.9,-155.52C2332.87,-146 2080.51,-107.89 1992.65,-94.62"/>
<polygon fill="red" stroke="red" stroke-width="0.25" points="1993.42,-91.19 1983,-93.16 1992.37,-98.12 1993.42,-91.19"/>
</g>
<!-- &#45;11 -->
<g id="node11" class="node">
<title>&#45;11</title>
<polygon fill="lightgray" stroke="black" points="1559.3,-168.32 1531.3,-168.32 1531.3,-149.07 1559.3,-149.07 1559.3,-168.32"/>
<text text-anchor="middle" x="1545.3" y="-155.77" font-family="Times New Roman,serif" font-size="9.00">&#45;11</text>
</g>
<!-- &#45;11&#45;&gt;0 -->
<g id="edge66" class="edge">
<title>&#45;11&#45;&gt;0</title>
<path fill="none" stroke="red" stroke-width="0.13" d="M1530.83,-154.23C1451.94,-135.31 1075.25,-44.78 1024.3,-28.99 1019.87,-27.62 1015.2,-26 1010.75,-24.37"/>
<polygon fill="red" stroke="red" stroke-width="0.13" points="1012.1,-21.14 1001.5,-20.87 1009.62,-27.68 1012.1,-21.14"/>
</g>
<!-- &#45;11&#45;&gt;2 -->
<g id="edge123" class="edge">
<title>&#45;11&#45;&gt;2</title>
<path fill="none" stroke="red" stroke-width="0.14" d="M1542.08,-148.7C1535.09,-130.39 1516.85,-88.58 1488.3,-64.99 1479.64,-57.84 1415.33,-35.26 1380.14,-23.22"/>
<polygon fill="red" stroke="red" stroke-width="0.14" points="1381.66,-20.04 1371.06,-20.13 1379.4,-26.67 1381.66,-20.04"/>
</g>
<!-- &#45;11&#45;&gt;7 -->
<g id="edge115" class="edge">
<title>&#45;11&#45;&gt;7</title>
<path fill="none" stroke="red" stroke-width="0.13" d="M1555.76,-148.85C1568.74,-137.87 1591.11,-118.95 1606.96,-105.54"/>
<polygon fill="red" stroke="red" stroke-width="0.13" points="1609.21,-108.23 1614.58,-99.1 1604.68,-102.88 1609.21,-108.23"/>
</g>
<!-- &#45;11&#45;&gt;923 -->
<g id="edge118" class="edge">
<title>&#45;11&#45;&gt;923</title>
<path fill="none" stroke="red" stroke-width="0.26" stroke-dasharray="1,5" d="M1533.92,-148.85C1520.86,-138.69 1499.07,-121.74 1482.22,-108.64"/>
<polygon fill="red" stroke="red" stroke-width="0.26" points="1484.45,-105.94 1474.41,-102.56 1480.15,-111.47 1484.45,-105.94"/>
</g>
<!-- &#45;11&#45;&gt;926 -->
<g id="edge54" class="edge">
<title>&#45;11&#45;&gt;926</title>
<path fill="none" stroke="red" stroke-width="0.15" d="M1559.65,-155.37C1619.32,-145.69 1848.49,-108.5 1931.8,-94.98"/>
<polygon fill="red" stroke="red" stroke-width="0.15" points="1932.13,-98.47 1941.44,-93.42 1931.01,-91.56 1932.13,-98.47"/>
</g>
<!-- &#45;12 -->
<g id="node12" class="node">
<title>&#45;12</title>
<polygon fill="lightgray" stroke="black" points="1404.3,-168.32 1376.3,-168.32 1376.3,-149.07 1404.3,-149.07 1404.3,-168.32"/>
<text text-anchor="middle" x="1390.3" y="-155.77" font-family="Times New Roman,serif" font-size="9.00">&#45;12</text>
</g>
<!-- &#45;12&#45;&gt;0 -->
<g id="edge70" class="edge">
<title>&#45;12&#45;&gt;0</title>
<path fill="none" stroke="red" stroke-width="0.23" d="M1376.12,-155.21C1344.79,-149.52 1267.51,-134.36 1205.3,-113.07 1131.08,-87.68 1047.56,-46.27 1009.38,-26.57"/>
<polygon fill="red" stroke="red" stroke-width="0.23" points="1011.17,-23.56 1000.68,-22.06 1007.95,-29.77 1011.17,-23.56"/>
</g>
<!-- &#45;12&#45;&gt;2 -->
<g id="edge16" class="edge">
<title>&#45;12&#45;&gt;2</title>
<path fill="none" stroke="green" stroke-width="0.26" d="M1388.23,-148.8C1383.17,-126.97 1369.99,-70.18 1362.57,-38.21"/>
<polygon fill="green" stroke="green" stroke-width="0.26" points="1366.05,-37.73 1360.38,-28.78 1359.23,-39.31 1366.05,-37.73"/>
</g>
<!-- &#45;12&#45;&gt;3 -->
<g id="edge64" class="edge">
<title>&#45;12&#45;&gt;3</title>
<path fill="none" stroke="red" stroke-width="0.36" d="M1376.02,-156.76C1308.49,-152.22 1023.04,-132.05 988.3,-113.07 964.15,-99.88 969.19,-84 949.3,-64.99 934.75,-51.09 916.23,-37.68 902.35,-28.33"/>
<polygon fill="red" stroke="red" stroke-width="0.36" points="904.65,-25.66 894.38,-23.07 900.79,-31.5 904.65,-25.66"/>
</g>
<!-- &#45;12&#45;&gt;4 -->
<g id="edge6" class="edge">
<title>&#45;12&#45;&gt;4</title>
<path fill="none" stroke="green" stroke-width="0.23" d="M1404.71,-151.46C1423.93,-143.07 1458.94,-127.52 1488.3,-113.07 1548.2,-83.59 1617.41,-45.87 1651.34,-27.14"/>
<polygon fill="green" stroke="green" stroke-width="0.23" points="1652.88,-30.29 1659.94,-22.38 1649.49,-24.16 1652.88,-30.29"/>
</g>
<!-- &#45;12&#45;&gt;6 -->
<g id="edge126" class="edge">
<title>&#45;12&#45;&gt;6</title>
<path fill="none" stroke="green" stroke-width="0.22" d="M1392.3,-148.8C1397.21,-126.97 1409.99,-70.18 1417.19,-38.21"/>
<polygon fill="green" stroke="green" stroke-width="0.22" points="1420.53,-39.3 1419.31,-28.78 1413.7,-37.77 1420.53,-39.3"/>
</g>
<!-- &#45;12&#45;&gt;7 -->
<g id="edge122" class="edge">
<title>&#45;12&#45;&gt;7</title>
<path fill="none" stroke="green" stroke-width="0.21" d="M1404.79,-154.77C1450.39,-145.53 1588.46,-117.35 1597.3,-113.07 1600.95,-111.31 1604.55,-108.96 1607.88,-106.45"/>
<polygon fill="green" stroke="green" stroke-width="0.21" points="1610.07,-109.18 1615.49,-100.08 1605.57,-103.81 1610.07,-109.18"/>
</g>
<!-- &#45;12&#45;&gt;926 -->
<g id="edge103" class="edge">
<title>&#45;12&#45;&gt;926</title>
<path fill="none" stroke="red" stroke-width="0.28" d="M1404.44,-154.7C1413.28,-152.89 1424.92,-150.65 1435.3,-149.07 1622.97,-120.62 1850.19,-99.7 1931.51,-92.64"/>
<polygon fill="red" stroke="red" stroke-width="0.28" points="1931.47,-96.15 1941.13,-91.81 1930.87,-89.18 1931.47,-96.15"/>
</g>
<!-- &#45;12&#45;&gt;927 -->
<g id="edge24" class="edge">
<title>&#45;12&#45;&gt;927</title>
<path fill="none" stroke="green" stroke-width="0.14" d="M1375.98,-156.72C1352.18,-155.1 1302.96,-151.77 1261.3,-149.07 903.74,-125.9 469.66,-99.19 351.34,-91.93"/>
<polygon fill="green" stroke="green" stroke-width="0.14" points="351.7,-88.45 341.5,-91.33 351.27,-95.44 351.7,-88.45"/>
</g>
<!-- &#45;13 -->
<g id="node13" class="node">
<title>&#45;13</title>
<polygon fill="lightgray" stroke="black" points="2196.3,-168.32 2168.3,-168.32 2168.3,-149.07 2196.3,-149.07 2196.3,-168.32"/>
<text text-anchor="middle" x="2182.3" y="-155.77" font-family="Times New Roman,serif" font-size="9.00">&#45;13</text>
</g>
<!-- &#45;13&#45;&gt;1 -->
<g id="edge74" class="edge">
<title>&#45;13&#45;&gt;1</title>
<path fill="none" stroke="red" stroke-width="0.14" d="M2177.73,-148.71C2167.3,-129.25 2139.6,-83.48 2101.3,-64.99 2024.47,-27.9 1419.52,-33 1334.3,-28.99 1237.05,-24.42 1121.26,-18.98 1071.73,-16.65"/>
<polygon fill="red" stroke="red" stroke-width="0.14" points="1072.09,-13.16 1061.93,-16.18 1071.76,-20.15 1072.09,-13.16"/>
</g>
<!-- &#45;13&#45;&gt;2 -->
<g id="edge136" class="edge">
<title>&#45;13&#45;&gt;2</title>
<path fill="none" stroke="red" stroke-width="0.23" d="M2196.75,-156.68C2221.13,-154.1 2269.87,-144.99 2291.3,-113.07 2303.21,-95.33 2306.1,-80.4 2291.3,-64.99 2256.94,-29.22 1448.13,-37.66 1399.3,-28.99 1392.86,-27.85 1386.05,-25.97 1379.83,-23.97"/>
<polygon fill="red" stroke="red" stroke-width="0.23" points="1381.27,-20.77 1370.68,-20.82 1379,-27.39 1381.27,-20.77"/>
</g>
<!-- &#45;13&#45;&gt;3 -->
<g id="edge29" class="edge">
<title>&#45;13&#45;&gt;3</title>
<path fill="none" stroke="red" stroke-width="0.33" d="M2170.68,-148.58C2144.78,-128.86 2079.57,-82.63 2016.3,-64.99 1791.18,-2.26 1197.87,-51.79 965.3,-28.99 945.2,-27.02 922.6,-23.24 906.06,-20.18"/>
<polygon fill="red" stroke="red" stroke-width="0.33" points="907.1,-16.82 896.62,-18.39 905.79,-23.69 907.1,-16.82"/>
</g>
<!-- &#45;13&#45;&gt;4 -->
<g id="edge128" class="edge">
<title>&#45;13&#45;&gt;4</title>
<path fill="none" stroke="red" stroke-width="0.42" d="M2196.67,-158.4C2227.11,-158.99 2297.84,-155.49 2329.3,-113.07 2342.03,-95.91 2343.83,-80.66 2329.3,-64.99 2285.54,-17.82 1811.22,-15.33 1696.95,-15.42"/>
<polygon fill="red" stroke="red" stroke-width="0.42" points="1697.04,-11.92 1687.05,-15.44 1697.05,-18.92 1697.04,-11.92"/>
</g>
<!-- &#45;13&#45;&gt;5 -->
<g id="edge41" class="edge">
<title>&#45;13&#45;&gt;5</title>
<path fill="none" stroke="red" stroke-width="0.11" d="M2196.73,-157.56C2246.72,-156.73 2411.21,-151.11 2443.3,-113.07 2457.08,-96.74 2456.81,-81.55 2443.3,-64.99 2415.98,-31.52 2281.72,-20.07 2225.81,-16.72"/>
<polygon fill="red" stroke="red" stroke-width="0.11" points="2226.2,-13.24 2216.02,-16.17 2225.81,-20.22 2226.2,-13.24"/>
</g>
<!-- &#45;13&#45;&gt;7 -->
<g id="edge130" class="edge">
<title>&#45;13&#45;&gt;7</title>
<path fill="none" stroke="green" stroke-width="0.39" d="M2167.97,-155.96C2092.96,-146.85 1745.3,-104.61 1649.69,-93"/>
<polygon fill="green" stroke="green" stroke-width="0.39" points="1650.14,-89.52 1639.79,-91.79 1649.29,-96.47 1650.14,-89.52"/>
</g>
<!-- &#45;13&#45;&gt;923 -->
<g id="edge3" class="edge">
<title>&#45;13&#45;&gt;923</title>
<path fill="none" stroke="red" stroke-width="0.11" d="M2167.88,-156.75C2089.81,-151.59 1717.01,-126.64 1602.3,-113.07 1562.71,-108.39 1517.35,-100.75 1488.29,-95.57"/>
<polygon fill="red" stroke="red" stroke-width="0.11" points="1489.19,-92.17 1478.73,-93.84 1487.95,-99.06 1489.19,-92.17"/>
</g>
<!-- &#45;13&#45;&gt;926 -->
<g id="edge45" class="edge">
<title>&#45;13&#45;&gt;926</title>
<path fill="none" stroke="red" stroke-width="0.37" d="M2167.86,-153.26C2132.25,-142.31 2039.65,-113.82 1991.83,-99.12"/>
<polygon fill="red" stroke="red" stroke-width="0.37" points="1992.93,-95.79 1982.34,-96.2 1990.87,-102.48 1992.93,-95.79"/>
</g>
<!-- &#45;14 -->
<g id="node14" class="node">
<title>&#45;14</title>
<polygon fill="lightgray" stroke="black" points="334.3,-168.32 306.3,-168.32 306.3,-149.07 334.3,-149.07 334.3,-168.32"/>
<text text-anchor="middle" x="320.3" y="-155.77" font-family="Times New Roman,serif" font-size="9.00">&#45;14</text>
</g>
<!-- &#45;14&#45;&gt;1 -->
<g id="edge27" class="edge">
<title>&#45;14&#45;&gt;1</title>
<path fill="none" stroke="green" stroke-width="0.34" d="M307.39,-148.78C297.06,-140.79 283.33,-128.04 277.3,-113.07 269.3,-93.26 262.56,-80.47 277.3,-64.99 333.6,-5.86 931.33,-45.52 1011.3,-28.99 1015.83,-28.05 1020.55,-26.63 1025.03,-25.06"/>
<polygon fill="green" stroke="green" stroke-width="0.34" points="1026.18,-28.37 1034.25,-21.5 1023.66,-21.83 1026.18,-28.37"/>
</g>
<!-- &#45;14&#45;&gt;3 -->
<g id="edge5" class="edge">
<title>&#45;14&#45;&gt;3</title>
<path fill="none" stroke="green" stroke-width="0.27" d="M306.12,-157.92C235.56,-158.58 -70.97,-156.32 15.3,-64.99 45.03,-33.51 719.79,-18.67 857.78,-15.96"/>
<polygon fill="green" stroke="green" stroke-width="0.27" points="857.52,-19.46 867.45,-15.77 857.39,-12.46 857.52,-19.46"/>
</g>
<!-- &#45;14&#45;&gt;923 -->
<g id="edge140" class="edge">
<title>&#45;14&#45;&gt;923</title>
<path fill="none" stroke="green" stroke-width="0.3" d="M334.48,-154.39C343.06,-152.52 354.25,-150.32 364.3,-149.07 666.41,-111.7 744.33,-129.62 1048.3,-113.07 1190.15,-105.36 1359.59,-95.69 1427.72,-91.79"/>
<polygon fill="green" stroke="green" stroke-width="0.3" points="1427.61,-95.3 1437.39,-91.23 1427.21,-88.31 1427.61,-95.3"/>
</g>
<!-- &#45;14&#45;&gt;925 -->
<g id="edge22" class="edge">
<title>&#45;14&#45;&gt;925</title>
<path fill="none" stroke="red" stroke-width="0.12" d="M334.5,-154.52C343.09,-152.69 354.28,-150.49 364.3,-149.07 546.3,-123.36 594.57,-140.65 776.3,-113.07 802.22,-109.14 831.3,-102.67 852.43,-97.59"/>
<polygon fill="red" stroke="red" stroke-width="0.12" points="853.23,-100.99 862.12,-95.22 851.57,-94.19 853.23,-100.99"/>
</g>
<!-- &#45;14&#45;&gt;927 -->
<g id="edge48" class="edge">
<title>&#45;14&#45;&gt;927</title>
<path fill="none" stroke="green" stroke-width="0.37" d="M320.3,-148.85C320.3,-141.47 320.3,-130.5 320.3,-120.02"/>
<polygon fill="green" stroke="green" stroke-width="0.37" points="323.8,-120.27 320.3,-110.27 316.8,-120.27 323.8,-120.27"/>
</g>
<!-- &#45;15 -->
<g id="node15" class="node">
<title>&#45;15</title>
<polygon fill="lightgray" stroke="black" points="1252.3,-168.32 1224.3,-168.32 1224.3,-149.07 1252.3,-149.07 1252.3,-168.32"/>
<text text-anchor="middle" x="1238.3" y="-155.77" font-family="Times New Roman,serif" font-size="9.00">&#45;15</text>
</g>
<!-- &#45;15&#45;&gt;2 -->
<g id="edge4" class="edge">
<title>&#45;15&#45;&gt;2</title>
<path fill="none" stroke="green" stroke-width="0.14" d="M1240.68,-148.6C1245.69,-130.83 1258.76,-91.01 1281.3,-64.99 1296.35,-47.62 1318.94,-33.97 1335.59,-25.44"/>
<polygon fill="green" stroke="green" stroke-width="0.14" points="1336.7,-28.79 1344.14,-21.24 1333.62,-22.51 1336.7,-28.79"/>
</g>
<!-- &#45;15&#45;&gt;3 -->
<g id="edge31" class="edge">
<title>&#45;15&#45;&gt;3</title>
<path fill="none" stroke="green" stroke-width="0.15" d="M1223.81,-156.85C1172.72,-153.63 1001.52,-140.93 955.3,-113.07 939.41,-103.5 911.04,-61.27 894.74,-35.61"/>
<polygon fill="green" stroke="green" stroke-width="0.15" points="897.81,-33.9 889.52,-27.3 891.88,-37.63 897.81,-33.9"/>
</g>
<!-- &#45;15&#45;&gt;6 -->
<g id="edge10" class="edge">
<title>&#45;15&#45;&gt;6</title>
<path fill="none" stroke="red" stroke-width="0.29" d="M1250.09,-148.59C1281.21,-124.54 1365.75,-59.2 1403.57,-29.97"/>
<polygon fill="red" stroke="red" stroke-width="0.29" points="1405.53,-32.87 1411.31,-23.99 1401.25,-27.33 1405.53,-32.87"/>
</g>
<!-- &#45;15&#45;&gt;7 -->
<g id="edge73" class="edge">
<title>&#45;15&#45;&gt;7</title>
<path fill="none" stroke="green" stroke-width="0.7" d="M1252.53,-155.21C1310.13,-145.14 1526.41,-107.32 1600.34,-94.4"/>
<polygon fill="green" stroke="green" stroke-width="0.7" points="1600.69,-97.71 1609.93,-92.54 1599.48,-90.82 1600.69,-97.71"/>
</g>
<!-- &#45;15&#45;&gt;923 -->
<g id="edge11" class="edge">
<title>&#45;15&#45;&gt;923</title>
<path fill="none" stroke="green" stroke-width="0.15" d="M1252.73,-153.26C1288.34,-142.31 1380.95,-113.82 1428.76,-99.12"/>
<polygon fill="green" stroke="green" stroke-width="0.15" points="1429.72,-102.48 1438.25,-96.2 1427.66,-95.79 1429.72,-102.48"/>
</g>
<!-- &#45;15&#45;&gt;924 -->
<g id="edge53" class="edge">
<title>&#45;15&#45;&gt;924</title>
<path fill="none" stroke="green" stroke-width="0.45" d="M1223.84,-155.94C1191.94,-151.7 1113.61,-139.25 1053.3,-113.07 1049.89,-111.6 1046.46,-109.79 1043.14,-107.85"/>
<polygon fill="green" stroke="green" stroke-width="0.45" points="1045.04,-104.92 1034.71,-102.53 1041.29,-110.83 1045.04,-104.92"/>
</g>
<!-- &#45;15&#45;&gt;925 -->
<g id="edge87" class="edge">
<title>&#45;15&#45;&gt;925</title>
<path fill="none" stroke="red" stroke-width="0.19" d="M1224.11,-156.56C1169.77,-152.09 975.09,-134.84 917.3,-113.07 913.65,-111.7 909.99,-109.89 906.49,-107.89"/>
<polygon fill="red" stroke="red" stroke-width="0.19" points="908.54,-105.04 898.21,-102.66 904.8,-110.96 908.54,-105.04"/>
</g>
<!-- &#45;15&#45;&gt;926 -->
<g id="edge102" class="edge">
<title>&#45;15&#45;&gt;926</title>
<path fill="none" stroke="red" stroke-width="0.43" d="M1252.76,-156.35C1340.96,-148.1 1806.81,-104.57 1931.55,-92.91"/>
<polygon fill="red" stroke="red" stroke-width="0.43" points="1931.61,-96.42 1941.24,-92 1930.96,-89.45 1931.61,-96.42"/>
</g>
<!-- &#45;16 -->
<g id="node16" class="node">
<title>&#45;16</title>
<polygon fill="lightgray" stroke="black" points="2025.3,-168.32 1997.3,-168.32 1997.3,-149.07 2025.3,-149.07 2025.3,-168.32"/>
<text text-anchor="middle" x="2011.3" y="-155.77" font-family="Times New Roman,serif" font-size="9.00">&#45;16</text>
</g>
<!-- &#45;16&#45;&gt;1 -->
<g id="edge79" class="edge">
<title>&#45;16&#45;&gt;1</title>
<path fill="none" stroke="green" stroke-width="0.22" d="M2016.87,-148.62C2027.39,-130.17 2047.28,-88.11 2025.3,-64.99 2023.17,-62.76 1222.14,-23.94 1071.55,-16.67"/>
<polygon fill="green" stroke="green" stroke-width="0.22" points="1072,-13.18 1061.85,-16.2 1071.67,-20.18 1072,-13.18"/>
</g>
<!-- &#45;16&#45;&gt;3 -->
<g id="edge7" class="edge">
<title>&#45;16&#45;&gt;3</title>
<path fill="none" stroke="green" stroke-width="0.23" d="M2012.64,-148.81C2014.92,-129.97 2017.14,-85.99 1992.3,-64.99 1948.7,-28.13 1022.11,-34.58 965.3,-28.99 945.2,-27.01 922.6,-23.23 906.06,-20.18"/>
<polygon fill="green" stroke="green" stroke-width="0.23" points="907.1,-16.81 896.62,-18.39 905.79,-23.69 907.1,-16.81"/>
</g>
<!-- &#45;16&#45;&gt;5 -->
<g id="edge19" class="edge">
<title>&#45;16&#45;&gt;5</title>
<path fill="none" stroke="green" stroke-width="0.23" d="M2025.77,-156.81C2068.28,-153.87 2191.31,-142.87 2215.3,-113.07 2232.78,-91.36 2222.34,-57.77 2212.44,-36.21"/>
<polygon fill="green" stroke="green" stroke-width="0.23" points="2215.72,-34.94 2208.17,-27.51 2209.43,-38.03 2215.72,-34.94"/>
</g>
<!-- &#45;16&#45;&gt;6 -->
<g id="edge20" class="edge">
<title>&#45;16&#45;&gt;6</title>
<path fill="none" stroke="red" stroke-width="0.16" d="M2025.35,-150.31C2037.93,-142.82 2055.55,-129.94 2063.3,-113.07 2072.22,-93.66 2077.81,-80.67 2063.3,-64.99 2052.6,-53.44 1562.51,-23.78 1446.65,-16.93"/>
<polygon fill="red" stroke="red" stroke-width="0.16" points="1447.11,-13.45 1436.93,-16.35 1446.7,-20.43 1447.11,-13.45"/>
</g>
<!-- &#45;16&#45;&gt;7 -->
<g id="edge125" class="edge">
<title>&#45;16&#45;&gt;7</title>
<path fill="none" stroke="green" stroke-width="0.4" d="M1997.1,-155.21C1939.41,-145.1 1722.15,-107.01 1649.29,-94.24"/>
<polygon fill="green" stroke="green" stroke-width="0.4" points="1650.08,-90.82 1639.62,-92.54 1648.87,-97.72 1650.08,-90.82"/>
</g>
<!-- &#45;16&#45;&gt;923 -->
<g id="edge65" class="edge">
<title>&#45;16&#45;&gt;923</title>
<path fill="none" stroke="red" stroke-width="0.18" d="M1997.14,-156.41C1944.7,-151.6 1756.62,-133.83 1602.3,-113.07 1562.79,-107.76 1517.42,-100.27 1488.33,-95.29"/>
<polygon fill="red" stroke="red" stroke-width="0.18" points="1489.21,-91.89 1478.76,-93.64 1488.02,-98.79 1489.21,-91.89"/>
</g>
<!-- &#45;16&#45;&gt;926 -->
<g id="edge82" class="edge">
<title>&#45;16&#45;&gt;926</title>
<path fill="none" stroke="green" stroke-width="0.4" d="M2004.89,-148.85C1998.57,-140.12 1988.61,-126.37 1979.91,-114.36"/>
<polygon fill="green" stroke="green" stroke-width="0.4" points="1982.85,-112.45 1974.15,-106.41 1977.18,-116.56 1982.85,-112.45"/>
</g>
<!-- &#45;17 -->
<g id="node17" class="node">
<title>&#45;17</title>
<polygon fill="lightgray" stroke="black" points="1472.3,-168.32 1444.3,-168.32 1444.3,-149.07 1472.3,-149.07 1472.3,-168.32"/>
<text text-anchor="middle" x="1458.3" y="-155.77" font-family="Times New Roman,serif" font-size="9.00">&#45;17</text>
</g>
<!-- &#45;17&#45;&gt;1 -->
<g id="edge137" class="edge">
<title>&#45;17&#45;&gt;1</title>
<path fill="none" stroke="red" stroke-width="0.29" d="M1444.15,-152.8C1383.49,-131.82 1145.12,-49.34 1070.06,-23.37"/>
<polygon fill="red" stroke="red" stroke-width="0.29" points="1071.56,-20.19 1060.97,-20.22 1069.27,-26.8 1071.56,-20.19"/>
</g>
<!-- &#45;17&#45;&gt;6 -->
<g id="edge134" class="edge">
<title>&#45;17&#45;&gt;6</title>
<path fill="none" stroke="red" stroke-width="0.55" d="M1466.79,-148.64C1474.1,-140.18 1484.1,-126.83 1488.3,-113.07 1494.53,-92.63 1497.85,-84.11 1488.3,-64.99 1479.23,-46.85 1460,-33.63 1444.62,-25.45"/>
<polygon fill="red" stroke="red" stroke-width="0.55" points="1446.18,-22.31 1435.67,-21 1443.07,-28.58 1446.18,-22.31"/>
</g>
<!-- &#45;17&#45;&gt;7 -->
<g id="edge112" class="edge">
<title>&#45;17&#45;&gt;7</title>
<path fill="none" stroke="green" stroke-width="0.33" d="M1472.41,-155.02C1498.34,-149.69 1554.8,-136.27 1597.3,-113.07 1600.86,-111.13 1604.41,-108.7 1607.72,-106.15"/>
<polygon fill="green" stroke="green" stroke-width="0.33" points="1609.91,-108.89 1615.34,-99.8 1605.42,-103.51 1609.91,-108.89"/>
</g>
<!-- &#45;17&#45;&gt;923 -->
<g id="edge38" class="edge">
<title>&#45;17&#45;&gt;923</title>
<path fill="none" stroke="green" stroke-width="0.13" d="M1458.3,-148.85C1458.3,-141.47 1458.3,-130.5 1458.3,-120.02"/>
<polygon fill="green" stroke="green" stroke-width="0.13" points="1461.8,-120.27 1458.3,-110.27 1454.8,-120.27 1461.8,-120.27"/>
</g>
<!-- &#45;17&#45;&gt;925 -->
<g id="edge59" class="edge">
<title>&#45;17&#45;&gt;925</title>
<path fill="none" stroke="red" stroke-width="0.22" d="M1444.17,-154.6C1435.34,-152.76 1423.7,-150.51 1413.3,-149.07 1225.51,-123.2 1175.75,-141.27 988.3,-113.07 962.37,-109.18 933.29,-102.7 912.16,-97.61"/>
<polygon fill="red" stroke="red" stroke-width="0.22" points="913.02,-94.22 902.47,-95.24 911.35,-101.01 913.02,-94.22"/>
</g>
<!-- 2&#45;&gt;2 -->
<g id="edge132" class="edge">
<title>2&#45;&gt;2</title>
<path fill="none" stroke="green" stroke-width="0.45" d="M1367.28,-25.19C1377.86,-31.89 1389.79,-28.33 1389.79,-14.5 1389.79,-4.77 1383.89,-0.12 1376.71,-0.55"/>
<polygon fill="green" stroke="green" stroke-width="0.45" points="1375.59,2.77 1367.28,-3.8 1377.87,-3.85 1375.59,2.77"/>
</g>
<!-- 3&#45;&gt;3 -->
<g id="edge104" class="edge">
<title>3&#45;&gt;3</title>
<path fill="none" stroke="green" stroke-width="0.3" d="M892.28,-25.19C902.86,-31.89 914.79,-28.33 914.79,-14.5 914.79,-4.77 908.89,-0.12 901.71,-0.55"/>
<polygon fill="green" stroke="green" stroke-width="0.3" points="900.59,2.77 892.28,-3.8 902.87,-3.85 900.59,2.77"/>
</g>
<!-- 6&#45;&gt;6 -->
<g id="edge57" class="edge">
<title>6&#45;&gt;6</title>
<path fill="none" stroke="green" stroke-width="0.52" d="M1432.28,-25.19C1442.86,-31.89 1454.79,-28.33 1454.79,-14.5 1454.79,-4.77 1448.89,-0.12 1441.71,-0.55"/>
<polygon fill="green" stroke="green" stroke-width="0.52" points="1440.59,2.77 1432.28,-3.8 1442.87,-3.85 1440.59,2.77"/>
</g>
<!-- 7&#45;&gt;7 -->
<g id="edge105" class="edge">
<title>7&#45;&gt;7</title>
<path fill="none" stroke="red" stroke-width="0.16" d="M1635.95,-99.41C1646.36,-105.15 1657.79,-101.69 1657.79,-89.03 1657.79,-80.14 1652.14,-75.78 1645.16,-75.98"/>
<polygon fill="red" stroke="red" stroke-width="0.16" points="1644.58,-72.5 1635.95,-78.65 1646.53,-79.23 1644.58,-72.5"/>
</g>
<!-- 1099&#45;&gt;6 -->
<g id="edge139" class="edge">
<title>1099&#45;&gt;6</title>
<path fill="none" stroke="green" stroke-width="0.57" d="M762.54,-73.89C768.3,-70.36 774.81,-67.01 781.3,-64.99 1043.58,16.63 1134.71,-106.29 1398.3,-28.99 1399.48,-28.64 1400.68,-28.23 1401.86,-27.76"/>
<polygon fill="green" stroke="green" stroke-width="0.57" points="1403.13,-31.04 1410.56,-23.49 1400.04,-24.75 1403.13,-31.04"/>
</g>
<!-- 923&#45;&gt;1 -->
<g id="edge67" class="edge">
<title>923&#45;&gt;1</title>
<path fill="none" stroke="red" stroke-width="0.45" d="M1437.89,-83.53C1415.66,-78.69 1379.03,-70.9 1347.3,-64.99 1245.07,-45.96 1122.53,-26.91 1071.47,-19.14"/>
<polygon fill="red" stroke="red" stroke-width="0.45" points="1072.11,-15.7 1061.7,-17.66 1071.06,-22.62 1072.11,-15.7"/>
</g>
<!-- 923&#45;&gt;2 -->
<g id="edge95" class="edge">
<title>923&#45;&gt;2</title>
<path fill="none" stroke="red" stroke-width="0.31" d="M1441.62,-76.05C1423.84,-63.28 1395.7,-43.07 1376.88,-29.56"/>
<polygon fill="red" stroke="red" stroke-width="0.31" points="1379.12,-26.86 1368.95,-23.87 1375.03,-32.54 1379.12,-26.86"/>
</g>
<!-- 923&#45;&gt;4 -->
<g id="edge56" class="edge">
<title>923&#45;&gt;4</title>
<path fill="none" stroke="red" stroke-width="0.63" d="M1478.05,-81.34C1517.72,-67.89 1606.89,-37.66 1649.19,-23.33"/>
<polygon fill="red" stroke="red" stroke-width="0.63" points="1650.3,-26.65 1658.65,-20.12 1648.05,-20.02 1650.3,-26.65"/>
</g>
<!-- 923&#45;&gt;5 -->
<g id="edge37" class="edge">
<title>923&#45;&gt;5</title>
<path fill="none" stroke="red" stroke-width="0.19" d="M1478.74,-84.26C1506.59,-79.23 1558.06,-70.35 1602.3,-64.99 1824.37,-38.09 2094.56,-21.53 2176.55,-16.86"/>
<polygon fill="red" stroke="red" stroke-width="0.19" points="2176.65,-20.36 2186.44,-16.3 2176.25,-13.37 2176.65,-20.36"/>
</g>
<!-- 924&#45;&gt;0 -->
<g id="edge77" class="edge">
<title>924&#45;&gt;0</title>
<path fill="none" stroke="green" stroke-width="0.33" d="M1010.57,-69.35C1006.52,-59.56 1001.53,-47.5 997.31,-37.28"/>
<polygon fill="green" stroke="green" stroke-width="0.33" points="1000.6,-36.08 993.54,-28.17 994.13,-38.75 1000.6,-36.08"/>
</g>
<!-- 924&#45;&gt;1 -->
<g id="edge99" class="edge">
<title>924&#45;&gt;1</title>
<path fill="none" stroke="red" stroke-width="0.57" d="M1025.77,-69.35C1029.68,-59.56 1034.5,-47.5 1038.59,-37.28"/>
<polygon fill="red" stroke="red" stroke-width="0.57" points="1041.77,-38.76 1042.23,-28.17 1035.27,-36.16 1041.77,-38.76"/>
</g>
<!-- 924&#45;&gt;2 -->
<g id="edge33" class="edge">
<title>924&#45;&gt;2</title>
<path fill="none" stroke="red" stroke-width="0.78" d="M1037.94,-81.12C1052.53,-76.16 1072.99,-69.57 1091.3,-64.99 1178.68,-43.16 1284.4,-26.26 1331.95,-19.16"/>
<polygon fill="red" stroke="red" stroke-width="0.78" points="1332.36,-22.49 1341.75,-17.57 1331.34,-15.56 1332.36,-22.49"/>
</g>
<!-- 924&#45;&gt;3 -->
<g id="edge111" class="edge">
<title>924&#45;&gt;3</title>
<path fill="none" stroke="red" stroke-width="0.4" d="M1001.48,-76.34C995.8,-72.56 989.36,-68.46 983.3,-64.99 956.8,-49.86 925.02,-34.76 904.28,-25.29"/>
<polygon fill="red" stroke="red" stroke-width="0.4" points="905.88,-22.17 895.32,-21.24 902.99,-28.55 905.88,-22.17"/>
</g>
<!-- 924&#45;&gt;4 -->
<g id="edge91" class="edge">
<title>924&#45;&gt;4</title>
<path fill="none" stroke="red" stroke-width="0.48" d="M1039.32,-85.7C1136.66,-74.9 1543.38,-29.79 1647.79,-18.21"/>
<polygon fill="red" stroke="red" stroke-width="0.48" points="1648.15,-21.7 1657.71,-17.11 1647.38,-14.74 1648.15,-21.7"/>
</g>
<!-- 924&#45;&gt;6 -->
<g id="edge43" class="edge">
<title>924&#45;&gt;6</title>
<path fill="none" stroke="green" stroke-width="0.33" d="M1038.67,-83.35C1060.87,-78.35 1097.48,-70.42 1129.3,-64.99 1248.2,-44.72 1283.9,-67.24 1398.3,-28.99 1399.47,-28.6 1400.65,-28.15 1401.83,-27.65"/>
<polygon fill="green" stroke="green" stroke-width="0.33" points="1403.14,-30.91 1410.5,-23.3 1400,-24.66 1403.14,-30.91"/>
</g>
<!-- 925&#45;&gt;3 -->
<g id="edge21" class="edge">
<title>925&#45;&gt;3</title>
<path fill="none" stroke="green" stroke-width="0.45" d="M882.3,-67.83C882.3,-58.93 882.3,-48.43 882.3,-39.17"/>
<polygon fill="green" stroke="green" stroke-width="0.45" points="885.8,-39.4 882.3,-29.4 878.8,-39.4 885.8,-39.4"/>
</g>
<!-- 925&#45;&gt;4 -->
<g id="edge18" class="edge">
<title>925&#45;&gt;4</title>
<path fill="none" stroke="green" stroke-width="0.21" d="M902.46,-82.75C923.67,-77.41 958.1,-69.34 988.3,-64.99 1054.58,-55.44 1532.69,-24.45 1647.54,-17.08"/>
<polygon fill="green" stroke="green" stroke-width="0.21" points="1647.74,-20.57 1657.49,-16.44 1647.29,-13.59 1647.74,-20.57"/>
</g>
<!-- 926&#45;&gt;4 -->
<g id="edge129" class="edge">
<title>926&#45;&gt;4</title>
<path fill="none" stroke="green" stroke-width="0.54" d="M1945.95,-75.37C1940.3,-71.53 1933.76,-67.63 1927.3,-64.99 1846.9,-32.23 1743.22,-20.75 1696.74,-17.07"/>
<polygon fill="green" stroke="green" stroke-width="0.54" points="1697.19,-13.6 1686.96,-16.35 1696.67,-20.58 1697.19,-13.6"/>
</g>
<!-- 926&#45;&gt;6 -->
<g id="edge71" class="edge">
<title>926&#45;&gt;6</title>
<path fill="none" stroke="red" stroke-width="0.25" d="M1946.44,-75.25C1940.72,-71.3 1934.02,-67.37 1927.3,-64.99 1881.66,-48.85 1542.18,-23.94 1447.02,-17.22"/>
<polygon fill="red" stroke="red" stroke-width="0.25" points="1447.36,-13.73 1437.14,-16.52 1446.87,-20.72 1447.36,-13.73"/>
</g>
<!-- 927&#45;&gt;0 -->
<g id="edge30" class="edge">
<title>927&#45;&gt;0</title>
<path fill="none" stroke="red" stroke-width="0.35" d="M338.39,-78.31C348.39,-73.42 361.21,-67.92 373.3,-64.99 611.37,-7.3 680.56,-61.97 923.3,-28.99 937.13,-27.11 952.42,-23.99 964.69,-21.22"/>
<polygon fill="red" stroke="red" stroke-width="0.35" points="965.24,-24.69 974.19,-19.02 963.66,-17.87 965.24,-24.69"/>
</g>
<!-- 927&#45;&gt;1 -->
<g id="edge120" class="edge">
<title>927&#45;&gt;1</title>
<path fill="none" stroke="red" stroke-width="0.3" d="M338.38,-78.27C348.38,-73.36 361.19,-67.87 373.3,-64.99 649.61,0.65 733.38,-87.51 1011.3,-28.99 1015.83,-28.04 1020.55,-26.61 1025.02,-25.03"/>
<polygon fill="red" stroke="red" stroke-width="0.3" points="1026.18,-28.34 1034.25,-21.48 1023.66,-21.81 1026.18,-28.34"/>
</g>
<!-- 927&#45;&gt;2 -->
<g id="edge107" class="edge">
<title>927&#45;&gt;2</title>
<path fill="none" stroke="red" stroke-width="0.51" d="M338.38,-78.24C348.37,-73.32 361.18,-67.83 373.3,-64.99 385.35,-62.17 1181.57,-23.91 1332.69,-16.67"/>
<polygon fill="red" stroke="red" stroke-width="0.51" points="1332.61,-20.18 1342.43,-16.21 1332.28,-13.19 1332.61,-20.18"/>
</g>
<!-- 927&#45;&gt;3 -->
<g id="edge108" class="edge">
<title>927&#45;&gt;3</title>
<path fill="none" stroke="red" stroke-width="0.14" d="M338.43,-78.46C348.44,-73.62 361.25,-68.11 373.3,-64.99 554.75,-17.98 783.09,-14.85 857.58,-15.19"/>
<polygon fill="red" stroke="red" stroke-width="0.14" points="857.4,-18.69 867.43,-15.26 857.45,-11.69 857.4,-18.69"/>
</g>
<!-- 927&#45;&gt;927 -->
<g id="edge106" class="edge">
<title>927&#45;&gt;927</title>
<path fill="none" stroke="red" stroke-width="0.28" d="M337.48,-101.06C348.52,-104.2 359.16,-100.19 359.16,-89.03 359.16,-81.36 354.13,-77.07 347.4,-76.16"/>
<polygon fill="red" stroke="red" stroke-width="0.28" points="347.14,-72.67 337.48,-77 347.74,-79.64 347.14,-72.67"/>
</g>
</g>
</svg>
