<?xml version="1.0" encoding="UTF-8" standalone="no"?>
<!DOCTYPE svg PUBLIC "-//W3C//DTD SVG 1.1//EN"
 "http://www.w3.org/Graphics/SVG/1.1/DTD/svg11.dtd">
<!-- Generated by graphviz version 8.0.5 (20230430.1635)
 -->
<!-- Pages: 1 -->
<svg width="2520pt" height="170pt"
 viewBox="0.00 0.00 2519.96 169.96" xmlns="http://www.w3.org/2000/svg" xmlns:xlink="http://www.w3.org/1999/xlink">
<g id="graph0" class="graph" transform="scale(1 1) rotate(0) translate(4 165.96)">
<polygon fill="white" stroke="none" points="-4,4 -4,-165.96 2515.96,-165.96 2515.96,4 -4,4"/>
<!-- &#45;1 -->
<g id="node1" class="node">
<title>&#45;1</title>
<polygon fill="lightgray" stroke="black" points="1665.23,-161.96 1641.73,-161.96 1641.73,-142.71 1665.23,-142.71 1665.23,-161.96"/>
<text text-anchor="middle" x="1653.48" y="-149.41" font-family="Times New Roman,serif" font-size="9.00">&#45;1</text>
</g>
<!-- 1 -->
<g id="node19" class="node">
<title>1</title>
<ellipse fill="lightblue" stroke="black" cx="2033.48" cy="-14.5" rx="14.5" ry="14.5"/>
<text text-anchor="middle" x="2033.48" y="-11.57" font-family="Times New Roman,serif" font-size="9.00">1</text>
</g>
<!-- &#45;1&#45;&gt;1 -->
<g id="edge70" class="edge">
<title>&#45;1&#45;&gt;1</title>
<path fill="none" stroke="green" stroke-width="0.11" d="M1665.72,-147.94C1672.88,-146.09 1682.13,-143.93 1690.48,-142.71 1754.92,-133.29 2230.87,-154.15 2275.48,-106.71 2340.71,-37.34 2131.8,-20.31 2058.18,-16.5"/>
<polygon fill="green" stroke="green" stroke-width="0.11" points="2058.5,-13.02 2048.35,-16.03 2058.17,-20.01 2058.5,-13.02"/>
</g>
<!-- 3 -->
<g id="node21" class="node">
<title>3</title>
<ellipse fill="lightblue" stroke="black" cx="1775.48" cy="-14.5" rx="14.5" ry="14.5"/>
<text text-anchor="middle" x="1775.48" y="-11.57" font-family="Times New Roman,serif" font-size="9.00">3</text>
</g>
<!-- &#45;1&#45;&gt;3 -->
<g id="edge82" class="edge">
<title>&#45;1&#45;&gt;3</title>
<path fill="none" stroke="red" stroke-width="0.48" d="M1665.44,-148.37C1672.67,-146.62 1682.08,-144.43 1690.48,-142.71 1735.8,-133.46 1865.74,-142.13 1895.48,-106.71 1907.41,-92.51 1905.8,-80.4 1895.48,-64.99 1874.16,-33.13 1828.19,-21.76 1799.74,-17.71"/>
<polygon fill="red" stroke="red" stroke-width="0.48" points="1800.49,-14.28 1790.13,-16.53 1799.63,-21.23 1800.49,-14.28"/>
</g>
<!-- 5 -->
<g id="node23" class="node">
<title>5</title>
<ellipse fill="lightblue" stroke="black" cx="1363.48" cy="-14.5" rx="14.5" ry="14.5"/>
<text text-anchor="middle" x="1363.48" y="-11.57" font-family="Times New Roman,serif" font-size="9.00">5</text>
</g>
<!-- &#45;1&#45;&gt;5 -->
<g id="edge9" class="edge">
<title>&#45;1&#45;&gt;5</title>
<path fill="none" stroke="red" stroke-width="0.25" d="M1665.47,-147.5C1688.82,-139.75 1738.96,-121.71 1748.48,-106.71 1758.42,-91.06 1760.73,-78.91 1748.48,-64.99 1736.46,-51.33 1470.56,-25.48 1387.83,-17.74"/>
<polygon fill="red" stroke="red" stroke-width="0.25" points="1388.32,-14.27 1378.04,-16.83 1387.67,-21.24 1388.32,-14.27"/>
</g>
<!-- 7 -->
<g id="node25" class="node">
<title>7</title>
<ellipse fill="lightblue" stroke="black" cx="861.48" cy="-14.5" rx="14.5" ry="14.5"/>
<text text-anchor="middle" x="861.48" y="-11.57" font-family="Times New Roman,serif" font-size="9.00">7</text>
</g>
<!-- &#45;1&#45;&gt;7 -->
<g id="edge45" class="edge">
<title>&#45;1&#45;&gt;7</title>
<path fill="none" stroke="green" stroke-width="0.39" d="M1641.45,-145.6C1607.11,-129.54 1505.35,-84.06 1415.48,-64.99 1192.33,-17.64 1127.47,-72.2 903.48,-28.99 897.07,-27.75 890.26,-25.84 884.04,-23.84"/>
<polygon fill="green" stroke="green" stroke-width="0.39" points="885.48,-20.64 874.89,-20.71 883.22,-27.26 885.48,-20.64"/>
</g>
<!-- 658 -->
<g id="node26" class="node">
<title>658</title>
<ellipse fill="white" stroke="black" cx="1602.48" cy="-85.85" rx="20.86" ry="20.86"/>
<text text-anchor="middle" x="1602.48" y="-82.93" font-family="Times New Roman,serif" font-size="9.00">658</text>
</g>
<!-- &#45;1&#45;&gt;658 -->
<g id="edge94" class="edge">
<title>&#45;1&#45;&gt;658</title>
<path fill="none" stroke="red" stroke-width="0.2" d="M1646.39,-142.37C1639.92,-134.18 1630.05,-121.71 1621.31,-110.66"/>
<polygon fill="red" stroke="red" stroke-width="0.2" points="1624.16,-108.61 1615.21,-102.94 1618.67,-112.96 1624.16,-108.61"/>
</g>
<!-- 659 -->
<g id="node27" class="node">
<title>659</title>
<ellipse fill="white" stroke="black" cx="894.48" cy="-85.85" rx="20.86" ry="20.86"/>
<text text-anchor="middle" x="894.48" y="-82.93" font-family="Times New Roman,serif" font-size="9.00">659</text>
</g>
<!-- &#45;1&#45;&gt;659 -->
<g id="edge137" class="edge">
<title>&#45;1&#45;&gt;659</title>
<path fill="none" stroke="green" stroke-width="0.11" d="M1641.36,-147.24C1635.95,-145.57 1629.46,-143.79 1623.48,-142.71 1416.86,-105.51 1361.81,-122.77 1152.48,-106.71 1070.48,-100.42 973.82,-92.97 925.41,-89.24"/>
<polygon fill="green" stroke="green" stroke-width="0.11" points="925.79,-85.76 915.55,-88.48 925.25,-92.74 925.79,-85.76"/>
</g>
<!-- 660 -->
<g id="node28" class="node">
<title>660</title>
<ellipse fill="white" stroke="black" cx="1182.48" cy="-85.85" rx="20.86" ry="20.86"/>
<text text-anchor="middle" x="1182.48" y="-82.93" font-family="Times New Roman,serif" font-size="9.00">660</text>
</g>
<!-- &#45;1&#45;&gt;660 -->
<g id="edge50" class="edge">
<title>&#45;1&#45;&gt;660</title>
<path fill="none" stroke="green" stroke-width="0.1" d="M1641.33,-147.38C1635.91,-145.74 1629.43,-143.93 1623.48,-142.71 1471.1,-111.35 1285.25,-94.74 1213.13,-89.1"/>
<polygon fill="green" stroke="green" stroke-width="0.1" points="1213.57,-85.62 1203.33,-88.35 1213.04,-92.6 1213.57,-85.62"/>
</g>
<!-- 661 -->
<g id="node29" class="node">
<title>661</title>
<ellipse fill="white" stroke="black" cx="1718.48" cy="-85.85" rx="20.86" ry="20.86"/>
<text text-anchor="middle" x="1718.48" y="-82.93" font-family="Times New Roman,serif" font-size="9.00">661</text>
</g>
<!-- &#45;1&#45;&gt;661 -->
<g id="edge64" class="edge">
<title>&#45;1&#45;&gt;661</title>
<path fill="none" stroke="red" stroke-width="0.13" d="M1662.52,-142.37C1671.42,-133.54 1685.34,-119.73 1697.07,-108.09"/>
<polygon fill="red" stroke="red" stroke-width="0.13" points="1699.39,-110.72 1704.03,-101.19 1694.46,-105.75 1699.39,-110.72"/>
</g>
<!-- &#45;2 -->
<g id="node2" class="node">
<title>&#45;2</title>
<polygon fill="lightgray" stroke="black" points="2232.23,-161.96 2208.73,-161.96 2208.73,-142.71 2232.23,-142.71 2232.23,-161.96"/>
<text text-anchor="middle" x="2220.48" y="-149.41" font-family="Times New Roman,serif" font-size="9.00">&#45;2</text>
</g>
<!-- 0 -->
<g id="node18" class="node">
<title>0</title>
<ellipse fill="lightblue" stroke="black" cx="1558.48" cy="-14.5" rx="14.5" ry="14.5"/>
<text text-anchor="middle" x="1558.48" y="-11.57" font-family="Times New Roman,serif" font-size="9.00">0</text>
</g>
<!-- &#45;2&#45;&gt;0 -->
<g id="edge74" class="edge">
<title>&#45;2&#45;&gt;0</title>
<path fill="none" stroke="red" stroke-width="0.13" d="M2211.84,-142.23C2193.75,-123.84 2149.74,-82.57 2103.48,-64.99 2078.8,-55.61 1685.75,-25.18 1582.94,-17.35"/>
<polygon fill="red" stroke="red" stroke-width="0.13" points="1583.38,-13.87 1573.14,-16.6 1582.85,-20.85 1583.38,-13.87"/>
</g>
<!-- &#45;2&#45;&gt;1 -->
<g id="edge34" class="edge">
<title>&#45;2&#45;&gt;1</title>
<path fill="none" stroke="red" stroke-width="0.2" d="M2232.65,-151.39C2293.19,-151.29 2556.28,-146.24 2483.48,-64.99 2454.88,-33.07 2148.3,-19.61 2058.23,-16.33"/>
<polygon fill="red" stroke="red" stroke-width="0.2" points="2058.47,-12.84 2048.35,-15.98 2058.22,-19.83 2058.47,-12.84"/>
</g>
<!-- 2 -->
<g id="node20" class="node">
<title>2</title>
<ellipse fill="lightblue" stroke="black" cx="595.48" cy="-14.5" rx="14.5" ry="14.5"/>
<text text-anchor="middle" x="595.48" y="-11.57" font-family="Times New Roman,serif" font-size="9.00">2</text>
</g>
<!-- &#45;2&#45;&gt;2 -->
<g id="edge127" class="edge">
<title>&#45;2&#45;&gt;2</title>
<path fill="none" stroke="red" stroke-width="0.43" d="M2208.5,-148.04C2159.51,-134.7 1969.42,-84.61 1809.48,-64.99 1380.84,-12.41 1269.87,-48.97 838.48,-28.99 758.55,-25.29 663.89,-19.68 620.04,-17.01"/>
<polygon fill="red" stroke="red" stroke-width="0.43" points="620.47,-13.53 610.27,-16.41 620.04,-20.52 620.47,-13.53"/>
</g>
<!-- &#45;2&#45;&gt;3 -->
<g id="edge46" class="edge">
<title>&#45;2&#45;&gt;3</title>
<path fill="none" stroke="green" stroke-width="0.21" d="M2226.48,-142.47C2237.32,-125.26 2257.29,-87.04 2237.48,-64.99 2222.69,-48.53 1893.5,-23.9 1800.03,-17.22"/>
<polygon fill="green" stroke="green" stroke-width="0.21" points="1800.53,-13.75 1790.3,-16.53 1800.03,-20.73 1800.53,-13.75"/>
</g>
<!-- &#45;2&#45;&gt;661 -->
<g id="edge5" class="edge">
<title>&#45;2&#45;&gt;661</title>
<path fill="none" stroke="red" stroke-width="0.39" d="M2208.57,-149.81C2145.18,-141.66 1846.73,-103.32 1749.32,-90.81"/>
<polygon fill="red" stroke="red" stroke-width="0.39" points="1749.85,-87.35 1739.49,-89.55 1748.96,-94.3 1749.85,-87.35"/>
</g>
<!-- 662 -->
<g id="node30" class="node">
<title>662</title>
<ellipse fill="white" stroke="black" cx="758.48" cy="-85.85" rx="20.86" ry="20.86"/>
<text text-anchor="middle" x="758.48" y="-82.93" font-family="Times New Roman,serif" font-size="9.00">662</text>
</g>
<!-- &#45;2&#45;&gt;662 -->
<g id="edge19" class="edge">
<title>&#45;2&#45;&gt;662</title>
<path fill="none" stroke="green" stroke-width="0.22" d="M2208.51,-150.95C2075.69,-146.72 882.17,-108.65 864.48,-106.71 838.57,-103.87 809.49,-98.25 788.36,-93.71"/>
<polygon fill="green" stroke="green" stroke-width="0.22" points="789.18,-90.31 778.67,-91.58 787.68,-97.14 789.18,-90.31"/>
</g>
<!-- &#45;3 -->
<g id="node3" class="node">
<title>&#45;3</title>
<polygon fill="lightgray" stroke="black" points="1299.23,-161.96 1275.73,-161.96 1275.73,-142.71 1299.23,-142.71 1299.23,-161.96"/>
<text text-anchor="middle" x="1287.48" y="-149.41" font-family="Times New Roman,serif" font-size="9.00">&#45;3</text>
</g>
<!-- &#45;3&#45;&gt;0 -->
<g id="edge80" class="edge">
<title>&#45;3&#45;&gt;0</title>
<path fill="none" stroke="green" stroke-width="0.36" d="M1299.48,-145.32C1341.51,-124.25 1482.55,-53.56 1536.88,-26.32"/>
<polygon fill="green" stroke="green" stroke-width="0.36" points="1538.32,-29.52 1545.69,-21.91 1535.19,-23.26 1538.32,-29.52"/>
</g>
<!-- &#45;3&#45;&gt;2 -->
<g id="edge98" class="edge">
<title>&#45;3&#45;&gt;2</title>
<path fill="none" stroke="green" stroke-width="0.21" d="M1275.51,-150.71C1215.2,-147.47 944.46,-131.76 864.48,-106.71 827.71,-95.19 824.32,-79.16 788.48,-64.99 729.68,-41.74 656.44,-26.46 619.37,-19.62"/>
<polygon fill="green" stroke="green" stroke-width="0.21" points="620.37,-16.24 609.91,-17.91 619.13,-23.13 620.37,-16.24"/>
</g>
<!-- &#45;3&#45;&gt;3 -->
<g id="edge71" class="edge">
<title>&#45;3&#45;&gt;3</title>
<path fill="none" stroke="red" stroke-width="0.22" d="M1299.42,-147.68C1349.93,-132.2 1544.74,-72.57 1572.48,-64.99 1636.77,-47.43 1713.34,-29.58 1751.45,-20.9"/>
<polygon fill="red" stroke="red" stroke-width="0.22" points="1752.16,-24.33 1761.14,-18.71 1750.61,-17.51 1752.16,-24.33"/>
</g>
<!-- &#45;3&#45;&gt;5 -->
<g id="edge105" class="edge">
<title>&#45;3&#45;&gt;5</title>
<path fill="none" stroke="red" stroke-width="0.26" d="M1292.47,-142.42C1304.44,-121.03 1335.06,-66.3 1351.92,-36.17"/>
<polygon fill="red" stroke="red" stroke-width="0.26" points="1354.84,-38.11 1356.67,-27.67 1348.73,-34.69 1354.84,-38.11"/>
</g>
<!-- 6 -->
<g id="node24" class="node">
<title>6</title>
<ellipse fill="lightblue" stroke="black" cx="926.48" cy="-14.5" rx="14.5" ry="14.5"/>
<text text-anchor="middle" x="926.48" y="-11.57" font-family="Times New Roman,serif" font-size="9.00">6</text>
</g>
<!-- &#45;3&#45;&gt;6 -->
<g id="edge10" class="edge">
<title>&#45;3&#45;&gt;6</title>
<path fill="none" stroke="red" stroke-width="0.46" d="M1275.47,-147.65C1251.79,-140.32 1197.44,-123.2 1152.48,-106.71 1077.07,-79.06 989.22,-42.26 948.85,-25.08"/>
<polygon fill="red" stroke="red" stroke-width="0.46" points="950.44,-21.95 939.87,-21.25 947.69,-28.39 950.44,-21.95"/>
</g>
<!-- &#45;3&#45;&gt;658 -->
<g id="edge42" class="edge">
<title>&#45;3&#45;&gt;658</title>
<path fill="none" stroke="green" stroke-width="0.2" d="M1299.45,-148.89C1344.56,-139.65 1505.19,-106.77 1572.48,-92.99"/>
<polygon fill="green" stroke="green" stroke-width="0.2" points="1572.99,-96.46 1582.08,-91.03 1571.58,-89.6 1572.99,-96.46"/>
</g>
<!-- &#45;3&#45;&gt;659 -->
<g id="edge26" class="edge">
<title>&#45;3&#45;&gt;659</title>
<path fill="none" stroke="green" stroke-width="0.23" d="M1275.29,-149.34C1221.62,-140.53 1005.48,-105.06 924.94,-91.85"/>
<polygon fill="green" stroke="green" stroke-width="0.23" points="925.8,-88.44 915.37,-90.28 924.67,-95.35 925.8,-88.44"/>
</g>
<!-- &#45;3&#45;&gt;660 -->
<g id="edge4" class="edge">
<title>&#45;3&#45;&gt;660</title>
<path fill="none" stroke="green" stroke-width="0.37" d="M1275.44,-143.94C1259.15,-133.94 1229.69,-115.84 1208.28,-102.7"/>
<polygon fill="green" stroke="green" stroke-width="0.37" points="1210.31,-99.83 1199.95,-97.58 1206.64,-105.8 1210.31,-99.83"/>
</g>
<!-- &#45;3&#45;&gt;661 -->
<g id="edge81" class="edge">
<title>&#45;3&#45;&gt;661</title>
<path fill="none" stroke="red" stroke-width="0.12" d="M1299.5,-150.57C1345.46,-147.48 1514.29,-134.78 1650.48,-106.71 1663.38,-104.05 1677.37,-100.15 1689.3,-96.5"/>
<polygon fill="red" stroke="red" stroke-width="0.12" points="1690.27,-99.86 1698.76,-93.53 1688.17,-93.19 1690.27,-99.86"/>
</g>
<!-- &#45;4 -->
<g id="node4" class="node">
<title>&#45;4</title>
<polygon fill="lightgray" stroke="black" points="726.23,-161.96 702.73,-161.96 702.73,-142.71 726.23,-142.71 726.23,-161.96"/>
<text text-anchor="middle" x="714.48" y="-149.41" font-family="Times New Roman,serif" font-size="9.00">&#45;4</text>
</g>
<!-- &#45;4&#45;&gt;2 -->
<g id="edge123" class="edge">
<title>&#45;4&#45;&gt;2</title>
<path fill="none" stroke="red" stroke-width="0.34" d="M702.55,-150.45C637.56,-145.56 328.78,-121.58 315.48,-106.71 242.09,-24.65 490.27,-16.1 570.97,-15.46"/>
<polygon fill="red" stroke="red" stroke-width="0.34" points="570.8,-18.96 580.79,-15.41 570.77,-11.96 570.8,-18.96"/>
</g>
<!-- &#45;4&#45;&gt;6 -->
<g id="edge83" class="edge">
<title>&#45;4&#45;&gt;6</title>
<path fill="none" stroke="red" stroke-width="0.3" d="M705.93,-142.22C691.02,-125.22 663.69,-88.3 683.48,-64.99 747.32,10.2 809.41,-61.66 902.48,-28.99 903.65,-28.58 904.83,-28.12 906,-27.61"/>
<polygon fill="red" stroke="red" stroke-width="0.3" points="907.32,-30.86 914.66,-23.22 904.16,-24.62 907.32,-30.86"/>
</g>
<!-- &#45;4&#45;&gt;658 -->
<g id="edge103" class="edge">
<title>&#45;4&#45;&gt;658</title>
<path fill="none" stroke="green" stroke-width="0.11" d="M726.7,-145.54C729.53,-144.42 732.56,-143.38 735.48,-142.71 777.01,-133.12 1421.34,-96.9 1571.41,-88.57"/>
<polygon fill="green" stroke="green" stroke-width="0.11" points="1571.56,-92.07 1581.35,-88.02 1571.17,-85.08 1571.56,-92.07"/>
</g>
<!-- &#45;4&#45;&gt;659 -->
<g id="edge77" class="edge">
<title>&#45;4&#45;&gt;659</title>
<path fill="none" stroke="green" stroke-width="0.24" d="M726.43,-146.3C729.38,-145.1 732.54,-143.83 735.48,-142.71 780.58,-125.54 833.57,-107.31 865.56,-96.51"/>
<polygon fill="green" stroke="green" stroke-width="0.24" points="866.42,-99.91 874.78,-93.41 864.19,-93.28 866.42,-99.91"/>
</g>
<!-- &#45;4&#45;&gt;662 -->
<g id="edge33" class="edge">
<title>&#45;4&#45;&gt;662</title>
<path fill="none" stroke="green" stroke-width="0.44" d="M720.6,-142.37C725.97,-134.5 734.03,-122.68 741.34,-111.97"/>
<polygon fill="green" stroke="green" stroke-width="0.44" points="744.23,-113.94 746.98,-103.71 738.45,-110 744.23,-113.94"/>
</g>
<!-- &#45;5 -->
<g id="node5" class="node">
<title>&#45;5</title>
<polygon fill="lightgray" stroke="black" points="550.23,-161.96 526.73,-161.96 526.73,-142.71 550.23,-142.71 550.23,-161.96"/>
<text text-anchor="middle" x="538.48" y="-149.41" font-family="Times New Roman,serif" font-size="9.00">&#45;5</text>
</g>
<!-- &#45;5&#45;&gt;0 -->
<g id="edge99" class="edge">
<title>&#45;5&#45;&gt;0</title>
<path fill="none" stroke="green" stroke-width="0.31" d="M535.65,-142.46C530.64,-124.88 522.62,-85.54 543.48,-64.99 576.88,-32.1 1339.69,-31.83 1386.48,-28.99 1439.09,-25.81 1500.64,-20.62 1533.98,-17.69"/>
<polygon fill="green" stroke="green" stroke-width="0.31" points="1534.12,-21.2 1543.77,-16.83 1533.5,-14.22 1534.12,-21.2"/>
</g>
<!-- &#45;5&#45;&gt;1 -->
<g id="edge128" class="edge">
<title>&#45;5&#45;&gt;1</title>
<path fill="none" stroke="red" stroke-width="0.27" d="M550.33,-143.92C579.36,-126.23 656.87,-81.77 728.48,-64.99 960.13,-10.73 1560.82,-39.81 1798.48,-28.99 1875.26,-25.5 1966.05,-19.85 2008.84,-17.1"/>
<polygon fill="red" stroke="red" stroke-width="0.27" points="2008.89,-20.61 2018.64,-16.47 2008.44,-13.62 2008.89,-20.61"/>
</g>
<!-- &#45;5&#45;&gt;2 -->
<g id="edge75" class="edge">
<title>&#45;5&#45;&gt;2</title>
<path fill="none" stroke="red" stroke-width="0.26" d="M526.33,-149.7C475.94,-142.86 285.71,-116.46 277.48,-106.71 265.53,-92.54 265.42,-79.07 277.48,-64.99 315.43,-20.68 503.07,-15.73 570.94,-15.4"/>
<polygon fill="red" stroke="red" stroke-width="0.26" points="570.76,-18.9 580.76,-15.39 570.75,-11.9 570.76,-18.9"/>
</g>
<!-- 4 -->
<g id="node22" class="node">
<title>4</title>
<ellipse fill="lightblue" stroke="black" cx="344.48" cy="-14.5" rx="14.5" ry="14.5"/>
<text text-anchor="middle" x="344.48" y="-11.57" font-family="Times New Roman,serif" font-size="9.00">4</text>
</g>
<!-- &#45;5&#45;&gt;4 -->
<g id="edge112" class="edge">
<title>&#45;5&#45;&gt;4</title>
<path fill="none" stroke="green" stroke-width="0.29" d="M526.39,-149.81C474.41,-143.22 272.22,-116.98 263.48,-106.71 251.47,-92.59 254.41,-81.16 263.48,-64.99 275.7,-43.2 301.85,-29.86 321.15,-22.61"/>
<polygon fill="green" stroke="green" stroke-width="0.29" points="322.21,-25.94 330.5,-19.35 319.91,-19.33 322.21,-25.94"/>
</g>
<!-- &#45;5&#45;&gt;6 -->
<g id="edge102" class="edge">
<title>&#45;5&#45;&gt;6</title>
<path fill="none" stroke="red" stroke-width="0.21" d="M529.68,-142.38C513.96,-125.32 484.59,-87.86 505.48,-64.99 565.23,0.41 817.89,-55.28 902.48,-28.99 903.66,-28.62 904.85,-28.19 906.03,-27.72"/>
<polygon fill="red" stroke="red" stroke-width="0.21" points="907.32,-30.98 914.72,-23.41 904.21,-24.71 907.32,-30.98"/>
</g>
<!-- &#45;5&#45;&gt;7 -->
<g id="edge124" class="edge">
<title>&#45;5&#45;&gt;7</title>
<path fill="none" stroke="red" stroke-width="0.25" d="M526.29,-150.55C502.79,-148.29 451.59,-139.65 429.48,-106.71 419.15,-91.31 417.14,-78.83 429.48,-64.99 456.8,-34.37 749.35,-20.06 836.88,-16.44"/>
<polygon fill="red" stroke="red" stroke-width="0.25" points="836.88,-19.95 846.73,-16.05 836.6,-12.95 836.88,-19.95"/>
</g>
<!-- &#45;5&#45;&gt;659 -->
<g id="edge93" class="edge">
<title>&#45;5&#45;&gt;659</title>
<path fill="none" stroke="red" stroke-width="0.61" d="M550.72,-149.19C587,-142.82 697.19,-123.41 788.48,-106.71 813.96,-102.05 842.87,-96.63 864.05,-92.63"/>
<polygon fill="red" stroke="red" stroke-width="0.61" points="864.6,-96.08 873.77,-90.79 863.3,-89.2 864.6,-96.08"/>
</g>
<!-- &#45;5&#45;&gt;660 -->
<g id="edge109" class="edge">
<title>&#45;5&#45;&gt;660</title>
<path fill="none" stroke="green" stroke-width="0.35" d="M550.49,-150.13C625.96,-142.58 1035.31,-101.59 1151.64,-89.94"/>
<polygon fill="green" stroke="green" stroke-width="0.35" points="1151.75,-93.45 1161.35,-88.97 1151.05,-86.48 1151.75,-93.45"/>
</g>
<!-- &#45;5&#45;&gt;661 -->
<g id="edge116" class="edge">
<title>&#45;5&#45;&gt;661</title>
<path fill="none" stroke="green" stroke-width="0.1" d="M550.54,-150.59C576.61,-149 640.18,-145.2 693.48,-142.71 906.07,-132.8 1440.41,-140.8 1650.48,-106.71 1663.48,-104.6 1677.49,-100.79 1689.4,-97.06"/>
<polygon fill="green" stroke="green" stroke-width="0.1" points="1690.42,-100.41 1698.84,-93.99 1688.25,-93.75 1690.42,-100.41"/>
</g>
<!-- &#45;5&#45;&gt;662 -->
<g id="edge79" class="edge">
<title>&#45;5&#45;&gt;662</title>
<path fill="none" stroke="green" stroke-width="0.14" d="M550.62,-147.78C584.42,-137.87 680.28,-109.77 729.12,-95.46"/>
<polygon fill="green" stroke="green" stroke-width="0.14" points="729.89,-98.88 738.5,-92.71 727.92,-92.16 729.89,-98.88"/>
</g>
<!-- &#45;6 -->
<g id="node6" class="node">
<title>&#45;6</title>
<polygon fill="lightgray" stroke="black" points="1131.23,-161.96 1107.73,-161.96 1107.73,-142.71 1131.23,-142.71 1131.23,-161.96"/>
<text text-anchor="middle" x="1119.48" y="-149.41" font-family="Times New Roman,serif" font-size="9.00">&#45;6</text>
</g>
<!-- &#45;6&#45;&gt;0 -->
<g id="edge130" class="edge">
<title>&#45;6&#45;&gt;0</title>
<path fill="none" stroke="green" stroke-width="0.21" d="M1120.01,-142.25C1121.59,-124.27 1127.83,-84.26 1152.48,-64.99 1167.64,-53.14 1448.13,-25.88 1533.82,-17.8"/>
<polygon fill="green" stroke="green" stroke-width="0.21" points="1534.09,-21.29 1543.71,-16.87 1533.43,-14.32 1534.09,-21.29"/>
</g>
<!-- &#45;6&#45;&gt;1 -->
<g id="edge76" class="edge">
<title>&#45;6&#45;&gt;1</title>
<path fill="none" stroke="green" stroke-width="0.17" d="M1131.67,-148.63C1184.17,-137.08 1396.28,-91.2 1572.48,-64.99 1738.37,-40.32 1939.6,-23.02 2008.76,-17.44"/>
<polygon fill="green" stroke="green" stroke-width="0.17" points="2009.01,-20.93 2018.7,-16.64 2008.45,-13.95 2009.01,-20.93"/>
</g>
<!-- &#45;6&#45;&gt;658 -->
<g id="edge66" class="edge">
<title>&#45;6&#45;&gt;658</title>
<path fill="none" stroke="red" stroke-width="0.15" d="M1131.42,-149.74C1193.17,-141.5 1477.07,-103.6 1571.69,-90.96"/>
<polygon fill="red" stroke="red" stroke-width="0.15" points="1572.07,-94.44 1581.52,-89.65 1571.14,-87.5 1572.07,-94.44"/>
</g>
<!-- &#45;6&#45;&gt;659 -->
<g id="edge55" class="edge">
<title>&#45;6&#45;&gt;659</title>
<path fill="none" stroke="red" stroke-width="0.4" d="M1107.39,-147.87C1073.06,-138.03 974.29,-109.72 924.27,-95.39"/>
<polygon fill="red" stroke="red" stroke-width="0.4" points="925.24,-92.02 914.66,-92.63 923.31,-98.75 925.24,-92.02"/>
</g>
<!-- &#45;6&#45;&gt;660 -->
<g id="edge12" class="edge">
<title>&#45;6&#45;&gt;660</title>
<path fill="none" stroke="red" stroke-width="0.41" d="M1128.24,-142.37C1136.87,-133.54 1150.36,-119.73 1161.73,-108.09"/>
<polygon fill="red" stroke="red" stroke-width="0.41" points="1163.99,-110.79 1168.47,-101.19 1158.98,-105.9 1163.99,-110.79"/>
</g>
<!-- &#45;6&#45;&gt;662 -->
<g id="edge87" class="edge">
<title>&#45;6&#45;&gt;662</title>
<path fill="none" stroke="green" stroke-width="0.29" d="M1107.27,-151.31C1063.5,-150.87 910.91,-146.42 793.48,-106.71 790.44,-105.68 787.36,-104.38 784.35,-102.94"/>
<polygon fill="green" stroke="green" stroke-width="0.29" points="786.15,-99.93 775.67,-98.32 782.86,-106.11 786.15,-99.93"/>
</g>
<!-- &#45;7 -->
<g id="node7" class="node">
<title>&#45;7</title>
<polygon fill="lightgray" stroke="black" points="859.23,-161.96 835.73,-161.96 835.73,-142.71 859.23,-142.71 859.23,-161.96"/>
<text text-anchor="middle" x="847.48" y="-149.41" font-family="Times New Roman,serif" font-size="9.00">&#45;7</text>
</g>
<!-- &#45;7&#45;&gt;1 -->
<g id="edge107" class="edge">
<title>&#45;7&#45;&gt;1</title>
<path fill="none" stroke="red" stroke-width="0.3" d="M859.48,-149.15C902.99,-141.19 1051.08,-113.84 1071.48,-106.71 1109.71,-93.35 1113.41,-75.62 1152.48,-64.99 1291.22,-27.25 1654.93,-37.11 1798.48,-28.99 1875.21,-24.65 1966.03,-19.4 2008.83,-16.93"/>
<polygon fill="red" stroke="red" stroke-width="0.3" points="2008.86,-20.43 2018.64,-16.36 2008.45,-13.44 2008.86,-20.43"/>
</g>
<!-- &#45;7&#45;&gt;2 -->
<g id="edge63" class="edge">
<title>&#45;7&#45;&gt;2</title>
<path fill="none" stroke="red" stroke-width="0.14" d="M835.25,-147.83C813.21,-141.27 765.67,-126.07 728.48,-106.71 684.97,-84.06 638.73,-49.69 613.87,-30.25"/>
<polygon fill="red" stroke="red" stroke-width="0.14" points="616.31,-27.72 606.29,-24.27 611.97,-33.21 616.31,-27.72"/>
</g>
<!-- &#45;7&#45;&gt;3 -->
<g id="edge115" class="edge">
<title>&#45;7&#45;&gt;3</title>
<path fill="none" stroke="red" stroke-width="0.23" d="M859.42,-147.88C884.62,-140.54 945.11,-122.77 995.48,-106.71 1050.88,-89.04 1062.49,-76.53 1119.48,-64.99 1329.16,-22.55 1386.16,-45.17 1599.48,-28.99 1653.53,-24.89 1716.9,-20.02 1750.92,-17.39"/>
<polygon fill="red" stroke="red" stroke-width="0.23" points="1751.18,-20.88 1760.88,-16.62 1750.64,-13.9 1751.18,-20.88"/>
</g>
<!-- &#45;7&#45;&gt;6 -->
<g id="edge73" class="edge">
<title>&#45;7&#45;&gt;6</title>
<path fill="none" stroke="green" stroke-width="0.19" d="M847.28,-142.29C847.33,-125.72 849.34,-89.93 864.48,-64.99 869.93,-56.02 890.87,-40.18 906.93,-28.84"/>
<polygon fill="green" stroke="green" stroke-width="0.19" points="908.56,-31.96 914.77,-23.38 904.56,-26.22 908.56,-31.96"/>
</g>
<!-- &#45;7&#45;&gt;659 -->
<g id="edge37" class="edge">
<title>&#45;7&#45;&gt;659</title>
<path fill="none" stroke="green" stroke-width="0.13" d="M854.02,-142.37C859.85,-134.37 868.66,-122.28 876.57,-111.43"/>
<polygon fill="green" stroke="green" stroke-width="0.13" points="879.32,-113.6 882.38,-103.45 873.66,-109.47 879.32,-113.6"/>
</g>
<!-- &#45;7&#45;&gt;662 -->
<g id="edge132" class="edge">
<title>&#45;7&#45;&gt;662</title>
<path fill="none" stroke="green" stroke-width="0.52" d="M835.48,-142.64C822.11,-132.95 800.12,-117.02 783.06,-104.66"/>
<polygon fill="green" stroke="green" stroke-width="0.52" points="785.29,-101.95 775.14,-98.92 781.18,-107.62 785.29,-101.95"/>
</g>
<!-- &#45;8 -->
<g id="node8" class="node">
<title>&#45;8</title>
<polygon fill="lightgray" stroke="black" points="462.23,-161.96 438.73,-161.96 438.73,-142.71 462.23,-142.71 462.23,-161.96"/>
<text text-anchor="middle" x="450.48" y="-149.41" font-family="Times New Roman,serif" font-size="9.00">&#45;8</text>
</g>
<!-- &#45;8&#45;&gt;4 -->
<g id="edge114" class="edge">
<title>&#45;8&#45;&gt;4</title>
<path fill="none" stroke="red" stroke-width="0.1" d="M438.27,-150.59C381.64,-147.03 146.54,-130.86 125.48,-106.71 68.7,-41.59 252.03,-21.95 320.09,-16.97"/>
<polygon fill="red" stroke="red" stroke-width="0.1" points="320.23,-20.47 329.97,-16.3 319.75,-13.49 320.23,-20.47"/>
</g>
<!-- &#45;8&#45;&gt;5 -->
<g id="edge8" class="edge">
<title>&#45;8&#45;&gt;5</title>
<path fill="none" stroke="red" stroke-width="0.3" d="M453.18,-142.24C459.16,-123.87 475.44,-82.62 505.48,-64.99 542.37,-43.35 1201.48,-20.77 1338.62,-16.29"/>
<polygon fill="red" stroke="red" stroke-width="0.3" points="1338.71,-19.79 1348.59,-15.97 1338.48,-12.8 1338.71,-19.79"/>
</g>
<!-- &#45;8&#45;&gt;6 -->
<g id="edge65" class="edge">
<title>&#45;8&#45;&gt;6</title>
<path fill="none" stroke="green" stroke-width="0.15" d="M438.27,-146.23C424.03,-139.52 401.21,-126.26 391.48,-106.71 383.22,-90.11 378.84,-78.56 391.48,-64.99 430.29,-23.35 847.96,-45.34 902.48,-28.99 903.67,-28.64 904.86,-28.21 906.04,-27.74"/>
<polygon fill="green" stroke="green" stroke-width="0.15" points="907.32,-31.02 914.74,-23.46 904.22,-24.74 907.32,-31.02"/>
</g>
<!-- &#45;8&#45;&gt;659 -->
<g id="edge86" class="edge">
<title>&#45;8&#45;&gt;659</title>
<path fill="none" stroke="red" stroke-width="0.31" d="M462.71,-149.76C519.42,-142.45 755.6,-111.96 788.48,-106.71 814.06,-102.63 842.96,-97.16 864.11,-92.99"/>
<polygon fill="red" stroke="red" stroke-width="0.31" points="864.7,-96.44 873.82,-91.06 863.33,-89.58 864.7,-96.44"/>
</g>
<!-- &#45;8&#45;&gt;660 -->
<g id="edge108" class="edge">
<title>&#45;8&#45;&gt;660</title>
<path fill="none" stroke="red" stroke-width="0.32" d="M462.32,-149.65C475.7,-147.78 498.12,-144.77 517.48,-142.71 643.17,-129.35 1037.68,-98.19 1151.47,-89.27"/>
<polygon fill="red" stroke="red" stroke-width="0.32" points="1151.6,-92.77 1161.29,-88.5 1151.05,-85.79 1151.6,-92.77"/>
</g>
<!-- &#45;8&#45;&gt;662 -->
<g id="edge29" class="edge">
<title>&#45;8&#45;&gt;662</title>
<path fill="none" stroke="green" stroke-width="0.19" d="M462.56,-148.81C507.09,-139.48 662.98,-106.85 728.8,-93.07"/>
<polygon fill="green" stroke="green" stroke-width="0.19" points="729.13,-96.57 738.2,-91.1 727.69,-89.72 729.13,-96.57"/>
</g>
<!-- &#45;9 -->
<g id="node9" class="node">
<title>&#45;9</title>
<polygon fill="lightgray" stroke="black" points="1614.23,-161.96 1590.73,-161.96 1590.73,-142.71 1614.23,-142.71 1614.23,-161.96"/>
<text text-anchor="middle" x="1602.48" y="-149.41" font-family="Times New Roman,serif" font-size="9.00">&#45;9</text>
</g>
<!-- &#45;9&#45;&gt;1 -->
<g id="edge121" class="edge">
<title>&#45;9&#45;&gt;1</title>
<path fill="none" stroke="green" stroke-width="0.27" d="M1614.62,-147.27C1620.03,-145.61 1626.51,-143.82 1632.48,-142.71 1677.99,-134.28 2016.2,-140.82 2047.48,-106.71 2064.78,-87.85 2055.04,-57.02 2045.28,-36.5"/>
<polygon fill="green" stroke="green" stroke-width="0.27" points="2048.4,-34.93 2040.74,-27.61 2042.17,-38.11 2048.4,-34.93"/>
</g>
<!-- &#45;9&#45;&gt;3 -->
<g id="edge96" class="edge">
<title>&#45;9&#45;&gt;3</title>
<path fill="none" stroke="red" stroke-width="0.12" d="M1614.69,-147.77C1649.36,-137.63 1746.03,-109.18 1748.48,-106.71 1766.3,-88.73 1772.46,-59.58 1774.54,-39.08"/>
<polygon fill="red" stroke="red" stroke-width="0.12" points="1778.02,-39.5 1775.29,-29.26 1771.04,-38.96 1778.02,-39.5"/>
</g>
<!-- &#45;9&#45;&gt;4 -->
<g id="edge32" class="edge">
<title>&#45;9&#45;&gt;4</title>
<path fill="none" stroke="red" stroke-width="0.23" d="M1590.37,-148.46C1528.42,-133.77 1249.15,-67.65 1230.48,-64.99 940.52,-23.73 864.89,-45.64 572.48,-28.99 498.37,-24.77 410.73,-19.51 368.97,-16.98"/>
<polygon fill="red" stroke="red" stroke-width="0.23" points="369.35,-13.5 359.15,-16.39 368.92,-20.48 369.35,-13.5"/>
</g>
<!-- &#45;9&#45;&gt;658 -->
<g id="edge113" class="edge">
<title>&#45;9&#45;&gt;658</title>
<path fill="none" stroke="red" stroke-width="0.16" d="M1602.48,-142.37C1602.48,-135.71 1602.48,-126.22 1602.48,-116.96"/>
<polygon fill="red" stroke="red" stroke-width="0.16" points="1605.98,-117.15 1602.48,-107.15 1598.98,-117.15 1605.98,-117.15"/>
</g>
<!-- &#45;9&#45;&gt;659 -->
<g id="edge62" class="edge">
<title>&#45;9&#45;&gt;659</title>
<path fill="none" stroke="red" stroke-width="0.31" d="M1590.23,-149.51C1577.37,-147.63 1556.54,-144.71 1538.48,-142.71 1417.19,-129.28 1037.19,-98.36 925.59,-89.35"/>
<polygon fill="red" stroke="red" stroke-width="0.31" points="925.9,-85.87 915.65,-88.55 925.33,-92.84 925.9,-85.87"/>
</g>
<!-- &#45;9&#45;&gt;660 -->
<g id="edge53" class="edge">
<title>&#45;9&#45;&gt;660</title>
<path fill="none" stroke="green" stroke-width="0.28" d="M1590.37,-149.48C1534.2,-140.85 1298.33,-104.64 1213.25,-91.57"/>
<polygon fill="green" stroke="green" stroke-width="0.28" points="1213.83,-88.12 1203.41,-90.06 1212.77,-95.04 1213.83,-88.12"/>
</g>
<!-- &#45;9&#45;&gt;661 -->
<g id="edge117" class="edge">
<title>&#45;9&#45;&gt;661</title>
<path fill="none" stroke="green" stroke-width="0.28" d="M1614.59,-144.73C1630.44,-136.06 1659.1,-120.34 1683.48,-106.71 1686.29,-105.14 1689.21,-103.5 1692.13,-101.85"/>
<polygon fill="green" stroke="green" stroke-width="0.28" points="1693.72,-104.97 1700.7,-97 1690.28,-98.88 1693.72,-104.97"/>
</g>
<!-- &#45;10 -->
<g id="node10" class="node">
<title>&#45;10</title>
<polygon fill="lightgray" stroke="black" points="2427.48,-161.96 2399.48,-161.96 2399.48,-142.71 2427.48,-142.71 2427.48,-161.96"/>
<text text-anchor="middle" x="2413.48" y="-149.41" font-family="Times New Roman,serif" font-size="9.00">&#45;10</text>
</g>
<!-- &#45;10&#45;&gt;0 -->
<g id="edge23" class="edge">
<title>&#45;10&#45;&gt;0</title>
<path fill="none" stroke="green" stroke-width="0.29" d="M2399.26,-145.35C2360.3,-129.24 2248.21,-84.83 2150.48,-64.99 2094.17,-53.56 1687.3,-24.52 1582.86,-17.2"/>
<polygon fill="green" stroke="green" stroke-width="0.29" points="1583.42,-13.73 1573.2,-16.52 1582.93,-20.71 1583.42,-13.73"/>
</g>
<!-- &#45;10&#45;&gt;1 -->
<g id="edge6" class="edge">
<title>&#45;10&#45;&gt;1</title>
<path fill="none" stroke="green" stroke-width="0.13" d="M2427.85,-149C2448.74,-144.74 2486.84,-133.54 2503.48,-106.71 2513.26,-90.95 2515.89,-78.77 2503.48,-64.99 2473.42,-31.59 2150.61,-19.11 2058.12,-16.2"/>
<polygon fill="green" stroke="green" stroke-width="0.13" points="2058.35,-12.71 2048.25,-15.9 2058.14,-19.71 2058.35,-12.71"/>
</g>
<!-- &#45;10&#45;&gt;3 -->
<g id="edge61" class="edge">
<title>&#45;10&#45;&gt;3</title>
<path fill="none" stroke="red" stroke-width="0.22" d="M2401.15,-142.33C2375.52,-124.13 2313.99,-83.18 2255.48,-64.99 2168.79,-38.04 1884.85,-21.25 1799.78,-16.73"/>
<polygon fill="red" stroke="red" stroke-width="0.22" points="1800.16,-13.24 1789.99,-16.22 1799.79,-20.24 1800.16,-13.24"/>
</g>
<!-- &#45;10&#45;&gt;6 -->
<g id="edge35" class="edge">
<title>&#45;10&#45;&gt;6</title>
<path fill="none" stroke="green" stroke-width="0.52" d="M2399.31,-142.36C2386.32,-133.86 2366.83,-120.39 2351.48,-106.71 2332.76,-90.02 2336.24,-75.53 2313.48,-64.99 2305.43,-61.26 1135.43,-22.41 950.87,-16.3"/>
<polygon fill="green" stroke="green" stroke-width="0.52" points="951.14,-12.81 941.03,-15.98 950.91,-19.8 951.14,-12.81"/>
</g>
<!-- &#45;10&#45;&gt;7 -->
<g id="edge92" class="edge">
<title>&#45;10&#45;&gt;7</title>
<path fill="none" stroke="red" stroke-width="0.12" d="M2399.13,-144.69C2361.28,-127.54 2255.22,-81.99 2161.48,-64.99 1611.12,34.79 1454.78,-123.49 903.48,-28.99 897.04,-27.89 890.23,-26.02 884.01,-24.02"/>
<polygon fill="red" stroke="red" stroke-width="0.12" points="885.45,-20.82 874.86,-20.86 883.17,-27.43 885.45,-20.82"/>
</g>
<!-- &#45;10&#45;&gt;661 -->
<g id="edge54" class="edge">
<title>&#45;10&#45;&gt;661</title>
<path fill="none" stroke="red" stroke-width="0.11" d="M2399.28,-150.02C2314.09,-142.11 1870.3,-100.94 1749.1,-89.69"/>
<polygon fill="red" stroke="red" stroke-width="0.11" points="1749.62,-86.22 1739.34,-88.79 1748.97,-93.19 1749.62,-86.22"/>
</g>
<!-- &#45;11 -->
<g id="node11" class="node">
<title>&#45;11</title>
<polygon fill="lightgray" stroke="black" points="267.48,-161.96 239.48,-161.96 239.48,-142.71 267.48,-142.71 267.48,-161.96"/>
<text text-anchor="middle" x="253.48" y="-149.41" font-family="Times New Roman,serif" font-size="9.00">&#45;11</text>
</g>
<!-- &#45;11&#45;&gt;2 -->
<g id="edge106" class="edge">
<title>&#45;11&#45;&gt;2</title>
<path fill="none" stroke="green" stroke-width="0.42" d="M239.01,-150.45C196.5,-147.5 73.47,-136.51 49.48,-106.71 37.86,-92.27 36.98,-78.68 49.48,-64.99 67.35,-45.44 467.04,-22.46 570.97,-16.8"/>
<polygon fill="green" stroke="green" stroke-width="0.42" points="571.06,-20.3 580.86,-16.27 570.69,-13.31 571.06,-20.3"/>
</g>
<!-- &#45;11&#45;&gt;4 -->
<g id="edge125" class="edge">
<title>&#45;11&#45;&gt;4</title>
<path fill="none" stroke="green" stroke-width="0.19" d="M239.22,-151.16C178.36,-149.93 -53.48,-140.32 11.48,-64.99 51.6,-18.47 250.36,-14.98 320.18,-15.21"/>
<polygon fill="green" stroke="green" stroke-width="0.19" points="319.85,-18.71 329.88,-15.28 319.9,-11.71 319.85,-18.71"/>
</g>
<!-- &#45;11&#45;&gt;5 -->
<g id="edge120" class="edge">
<title>&#45;11&#45;&gt;5</title>
<path fill="none" stroke="red" stroke-width="0.13" d="M267.77,-143.51C301.06,-125.74 386.87,-82.49 464.48,-64.99 551.89,-45.29 1203.92,-21.17 1339.02,-16.36"/>
<polygon fill="red" stroke="red" stroke-width="0.13" points="1338.97,-19.86 1348.84,-16.01 1338.72,-12.86 1338.97,-19.86"/>
</g>
<!-- &#45;11&#45;&gt;7 -->
<g id="edge104" class="edge">
<title>&#45;11&#45;&gt;7</title>
<path fill="none" stroke="green" stroke-width="0.22" d="M262.96,-142.28C282.75,-123.99 330.69,-82.89 379.48,-64.99 465.07,-33.6 751.21,-19.89 836.98,-16.42"/>
<polygon fill="green" stroke="green" stroke-width="0.22" points="837,-19.92 846.85,-16.03 836.72,-12.92 837,-19.92"/>
</g>
<!-- &#45;11&#45;&gt;658 -->
<g id="edge36" class="edge">
<title>&#45;11&#45;&gt;658</title>
<path fill="none" stroke="green" stroke-width="0.16" d="M267.63,-150.62C297.51,-149.12 369.28,-145.54 429.48,-142.71 785.45,-125.99 874.55,-124.21 1230.48,-106.71 1357.15,-100.48 1508.02,-92.14 1571.7,-88.58"/>
<polygon fill="green" stroke="green" stroke-width="0.16" points="1571.72,-92.09 1581.51,-88.03 1571.33,-85.1 1571.72,-92.09"/>
</g>
<!-- &#45;11&#45;&gt;660 -->
<g id="edge88" class="edge">
<title>&#45;11&#45;&gt;660</title>
<path fill="none" stroke="red" stroke-width="0.24" d="M267.65,-150.45C338.43,-146 660.72,-125.63 924.48,-106.71 1006.51,-100.83 1103.16,-93.2 1151.57,-89.34"/>
<polygon fill="red" stroke="red" stroke-width="0.24" points="1151.73,-92.83 1161.42,-88.55 1151.17,-85.86 1151.73,-92.83"/>
</g>
<!-- &#45;11&#45;&gt;662 -->
<g id="edge129" class="edge">
<title>&#45;11&#45;&gt;662</title>
<path fill="none" stroke="green" stroke-width="0.19" d="M267.78,-149.51C336.24,-140.77 631.09,-103.12 727.7,-90.78"/>
<polygon fill="green" stroke="green" stroke-width="0.19" points="727.98,-94.27 737.45,-89.54 727.09,-87.33 727.98,-94.27"/>
</g>
<!-- &#45;12 -->
<g id="node12" class="node">
<title>&#45;12</title>
<polygon fill="lightgray" stroke="black" points="1933.48,-161.96 1905.48,-161.96 1905.48,-142.71 1933.48,-142.71 1933.48,-161.96"/>
<text text-anchor="middle" x="1919.48" y="-149.41" font-family="Times New Roman,serif" font-size="9.00">&#45;12</text>
</g>
<!-- &#45;12&#45;&gt;0 -->
<g id="edge15" class="edge">
<title>&#45;12&#45;&gt;0</title>
<path fill="none" stroke="green" stroke-width="0.33" d="M1908.24,-142.23C1885.88,-124.6 1833.64,-85.67 1783.48,-64.99 1713.94,-36.32 1625.15,-23.06 1582.92,-18.04"/>
<polygon fill="green" stroke="green" stroke-width="0.33" points="1583.56,-14.59 1573.22,-16.94 1582.77,-21.55 1583.56,-14.59"/>
</g>
<!-- &#45;12&#45;&gt;1 -->
<g id="edge89" class="edge">
<title>&#45;12&#45;&gt;1</title>
<path fill="none" stroke="green" stroke-width="0.31" d="M1933.83,-150.71C2018.21,-146.95 2446.89,-126.88 2465.48,-106.71 2478.05,-93.08 2477.83,-78.83 2465.48,-64.99 2438.17,-34.37 2145.62,-20.06 2058.09,-16.44"/>
<polygon fill="green" stroke="green" stroke-width="0.31" points="2058.37,-12.95 2048.24,-16.05 2058.09,-19.95 2058.37,-12.95"/>
</g>
<!-- &#45;12&#45;&gt;2 -->
<g id="edge101" class="edge">
<title>&#45;12&#45;&gt;2</title>
<path fill="none" stroke="red" stroke-width="0.44" d="M1906.53,-142.31C1878.98,-123.7 1811.9,-81.43 1748.48,-64.99 1552.57,-14.22 1040.63,-38.6 838.48,-28.99 758.55,-25.19 663.9,-19.63 620.05,-16.99"/>
<polygon fill="red" stroke="red" stroke-width="0.44" points="620.46,-13.51 610.27,-16.4 620.04,-20.5 620.46,-13.51"/>
</g>
<!-- &#45;12&#45;&gt;3 -->
<g id="edge68" class="edge">
<title>&#45;12&#45;&gt;3</title>
<path fill="none" stroke="red" stroke-width="0.33" d="M1933.68,-151.78C2002.95,-153.54 2298.81,-155.93 2217.48,-64.99 2203.42,-49.26 1891.05,-24.3 1800.11,-17.35"/>
<polygon fill="red" stroke="red" stroke-width="0.33" points="1800.39,-13.86 1790.15,-16.59 1799.86,-20.84 1800.39,-13.86"/>
</g>
<!-- &#45;12&#45;&gt;658 -->
<g id="edge49" class="edge">
<title>&#45;12&#45;&gt;658</title>
<path fill="none" stroke="green" stroke-width="0.16" d="M1905.12,-148.75C1868.77,-142.16 1770.2,-124.03 1688.48,-106.71 1669.86,-102.76 1649.06,-97.97 1632.58,-94.08"/>
<polygon fill="green" stroke="green" stroke-width="0.16" points="1633.48,-90.7 1622.94,-91.79 1631.86,-97.51 1633.48,-90.7"/>
</g>
<!-- &#45;12&#45;&gt;660 -->
<g id="edge22" class="edge">
<title>&#45;12&#45;&gt;660</title>
<path fill="none" stroke="red" stroke-width="0.24" d="M1905.09,-150.08C1816.06,-142.29 1340.03,-100.64 1213.43,-89.56"/>
<polygon fill="red" stroke="red" stroke-width="0.24" points="1213.86,-86.08 1203.6,-88.7 1213.25,-93.06 1213.86,-86.08"/>
</g>
<!-- &#45;12&#45;&gt;662 -->
<g id="edge131" class="edge">
<title>&#45;12&#45;&gt;662</title>
<path fill="none" stroke="red" stroke-width="0.21" d="M1905.17,-150.25C1881.38,-148.47 1832.17,-144.91 1790.48,-142.71 1379.19,-120.97 1273.77,-152.76 864.48,-106.71 838.58,-103.8 809.5,-98.18 788.36,-93.66"/>
<polygon fill="red" stroke="red" stroke-width="0.21" points="789.19,-90.26 778.67,-91.55 787.7,-97.1 789.19,-90.26"/>
</g>
<!-- &#45;13 -->
<g id="node13" class="node">
<title>&#45;13</title>
<polygon fill="lightgray" stroke="black" points="932.48,-161.96 904.48,-161.96 904.48,-142.71 932.48,-142.71 932.48,-161.96"/>
<text text-anchor="middle" x="918.48" y="-149.41" font-family="Times New Roman,serif" font-size="9.00">&#45;13</text>
</g>
<!-- &#45;13&#45;&gt;0 -->
<g id="edge11" class="edge">
<title>&#45;13&#45;&gt;0</title>
<path fill="none" stroke="red" stroke-width="0.27" d="M932.82,-143.55C965.42,-126.24 1048.09,-84.52 1122.48,-64.99 1201.64,-44.21 1455.04,-23.45 1534.45,-17.31"/>
<polygon fill="red" stroke="red" stroke-width="0.27" points="1534.36,-20.83 1544.06,-16.57 1533.82,-13.85 1534.36,-20.83"/>
</g>
<!-- &#45;13&#45;&gt;2 -->
<g id="edge126" class="edge">
<title>&#45;13&#45;&gt;2</title>
<path fill="none" stroke="red" stroke-width="0.24" d="M904.07,-148.67C865.49,-141.41 760.64,-120.91 728.48,-106.71 683.61,-86.89 637.87,-51.48 613.46,-31.1"/>
<polygon fill="red" stroke="red" stroke-width="0.24" points="615.92,-28.6 606.03,-24.81 611.4,-33.94 615.92,-28.6"/>
</g>
<!-- &#45;13&#45;&gt;659 -->
<g id="edge14" class="edge">
<title>&#45;13&#45;&gt;659</title>
<path fill="none" stroke="green" stroke-width="0.2" d="M915.15,-142.37C912.49,-135.24 908.62,-124.85 904.95,-114.98"/>
<polygon fill="green" stroke="green" stroke-width="0.2" points="908.31,-113.96 901.54,-105.81 901.75,-116.4 908.31,-113.96"/>
</g>
<!-- &#45;13&#45;&gt;660 -->
<g id="edge17" class="edge">
<title>&#45;13&#45;&gt;660</title>
<path fill="none" stroke="green" stroke-width="0.19" d="M932.85,-150.16C969.61,-146.8 1069.6,-135.52 1147.48,-106.71 1150.5,-105.6 1153.56,-104.24 1156.55,-102.77"/>
<polygon fill="green" stroke="green" stroke-width="0.19" points="1158.06,-105.93 1165.22,-98.11 1154.75,-99.76 1158.06,-105.93"/>
</g>
<!-- &#45;13&#45;&gt;661 -->
<g id="edge28" class="edge">
<title>&#45;13&#45;&gt;661</title>
<path fill="none" stroke="green" stroke-width="0.22" d="M932.76,-150.66C1028.63,-146.08 1577.26,-119.47 1650.48,-106.71 1663.45,-104.45 1677.46,-100.61 1689.38,-96.9"/>
<polygon fill="green" stroke="green" stroke-width="0.22" points="1690.38,-100.26 1698.82,-93.86 1688.23,-93.6 1690.38,-100.26"/>
</g>
<!-- &#45;13&#45;&gt;662 -->
<g id="edge44" class="edge">
<title>&#45;13&#45;&gt;662</title>
<path fill="none" stroke="green" stroke-width="0.13" d="M904.3,-147.15C880.78,-140.03 832.45,-124.56 793.48,-106.71 790.56,-105.37 787.56,-103.87 784.6,-102.32"/>
<polygon fill="green" stroke="green" stroke-width="0.13" points="786.42,-99.32 775.98,-97.56 783.05,-105.46 786.42,-99.32"/>
</g>
<!-- &#45;14 -->
<g id="node14" class="node">
<title>&#45;14</title>
<polygon fill="lightgray" stroke="black" points="772.48,-161.96 744.48,-161.96 744.48,-142.71 772.48,-142.71 772.48,-161.96"/>
<text text-anchor="middle" x="758.48" y="-149.41" font-family="Times New Roman,serif" font-size="9.00">&#45;14</text>
</g>
<!-- &#45;14&#45;&gt;0 -->
<g id="edge91" class="edge">
<title>&#45;14&#45;&gt;0</title>
<path fill="none" stroke="red" stroke-width="0.24" d="M750.1,-142.26C735.17,-125.01 707.43,-87.23 728.48,-64.99 753.65,-38.41 1349.95,-31.42 1386.48,-28.99 1439.07,-25.49 1500.62,-20.43 1533.98,-17.6"/>
<polygon fill="red" stroke="red" stroke-width="0.24" points="1534.1,-21.1 1543.77,-16.77 1533.51,-14.13 1534.1,-21.1"/>
</g>
<!-- &#45;14&#45;&gt;2 -->
<g id="edge60" class="edge">
<title>&#45;14&#45;&gt;2</title>
<path fill="none" stroke="green" stroke-width="0.33" d="M744.04,-145.36C741.24,-144.36 738.3,-143.42 735.48,-142.71 677.2,-128.07 507.04,-151.94 467.48,-106.71 455.28,-92.75 457,-80.29 467.48,-64.99 490.74,-31.06 540.84,-20.39 571.01,-17.03"/>
<polygon fill="green" stroke="green" stroke-width="0.33" points="571.13,-20.53 580.77,-16.12 570.48,-13.56 571.13,-20.53"/>
</g>
<!-- &#45;14&#45;&gt;3 -->
<g id="edge134" class="edge">
<title>&#45;14&#45;&gt;3</title>
<path fill="none" stroke="green" stroke-width="0.22" d="M772.67,-148.86C801.89,-143.47 870.54,-129.32 924.48,-106.71 958.24,-92.56 960.47,-75.65 995.48,-64.99 1124.12,-25.85 1465.33,-38.13 1599.48,-28.99 1653.56,-25.31 1716.92,-20.27 1750.93,-17.51"/>
<polygon fill="green" stroke="green" stroke-width="0.22" points="1751.2,-21 1760.89,-16.7 1750.63,-14.02 1751.2,-21"/>
</g>
<!-- &#45;14&#45;&gt;6 -->
<g id="edge18" class="edge">
<title>&#45;14&#45;&gt;6</title>
<path fill="none" stroke="red" stroke-width="0.27" d="M744.11,-145.87C728.88,-139.21 705.64,-126.36 695.48,-106.71 686.97,-90.24 683.55,-79.18 695.48,-64.99 755.59,6.47 814.52,-60.33 902.48,-28.99 903.65,-28.58 904.82,-28.11 905.99,-27.6"/>
<polygon fill="red" stroke="red" stroke-width="0.27" points="907.32,-30.85 914.65,-23.2 904.15,-24.61 907.32,-30.85"/>
</g>
<!-- &#45;14&#45;&gt;660 -->
<g id="edge122" class="edge">
<title>&#45;14&#45;&gt;660</title>
<path fill="none" stroke="green" stroke-width="0.28" d="M772.59,-149.19C832.59,-140.06 1067.38,-104.36 1151.93,-91.5"/>
<polygon fill="green" stroke="green" stroke-width="0.28" points="1152.34,-94.98 1161.7,-90.01 1151.29,-88.06 1152.34,-94.98"/>
</g>
<!-- &#45;14&#45;&gt;662 -->
<g id="edge84" class="edge">
<title>&#45;14&#45;&gt;662</title>
<path fill="none" stroke="green" stroke-width="0.33" d="M758.48,-142.37C758.48,-135.71 758.48,-126.22 758.48,-116.96"/>
<polygon fill="green" stroke="green" stroke-width="0.33" points="761.98,-117.15 758.48,-107.15 754.98,-117.15 761.98,-117.15"/>
</g>
<!-- &#45;15 -->
<g id="node15" class="node">
<title>&#45;15</title>
<polygon fill="lightgray" stroke="black" points="1781.48,-161.96 1753.48,-161.96 1753.48,-142.71 1781.48,-142.71 1781.48,-161.96"/>
<text text-anchor="middle" x="1767.48" y="-149.41" font-family="Times New Roman,serif" font-size="9.00">&#45;15</text>
</g>
<!-- &#45;15&#45;&gt;0 -->
<g id="edge136" class="edge">
<title>&#45;15&#45;&gt;0</title>
<path fill="none" stroke="green" stroke-width="0.16" d="M1781.85,-149C1802.74,-144.74 1840.84,-133.54 1857.48,-106.71 1867.26,-90.95 1869.48,-79.13 1857.48,-64.99 1839.68,-43.99 1651.12,-24.25 1582.92,-17.74"/>
<polygon fill="green" stroke="green" stroke-width="0.16" points="1583.34,-14.26 1573.06,-16.81 1582.68,-21.23 1583.34,-14.26"/>
</g>
<!-- &#45;15&#45;&gt;3 -->
<g id="edge40" class="edge">
<title>&#45;15&#45;&gt;3</title>
<path fill="none" stroke="green" stroke-width="0.13" d="M1781.82,-150.39C1855.12,-145.5 2185.12,-122.63 2199.48,-106.71 2211.9,-92.94 2211.81,-78.84 2199.48,-64.99 2172.73,-34.93 1886.13,-20.25 1799.89,-16.49"/>
<polygon fill="green" stroke="green" stroke-width="0.13" points="1800.1,-13 1789.96,-16.07 1799.81,-19.99 1800.1,-13"/>
</g>
<!-- &#45;15&#45;&gt;5 -->
<g id="edge67" class="edge">
<title>&#45;15&#45;&gt;5</title>
<path fill="none" stroke="red" stroke-width="0.14" d="M1770.75,-142.41C1776.45,-125.07 1785.88,-86.66 1766.48,-64.99 1753.75,-50.76 1473.73,-25.15 1388.12,-17.63"/>
<polygon fill="red" stroke="red" stroke-width="0.14" points="1388.51,-14.15 1378.24,-16.76 1387.9,-21.12 1388.51,-14.15"/>
</g>
<!-- &#45;15&#45;&gt;6 -->
<g id="edge85" class="edge">
<title>&#45;15&#45;&gt;6</title>
<path fill="none" stroke="red" stroke-width="0.19" d="M1768.64,-142.28C1770.35,-124.36 1771.24,-84.44 1748.48,-64.99 1717.37,-38.4 1083.91,-19.77 950.86,-16.14"/>
<polygon fill="red" stroke="red" stroke-width="0.19" points="951.27,-12.65 941.18,-15.88 951.08,-19.65 951.27,-12.65"/>
</g>
<!-- &#45;15&#45;&gt;658 -->
<g id="edge51" class="edge">
<title>&#45;15&#45;&gt;658</title>
<path fill="none" stroke="green" stroke-width="0.19" d="M1753.13,-145.73C1725.92,-135.09 1666.4,-111.83 1630.86,-97.94"/>
<polygon fill="green" stroke="green" stroke-width="0.19" points="1632.54,-94.84 1621.95,-94.46 1629.99,-101.36 1632.54,-94.84"/>
</g>
<!-- &#45;15&#45;&gt;660 -->
<g id="edge27" class="edge">
<title>&#45;15&#45;&gt;660</title>
<path fill="none" stroke="red" stroke-width="0.32" d="M1753.09,-146.78C1747.9,-145.29 1741.97,-143.74 1736.48,-142.71 1539.47,-105.65 1298.1,-91.98 1213.52,-88.12"/>
<polygon fill="red" stroke="red" stroke-width="0.32" points="1213.69,-84.62 1203.55,-87.68 1213.38,-91.62 1213.69,-84.62"/>
</g>
<!-- &#45;15&#45;&gt;661 -->
<g id="edge111" class="edge">
<title>&#45;15&#45;&gt;661</title>
<path fill="none" stroke="red" stroke-width="0.41" d="M1760.67,-142.37C1754.49,-134.24 1745.1,-121.88 1736.74,-110.88"/>
<polygon fill="red" stroke="red" stroke-width="0.41" points="1739.74,-109.04 1730.9,-103.2 1734.17,-113.28 1739.74,-109.04"/>
</g>
<!-- &#45;16 -->
<g id="node16" class="node">
<title>&#45;16</title>
<polygon fill="lightgray" stroke="black" points="1727.48,-161.96 1699.48,-161.96 1699.48,-142.71 1727.48,-142.71 1727.48,-161.96"/>
<text text-anchor="middle" x="1713.48" y="-149.41" font-family="Times New Roman,serif" font-size="9.00">&#45;16</text>
</g>
<!-- &#45;16&#45;&gt;0 -->
<g id="edge97" class="edge">
<title>&#45;16&#45;&gt;0</title>
<path fill="none" stroke="red" stroke-width="0.23" d="M1727.87,-146.8C1733.06,-145.3 1739,-143.76 1744.48,-142.71 1819.34,-128.45 2034.51,-163.35 2085.48,-106.71 2097.89,-92.93 2097.97,-78.7 2085.48,-64.99 2076.88,-55.55 1685.55,-25.16 1582.92,-17.34"/>
<polygon fill="red" stroke="red" stroke-width="0.23" points="1583.37,-13.87 1573.14,-16.6 1582.84,-20.85 1583.37,-13.87"/>
</g>
<!-- &#45;16&#45;&gt;5 -->
<g id="edge52" class="edge">
<title>&#45;16&#45;&gt;5</title>
<path fill="none" stroke="red" stroke-width="0.3" d="M1727.8,-144.02C1740.62,-136.57 1758.57,-123.72 1766.48,-106.71 1774.3,-89.9 1778.77,-78.88 1766.48,-64.99 1753.83,-50.69 1473.76,-25.13 1388.13,-17.62"/>
<polygon fill="red" stroke="red" stroke-width="0.3" points="1388.51,-14.14 1378.25,-16.76 1387.9,-21.12 1388.51,-14.14"/>
</g>
<!-- &#45;16&#45;&gt;658 -->
<g id="edge39" class="edge">
<title>&#45;16&#45;&gt;658</title>
<path fill="none" stroke="red" stroke-width="0.36" d="M1699.42,-143.17C1681.79,-132.92 1651.18,-115.14 1629.06,-102.29"/>
<polygon fill="red" stroke="red" stroke-width="0.36" points="1630.87,-99.29 1620.46,-97.3 1627.35,-105.35 1630.87,-99.29"/>
</g>
<!-- &#45;16&#45;&gt;660 -->
<g id="edge118" class="edge">
<title>&#45;16&#45;&gt;660</title>
<path fill="none" stroke="green" stroke-width="0.2" d="M1699.11,-147.78C1691.77,-146.06 1682.69,-144.08 1674.48,-142.71 1500.82,-113.73 1290.13,-95.37 1212.81,-89.18"/>
<polygon fill="green" stroke="green" stroke-width="0.2" points="1213.46,-85.72 1203.21,-88.42 1212.91,-92.7 1213.46,-85.72"/>
</g>
<!-- &#45;17 -->
<g id="node17" class="node">
<title>&#45;17</title>
<polygon fill="lightgray" stroke="black" points="1529.48,-161.96 1501.48,-161.96 1501.48,-142.71 1529.48,-142.71 1529.48,-161.96"/>
<text text-anchor="middle" x="1515.48" y="-149.41" font-family="Times New Roman,serif" font-size="9.00">&#45;17</text>
</g>
<!-- &#45;17&#45;&gt;0 -->
<g id="edge95" class="edge">
<title>&#45;17&#45;&gt;0</title>
<path fill="none" stroke="green" stroke-width="0.43" d="M1518.3,-142.42C1524.95,-121.42 1541.76,-68.32 1551.4,-37.87"/>
<polygon fill="green" stroke="green" stroke-width="0.43" points="1554.69,-39.08 1554.37,-28.49 1548.01,-36.97 1554.69,-39.08"/>
</g>
<!-- &#45;17&#45;&gt;1 -->
<g id="edge38" class="edge">
<title>&#45;17&#45;&gt;1</title>
<path fill="none" stroke="green" stroke-width="0.11" d="M1529.8,-149.21C1566.47,-143.63 1666.66,-127.56 1748.48,-106.71 1847.65,-81.44 1962.95,-41.05 2010.84,-23.77"/>
<polygon fill="green" stroke="green" stroke-width="0.11" points="2011.8,-27.15 2020.01,-20.45 2009.41,-20.57 2011.8,-27.15"/>
</g>
<!-- &#45;17&#45;&gt;3 -->
<g id="edge16" class="edge">
<title>&#45;17&#45;&gt;3</title>
<path fill="none" stroke="green" stroke-width="0.17" d="M1529.93,-149.06C1555.83,-144.46 1611.14,-132.24 1650.48,-106.71 1671.52,-93.06 1668.9,-80.66 1688.48,-64.99 1708.82,-48.72 1735.17,-34.54 1753.51,-25.57"/>
<polygon fill="green" stroke="green" stroke-width="0.17" points="1754.78,-28.84 1762.3,-21.38 1751.77,-22.53 1754.78,-28.84"/>
</g>
<!-- &#45;17&#45;&gt;5 -->
<g id="edge69" class="edge">
<title>&#45;17&#45;&gt;5</title>
<path fill="none" stroke="red" stroke-width="0.13" d="M1505.51,-142.42C1480.3,-119.9 1413.76,-60.43 1381.51,-31.61"/>
<polygon fill="red" stroke="red" stroke-width="0.13" points="1383.88,-29.03 1374.1,-24.98 1379.22,-34.25 1383.88,-29.03"/>
</g>
<!-- &#45;17&#45;&gt;7 -->
<g id="edge24" class="edge">
<title>&#45;17&#45;&gt;7</title>
<path fill="none" stroke="green" stroke-width="0.17" d="M1501.19,-145.97C1459.9,-130.71 1336.59,-86.71 1230.48,-64.99 1087.24,-35.67 1046.47,-59.51 903.48,-28.99 897.09,-27.63 890.3,-25.67 884.08,-23.68"/>
<polygon fill="green" stroke="green" stroke-width="0.17" points="885.51,-20.46 874.91,-20.58 883.26,-27.1 885.51,-20.46"/>
</g>
<!-- &#45;17&#45;&gt;658 -->
<g id="edge31" class="edge">
<title>&#45;17&#45;&gt;658</title>
<path fill="none" stroke="red" stroke-width="0.18" d="M1527.58,-142.37C1540.66,-132.67 1561.85,-116.97 1578.36,-104.73"/>
<polygon fill="red" stroke="red" stroke-width="0.18" points="1580.09,-107.81 1586.04,-99.04 1575.92,-102.18 1580.09,-107.81"/>
</g>
<!-- &#45;17&#45;&gt;660 -->
<g id="edge100" class="edge">
<title>&#45;17&#45;&gt;660</title>
<path fill="none" stroke="green" stroke-width="0.12" d="M1500.99,-150.06C1459.22,-146.17 1335.19,-133.05 1235.48,-106.71 1227.24,-104.53 1218.5,-101.55 1210.55,-98.56"/>
<polygon fill="green" stroke="green" stroke-width="0.12" points="1211.91,-95.33 1201.32,-94.96 1209.36,-101.86 1211.91,-95.33"/>
</g>
<!-- &#45;17&#45;&gt;661 -->
<g id="edge90" class="edge">
<title>&#45;17&#45;&gt;661</title>
<path fill="none" stroke="green" stroke-width="0.22" d="M1529.82,-148.82C1559.34,-143.36 1628.73,-129.08 1683.48,-106.71 1686.46,-105.5 1689.49,-104.08 1692.47,-102.56"/>
<polygon fill="green" stroke="green" stroke-width="0.22" points="1694,-105.72 1701.12,-97.87 1690.66,-99.56 1694,-105.72"/>
</g>
<!-- &#45;17&#45;&gt;662 -->
<g id="edge58" class="edge">
<title>&#45;17&#45;&gt;662</title>
<path fill="none" stroke="green" stroke-width="0.33" d="M1501.25,-150.59C1418.05,-146.18 994,-123.22 864.48,-106.71 838.79,-103.43 809.9,-97.9 788.78,-93.5"/>
<polygon fill="green" stroke="green" stroke-width="0.33" points="789.6,-90.1 779.09,-91.45 788.15,-96.95 789.6,-90.1"/>
</g>
<!-- 0&#45;&gt;0 -->
<g id="edge20" class="edge">
<title>0&#45;&gt;0</title>
<path fill="none" stroke="green" stroke-width="0.16" d="M1568.8,-24.94C1579.3,-31.08 1590.98,-27.6 1590.98,-14.5 1590.98,-5.28 1585.2,-0.83 1578.12,-1.13"/>
<polygon fill="green" stroke="green" stroke-width="0.16" points="1577.29,2.28 1568.8,-4.06 1579.39,-4.4 1577.29,2.28"/>
</g>
<!-- 1&#45;&gt;1 -->
<g id="edge47" class="edge">
<title>1&#45;&gt;1</title>
<path fill="none" stroke="red" stroke-width="0.17" d="M2043.8,-24.94C2054.3,-31.08 2065.98,-27.6 2065.98,-14.5 2065.98,-5.28 2060.2,-0.83 2053.12,-1.13"/>
<polygon fill="red" stroke="red" stroke-width="0.17" points="2052.29,2.28 2043.8,-4.06 2054.39,-4.4 2052.29,2.28"/>
</g>
<!-- 7&#45;&gt;7 -->
<g id="edge41" class="edge">
<title>7&#45;&gt;7</title>
<path fill="none" stroke="green" stroke-width="0.64" d="M871.8,-24.94C882.3,-31.08 893.98,-27.6 893.98,-14.5 893.98,-5.28 888.2,-0.83 881.12,-1.13"/>
<polygon fill="green" stroke="green" stroke-width="0.64" points="880.29,2.28 871.8,-4.06 882.39,-4.4 880.29,2.28"/>
</g>
<!-- 658&#45;&gt;0 -->
<g id="edge57" class="edge">
<title>658&#45;&gt;0</title>
<path fill="none" stroke="green" stroke-width="0.22" d="M1591.61,-67.71C1585.39,-57.9 1577.56,-45.56 1571.07,-35.34"/>
<polygon fill="green" stroke="green" stroke-width="0.22" points="1574.11,-33.59 1565.79,-27.02 1568.19,-37.34 1574.11,-33.59"/>
</g>
<!-- 658&#45;&gt;1 -->
<g id="edge56" class="edge">
<title>658&#45;&gt;1</title>
<path fill="none" stroke="red" stroke-width="0.2" d="M1622.88,-79.63C1640.25,-75.31 1665.89,-69.21 1688.48,-64.99 1808.06,-42.65 1952.6,-24.87 2009.14,-18.27"/>
<polygon fill="red" stroke="red" stroke-width="0.2" points="2009.42,-21.76 2018.95,-17.13 2008.61,-14.81 2009.42,-21.76"/>
</g>
<!-- 658&#45;&gt;6 -->
<g id="edge72" class="edge">
<title>658&#45;&gt;6</title>
<path fill="none" stroke="green" stroke-width="0.6" d="M1585.36,-73.16C1579.88,-69.96 1573.63,-66.87 1567.48,-64.99 1448.92,-28.76 1053.48,-18.14 950.94,-15.96"/>
<polygon fill="green" stroke="green" stroke-width="0.6" points="951.25,-12.47 941.18,-15.76 951.1,-19.47 951.25,-12.47"/>
</g>
<!-- 658&#45;&gt;658 -->
<g id="edge48" class="edge">
<title>658&#45;&gt;658</title>
<path fill="none" stroke="green" stroke-width="0.42" d="M1620.07,-97.44C1630.97,-100.23 1641.34,-96.37 1641.34,-85.85 1641.34,-78.62 1636.44,-74.53 1629.83,-73.6"/>
<polygon fill="green" stroke="green" stroke-width="0.42" points="1629.8,-70.09 1620.07,-74.26 1630.28,-77.07 1629.8,-70.09"/>
</g>
<!-- 659&#45;&gt;0 -->
<g id="edge133" class="edge">
<title>659&#45;&gt;0</title>
<path fill="none" stroke="green" stroke-width="0.32" d="M911.6,-73.16C917.09,-69.97 923.34,-66.87 929.48,-64.99 929.94,-64.85 1418.52,-26.48 1534.16,-17.41"/>
<polygon fill="green" stroke="green" stroke-width="0.32" points="1534.18,-20.91 1543.87,-16.64 1533.63,-13.94 1534.18,-20.91"/>
</g>
<!-- 659&#45;&gt;2 -->
<g id="edge25" class="edge">
<title>659&#45;&gt;2</title>
<path fill="none" stroke="green" stroke-width="0.24" d="M874.41,-79.1C859.79,-74.98 839.47,-69.4 821.48,-64.99 748.28,-47.03 660.95,-28.8 619.55,-20.35"/>
<polygon fill="green" stroke="green" stroke-width="0.24" points="620.32,-16.94 609.82,-18.38 618.92,-23.8 620.32,-16.94"/>
</g>
<!-- 659&#45;&gt;3 -->
<g id="edge135" class="edge">
<title>659&#45;&gt;3</title>
<path fill="none" stroke="red" stroke-width="0.54" d="M914.38,-78.23C928.91,-73.69 949.2,-67.96 967.48,-64.99 1245.18,-19.82 1318.76,-47.75 1599.48,-28.99 1653.56,-25.38 1716.92,-20.32 1750.93,-17.53"/>
<polygon fill="red" stroke="red" stroke-width="0.54" points="1751.21,-21.02 1760.89,-16.71 1750.63,-14.04 1751.21,-21.02"/>
</g>
<!-- 659&#45;&gt;5 -->
<g id="edge21" class="edge">
<title>659&#45;&gt;5</title>
<path fill="none" stroke="green" stroke-width="0.46" d="M911.65,-73.29C917.13,-70.11 923.37,-66.98 929.48,-64.99 1079.38,-16.17 1272.01,-14 1339.13,-14.91"/>
<polygon fill="green" stroke="green" stroke-width="0.46" points="1338.74,-18.4 1348.8,-15.08 1338.86,-11.4 1338.74,-18.4"/>
</g>
<!-- 659&#45;&gt;6 -->
<g id="edge7" class="edge">
<title>659&#45;&gt;6</title>
<path fill="none" stroke="green" stroke-width="0.14" d="M902.89,-66.63C907.11,-57.48 912.25,-46.34 916.66,-36.79"/>
<polygon fill="green" stroke="green" stroke-width="0.14" points="919.74,-38.46 920.75,-27.92 913.38,-35.53 919.74,-38.46"/>
</g>
<!-- 659&#45;&gt;7 -->
<g id="edge119" class="edge">
<title>659&#45;&gt;7</title>
<path fill="none" stroke="red" stroke-width="0.35" d="M885.81,-66.63C881.46,-57.48 876.16,-46.34 871.62,-36.79"/>
<polygon fill="red" stroke="red" stroke-width="0.35" points="874.85,-35.44 867.39,-27.92 868.53,-38.45 874.85,-35.44"/>
</g>
<!-- 660&#45;&gt;2 -->
<g id="edge2" class="edge">
<title>660&#45;&gt;2</title>
<path fill="none" stroke="green" stroke-width="0.34" d="M1161.59,-82.38C1071.53,-71.74 716.67,-29.81 619.95,-18.39"/>
<polygon fill="green" stroke="green" stroke-width="0.34" points="620.53,-14.93 610.18,-17.23 619.7,-21.88 620.53,-14.93"/>
</g>
<!-- 660&#45;&gt;3 -->
<g id="edge43" class="edge">
<title>660&#45;&gt;3</title>
<path fill="none" stroke="green" stroke-width="0.22" d="M1203,-81.39C1228.41,-77.18 1273.06,-70 1311.48,-64.99 1479.24,-43.14 1682.06,-24 1751.11,-17.69"/>
<polygon fill="green" stroke="green" stroke-width="0.22" points="1751.38,-21.18 1761.02,-16.79 1750.75,-14.21 1751.38,-21.18"/>
</g>
<!-- 660&#45;&gt;660 -->
<g id="edge59" class="edge">
<title>660&#45;&gt;660</title>
<path fill="none" stroke="red" stroke-width="0.11" d="M1200.07,-97.44C1210.97,-100.23 1221.34,-96.37 1221.34,-85.85 1221.34,-78.62 1216.44,-74.53 1209.83,-73.6"/>
<polygon fill="red" stroke="red" stroke-width="0.11" points="1209.8,-70.09 1200.07,-74.26 1210.28,-77.07 1209.8,-70.09"/>
</g>
<!-- 661&#45;&gt;0 -->
<g id="edge110" class="edge">
<title>661&#45;&gt;0</title>
<path fill="none" stroke="red" stroke-width="0.29" d="M1699.5,-76.62C1669.64,-63.68 1611.87,-38.64 1580.33,-24.97"/>
<polygon fill="red" stroke="red" stroke-width="0.29" points="1582.01,-21.88 1571.44,-21.11 1579.23,-28.3 1582.01,-21.88"/>
</g>
<!-- 661&#45;&gt;1 -->
<g id="edge3" class="edge">
<title>661&#45;&gt;1</title>
<path fill="none" stroke="green" stroke-width="0.12" d="M1738.67,-80.41C1794.26,-68.17 1949.46,-34 2009.42,-20.79"/>
<polygon fill="green" stroke="green" stroke-width="0.12" points="2010.13,-24.22 2019.14,-18.65 2008.63,-17.38 2010.13,-24.22"/>
</g>
<!-- 661&#45;&gt;4 -->
<g id="edge78" class="edge">
<title>661&#45;&gt;4</title>
<path fill="none" stroke="green" stroke-width="0.22" d="M1698.85,-77.69C1685.42,-73.16 1667.12,-67.66 1650.48,-64.99 1413.81,-27.1 811.92,-40.07 572.48,-28.99 498.33,-25.56 410.71,-19.93 368.96,-17.15"/>
<polygon fill="green" stroke="green" stroke-width="0.22" points="369.36,-13.67 359.15,-16.49 368.89,-20.66 369.36,-13.67"/>
</g>
<!-- 661&#45;&gt;6 -->
<g id="edge30" class="edge">
<title>661&#45;&gt;6</title>
<path fill="none" stroke="green" stroke-width="0.15" d="M1698.82,-77.88C1685.38,-73.42 1667.07,-67.94 1650.48,-64.99 1511.54,-40.25 1061.28,-20.91 951.02,-16.46"/>
<polygon fill="green" stroke="green" stroke-width="0.15" points="951.29,-12.97 941.16,-16.07 951.01,-19.96 951.29,-12.97"/>
</g>
<!-- 662&#45;&gt;4 -->
<g id="edge1" class="edge">
<title>662&#45;&gt;4</title>
<path fill="none" stroke="red" stroke-width="0.23" d="M737.67,-81.36C667.97,-69.69 442.97,-31.99 368.6,-19.54"/>
<polygon fill="red" stroke="red" stroke-width="0.23" points="369.19,-16.09 358.75,-17.89 368.04,-22.99 369.19,-16.09"/>
</g>
<!-- 662&#45;&gt;7 -->
<g id="edge13" class="edge">
<title>662&#45;&gt;7</title>
<path fill="none" stroke="red" stroke-width="0.17" d="M775.49,-73.4C793.63,-61.19 822.32,-41.86 841.52,-28.94"/>
<polygon fill="red" stroke="red" stroke-width="0.17" points="843.26,-31.99 849.6,-23.5 839.35,-26.18 843.26,-31.99"/>
</g>
</g>
</svg>
