<?xml version="1.0" encoding="UTF-8" standalone="no"?>
<!DOCTYPE svg PUBLIC "-//W3C//DTD SVG 1.1//EN"
 "http://www.w3.org/Graphics/SVG/1.1/DTD/svg11.dtd">
<!-- Generated by graphviz version 8.0.5 (20230430.1635)
 -->
<!-- Pages: 1 -->
<svg width="2807pt" height="170pt"
 viewBox="0.00 0.00 2806.83 169.96" xmlns="http://www.w3.org/2000/svg" xmlns:xlink="http://www.w3.org/1999/xlink">
<g id="graph0" class="graph" transform="scale(1 1) rotate(0) translate(4 165.96)">
<polygon fill="white" stroke="none" points="-4,4 -4,-165.96 2802.83,-165.96 2802.83,4 -4,4"/>
<!-- &#45;1 -->
<g id="node1" class="node">
<title>&#45;1</title>
<polygon fill="lightgray" stroke="black" points="497.29,-161.96 473.79,-161.96 473.79,-142.71 497.29,-142.71 497.29,-161.96"/>
<text text-anchor="middle" x="485.54" y="-149.41" font-family="Times New Roman,serif" font-size="9.00">&#45;1</text>
</g>
<!-- 0 -->
<g id="node18" class="node">
<title>0</title>
<ellipse fill="lightblue" stroke="black" cx="1846.54" cy="-14.5" rx="14.5" ry="14.5"/>
<text text-anchor="middle" x="1846.54" y="-11.57" font-family="Times New Roman,serif" font-size="9.00">0</text>
</g>
<!-- &#45;1&#45;&gt;0 -->
<g id="edge20" class="edge">
<title>&#45;1&#45;&gt;0</title>
<path fill="none" stroke="red" stroke-width="0.17" d="M497.52,-146.68C540.53,-130.05 687.25,-74.07 736.54,-64.99 974.01,-21.23 1590,-94.02 1822.54,-28.99 1823.73,-28.66 1824.93,-28.25 1826.11,-27.8"/>
<polygon fill="red" stroke="red" stroke-width="0.17" points="1827.37,-31.08 1834.82,-23.56 1824.3,-24.79 1827.37,-31.08"/>
</g>
<!-- 1 -->
<g id="node19" class="node">
<title>1</title>
<ellipse fill="lightblue" stroke="black" cx="1781.54" cy="-14.5" rx="14.5" ry="14.5"/>
<text text-anchor="middle" x="1781.54" y="-11.57" font-family="Times New Roman,serif" font-size="9.00">1</text>
</g>
<!-- &#45;1&#45;&gt;1 -->
<g id="edge6" class="edge">
<title>&#45;1&#45;&gt;1</title>
<path fill="none" stroke="red" stroke-width="0.17" d="M495.67,-142.31C517.3,-123.7 570.35,-81.44 623.54,-64.99 717.56,-35.92 1410.22,-33.42 1508.54,-28.99 1600.21,-24.86 1709.16,-19.27 1756.98,-16.78"/>
<polygon fill="red" stroke="red" stroke-width="0.17" points="1756.94,-20.29 1766.74,-16.27 1756.58,-13.3 1756.94,-20.29"/>
</g>
<!-- 2 -->
<g id="node20" class="node">
<title>2</title>
<ellipse fill="lightblue" stroke="black" cx="914.54" cy="-14.5" rx="14.5" ry="14.5"/>
<text text-anchor="middle" x="914.54" y="-11.57" font-family="Times New Roman,serif" font-size="9.00">2</text>
</g>
<!-- &#45;1&#45;&gt;2 -->
<g id="edge41" class="edge">
<title>&#45;1&#45;&gt;2</title>
<path fill="none" stroke="red" stroke-width="0.12" d="M483.62,-142.21C480.49,-124.53 476.57,-85.54 497.54,-64.99 511.69,-51.12 802.62,-25.11 889.96,-17.58"/>
<polygon fill="red" stroke="red" stroke-width="0.12" points="890.13,-21.08 899.79,-16.74 889.53,-14.11 890.13,-21.08"/>
</g>
<!-- 3 -->
<g id="node21" class="node">
<title>3</title>
<ellipse fill="lightblue" stroke="black" cx="255.54" cy="-14.5" rx="14.5" ry="14.5"/>
<text text-anchor="middle" x="255.54" y="-11.57" font-family="Times New Roman,serif" font-size="9.00">3</text>
</g>
<!-- &#45;1&#45;&gt;3 -->
<g id="edge67" class="edge">
<title>&#45;1&#45;&gt;3</title>
<path fill="none" stroke="red" stroke-width="0.35" d="M473.63,-150.45C408.81,-145.55 100.81,-121.55 87.54,-106.71 75.18,-92.89 76.43,-79.84 87.54,-64.99 104.83,-41.87 188.92,-25.82 231.18,-19.07"/>
<polygon fill="red" stroke="red" stroke-width="0.35" points="231.62,-22.54 240.96,-17.55 230.55,-15.62 231.62,-22.54"/>
</g>
<!-- 5 -->
<g id="node23" class="node">
<title>5</title>
<ellipse fill="lightblue" stroke="black" cx="705.54" cy="-14.5" rx="14.5" ry="14.5"/>
<text text-anchor="middle" x="705.54" y="-11.57" font-family="Times New Roman,serif" font-size="9.00">5</text>
</g>
<!-- &#45;1&#45;&gt;5 -->
<g id="edge104" class="edge">
<title>&#45;1&#45;&gt;5</title>
<path fill="none" stroke="green" stroke-width="0.14" d="M473.32,-151.39C412.49,-151.29 148.18,-146.24 221.54,-64.99 252.64,-30.55 587.07,-18.76 681.08,-16.12"/>
<polygon fill="green" stroke="green" stroke-width="0.14" points="680.95,-19.62 690.85,-15.85 680.76,-12.63 680.95,-19.62"/>
</g>
<!-- 6 -->
<g id="node24" class="node">
<title>6</title>
<ellipse fill="lightblue" stroke="black" cx="1409.54" cy="-14.5" rx="14.5" ry="14.5"/>
<text text-anchor="middle" x="1409.54" y="-11.57" font-family="Times New Roman,serif" font-size="9.00">6</text>
</g>
<!-- &#45;1&#45;&gt;6 -->
<g id="edge126" class="edge">
<title>&#45;1&#45;&gt;6</title>
<path fill="none" stroke="red" stroke-width="0.34" d="M479.91,-142.36C469.76,-124.93 451.26,-86.37 471.54,-64.99 487.74,-47.91 1238.25,-21.36 1384.86,-16.33"/>
<polygon fill="red" stroke="red" stroke-width="0.34" points="1384.83,-19.84 1394.71,-16 1384.59,-12.84 1384.83,-19.84"/>
</g>
<!-- 577 -->
<g id="node27" class="node">
<title>577</title>
<ellipse fill="white" stroke="black" cx="974.54" cy="-85.85" rx="20.86" ry="20.86"/>
<text text-anchor="middle" x="974.54" y="-82.93" font-family="Times New Roman,serif" font-size="9.00">577</text>
</g>
<!-- &#45;1&#45;&gt;577 -->
<g id="edge112" class="edge">
<title>&#45;1&#45;&gt;577</title>
<path fill="none" stroke="green" stroke-width="0.17" d="M497.65,-150.33C568.09,-144.42 922.8,-114.42 944.54,-106.71 946.35,-106.07 948.16,-105.29 949.94,-104.43"/>
<polygon fill="green" stroke="green" stroke-width="0.17" points="951.55,-107.54 958.49,-99.53 948.07,-101.46 951.55,-107.54"/>
</g>
<!-- 573 -->
<g id="node28" class="node">
<title>573</title>
<ellipse fill="white" stroke="black" cx="914.54" cy="-85.85" rx="20.86" ry="20.86"/>
<text text-anchor="middle" x="914.54" y="-82.93" font-family="Times New Roman,serif" font-size="9.00">573</text>
</g>
<!-- &#45;1&#45;&gt;573 -->
<g id="edge105" class="edge">
<title>&#45;1&#45;&gt;573</title>
<path fill="none" stroke="red" stroke-width="0.12" d="M497.46,-149.54C554.16,-141.02 797.35,-104.47 883.85,-91.46"/>
<polygon fill="red" stroke="red" stroke-width="0.12" points="884.23,-94.95 893.6,-90 883.19,-88.02 884.23,-94.95"/>
</g>
<!-- 575 -->
<g id="node30" class="node">
<title>575</title>
<ellipse fill="white" stroke="black" cx="1360.54" cy="-85.85" rx="20.86" ry="20.86"/>
<text text-anchor="middle" x="1360.54" y="-82.93" font-family="Times New Roman,serif" font-size="9.00">575</text>
</g>
<!-- &#45;1&#45;&gt;575 -->
<g id="edge83" class="edge">
<title>&#45;1&#45;&gt;575</title>
<path fill="none" stroke="red" stroke-width="0.1" d="M497.51,-150.34C518.27,-148.62 562.3,-145.09 599.54,-142.71 907.33,-123.08 988.47,-158.29 1292.54,-106.71 1305.52,-104.51 1319.53,-100.68 1331.44,-96.96"/>
<polygon fill="red" stroke="red" stroke-width="0.1" points="1332.45,-100.32 1340.89,-93.91 1330.3,-93.66 1332.45,-100.32"/>
</g>
<!-- &#45;2 -->
<g id="node2" class="node">
<title>&#45;2</title>
<polygon fill="lightgray" stroke="black" points="267.29,-95.48 243.79,-95.48 243.79,-76.23 267.29,-76.23 267.29,-95.48"/>
<text text-anchor="middle" x="255.54" y="-82.93" font-family="Times New Roman,serif" font-size="9.00">&#45;2</text>
</g>
<!-- &#45;2&#45;&gt;2 -->
<g id="edge23" class="edge">
<title>&#45;2&#45;&gt;2</title>
<path fill="none" stroke="green" stroke-width="0.15" d="M264.36,-76.05C269.06,-71.94 275.17,-67.42 281.54,-64.99 378.36,-28.02 643.22,-37.14 746.54,-28.99 797.6,-24.96 857.39,-20.13 890.09,-17.48"/>
<polygon fill="green" stroke="green" stroke-width="0.15" points="890.02,-21 899.71,-16.7 889.46,-14.02 890.02,-21"/>
</g>
<!-- &#45;2&#45;&gt;3 -->
<g id="edge18" class="edge">
<title>&#45;2&#45;&gt;3</title>
<path fill="none" stroke="red" stroke-width="0.22" d="M255.54,-75.78C255.54,-66.55 255.54,-51.83 255.54,-39.25"/>
<polygon fill="red" stroke="red" stroke-width="0.22" points="259.04,-39.36 255.54,-29.36 252.04,-39.36 259.04,-39.36"/>
</g>
<!-- 4 -->
<g id="node22" class="node">
<title>4</title>
<ellipse fill="lightblue" stroke="black" cx="2323.54" cy="-14.5" rx="14.5" ry="14.5"/>
<text text-anchor="middle" x="2323.54" y="-11.57" font-family="Times New Roman,serif" font-size="9.00">4</text>
</g>
<!-- &#45;2&#45;&gt;4 -->
<g id="edge101" class="edge">
<title>&#45;2&#45;&gt;4</title>
<path fill="none" stroke="red" stroke-width="0.18" d="M267.68,-84.44C425.8,-79.14 2078.34,-23.72 2299.19,-16.31"/>
<polygon fill="red" stroke="red" stroke-width="0.18" points="2299,-19.82 2308.88,-15.99 2298.77,-12.82 2299,-19.82"/>
</g>
<!-- &#45;2&#45;&gt;5 -->
<g id="edge137" class="edge">
<title>&#45;2&#45;&gt;5</title>
<path fill="none" stroke="green" stroke-width="0.19" d="M264.88,-75.74C269.52,-71.77 275.43,-67.46 281.54,-64.99 355.18,-35.21 602.81,-20.6 681.4,-16.63"/>
<polygon fill="green" stroke="green" stroke-width="0.19" points="681.11,-20.15 690.93,-16.16 680.77,-13.16 681.11,-20.15"/>
</g>
<!-- &#45;3 -->
<g id="node3" class="node">
<title>&#45;3</title>
<polygon fill="lightgray" stroke="black" points="2373.29,-161.96 2349.79,-161.96 2349.79,-142.71 2373.29,-142.71 2373.29,-161.96"/>
<text text-anchor="middle" x="2361.54" y="-149.41" font-family="Times New Roman,serif" font-size="9.00">&#45;3</text>
</g>
<!-- &#45;3&#45;&gt;0 -->
<g id="edge43" class="edge">
<title>&#45;3&#45;&gt;0</title>
<path fill="none" stroke="red" stroke-width="0.43" d="M2373.62,-149.31C2393.55,-145.24 2432.78,-134.01 2449.54,-106.71 2459.24,-90.91 2462.1,-78.63 2449.54,-64.99 2409.76,-21.82 1979.61,-16.3 1871.22,-15.6"/>
<polygon fill="red" stroke="red" stroke-width="0.43" points="1871.51,-12.1 1861.49,-15.54 1871.47,-19.1 1871.51,-12.1"/>
</g>
<!-- &#45;3&#45;&gt;1 -->
<g id="edge9" class="edge">
<title>&#45;3&#45;&gt;1</title>
<path fill="none" stroke="red" stroke-width="0.17" d="M2358.62,-142.27C2352.18,-123.96 2334.9,-82.82 2304.54,-64.99 2212.11,-10.71 1928.74,-49.53 1823.54,-28.99 1817.13,-27.74 1810.32,-25.82 1804.1,-23.82"/>
<polygon fill="red" stroke="red" stroke-width="0.17" points="1805.54,-20.62 1794.95,-20.7 1803.28,-27.24 1805.54,-20.62"/>
</g>
<!-- &#45;3&#45;&gt;4 -->
<g id="edge124" class="edge">
<title>&#45;3&#45;&gt;4</title>
<path fill="none" stroke="red" stroke-width="0.33" d="M2373.71,-150.9C2437.3,-148.51 2729.4,-135.98 2755.54,-106.71 2767.89,-92.88 2767.88,-78.83 2755.54,-64.99 2728.22,-34.37 2435.67,-20.06 2348.14,-16.44"/>
<polygon fill="red" stroke="red" stroke-width="0.33" points="2348.43,-12.95 2338.29,-16.05 2348.14,-19.95 2348.43,-12.95"/>
</g>
<!-- &#45;3&#45;&gt;6 -->
<g id="edge123" class="edge">
<title>&#45;3&#45;&gt;6</title>
<path fill="none" stroke="red" stroke-width="0.29" d="M2349.65,-147.74C2325.66,-140.42 2269.82,-123.12 2223.54,-106.71 2175.04,-89.52 2165.85,-75.81 2115.54,-64.99 1831.37,-3.87 1749.84,-73.06 1462.54,-28.99 1452.72,-27.49 1442.07,-24.96 1432.92,-22.49"/>
<polygon fill="red" stroke="red" stroke-width="0.29" points="1433.91,-19.13 1423.34,-19.79 1432.01,-25.87 1433.91,-19.13"/>
</g>
<!-- 7 -->
<g id="node25" class="node">
<title>7</title>
<ellipse fill="lightblue" stroke="black" cx="1485.54" cy="-14.5" rx="14.5" ry="14.5"/>
<text text-anchor="middle" x="1485.54" y="-11.57" font-family="Times New Roman,serif" font-size="9.00">7</text>
</g>
<!-- &#45;3&#45;&gt;7 -->
<g id="edge7" class="edge">
<title>&#45;3&#45;&gt;7</title>
<path fill="none" stroke="red" stroke-width="0.45" d="M2349.34,-146.82C2309.33,-132.22 2178.15,-86 2065.54,-64.99 1956.25,-44.6 1606.39,-22.7 1510.21,-16.95"/>
<polygon fill="red" stroke="red" stroke-width="0.45" points="1510.44,-13.45 1500.25,-16.35 1510.03,-20.44 1510.44,-13.45"/>
</g>
<!-- &#45;3&#45;&gt;573 -->
<g id="edge45" class="edge">
<title>&#45;3&#45;&gt;573</title>
<path fill="none" stroke="green" stroke-width="0.4" d="M2349.39,-147.56C2342.97,-145.73 2334.9,-143.73 2327.54,-142.71 2175.27,-121.68 1091.15,-152.93 944.54,-106.71 942.71,-106.13 940.88,-105.41 939.09,-104.58"/>
<polygon fill="green" stroke="green" stroke-width="0.4" points="940.94,-101.6 930.51,-99.77 937.52,-107.71 940.94,-101.6"/>
</g>
<!-- 574 -->
<g id="node29" class="node">
<title>574</title>
<ellipse fill="white" stroke="black" cx="1262.54" cy="-85.85" rx="20.86" ry="20.86"/>
<text text-anchor="middle" x="1262.54" y="-82.93" font-family="Times New Roman,serif" font-size="9.00">574</text>
</g>
<!-- &#45;3&#45;&gt;574 -->
<g id="edge35" class="edge">
<title>&#45;3&#45;&gt;574</title>
<path fill="none" stroke="red" stroke-width="0.14" d="M2349.39,-147.59C2342.96,-145.77 2334.89,-143.76 2327.54,-142.71 1888.62,-79.84 1768.27,-177.41 1330.54,-106.71 1317.54,-104.61 1303.53,-100.8 1291.62,-97.07"/>
<polygon fill="red" stroke="red" stroke-width="0.14" points="1292.77,-93.76 1282.18,-93.99 1290.6,-100.42 1292.77,-93.76"/>
</g>
<!-- &#45;4 -->
<g id="node4" class="node">
<title>&#45;4</title>
<polygon fill="lightgray" stroke="black" points="1495.29,-161.96 1471.79,-161.96 1471.79,-142.71 1495.29,-142.71 1495.29,-161.96"/>
<text text-anchor="middle" x="1483.54" y="-149.41" font-family="Times New Roman,serif" font-size="9.00">&#45;4</text>
</g>
<!-- &#45;4&#45;&gt;1 -->
<g id="edge100" class="edge">
<title>&#45;4&#45;&gt;1</title>
<path fill="none" stroke="red" stroke-width="0.39" d="M1495.43,-149.65C1523.62,-145.35 1596.28,-132.44 1651.54,-106.71 1695.1,-86.43 1739.61,-51.48 1763.58,-31.24"/>
<polygon fill="red" stroke="red" stroke-width="0.39" points="1765.57,-34.14 1770.89,-24.98 1761.02,-28.83 1765.57,-34.14"/>
</g>
<!-- &#45;4&#45;&gt;3 -->
<g id="edge127" class="edge">
<title>&#45;4&#45;&gt;3</title>
<path fill="none" stroke="red" stroke-width="0.11" d="M1471.52,-149.22C1435.36,-142.85 1324.44,-123.29 1232.54,-106.71 1131.16,-88.42 1106.77,-77.68 1004.54,-64.99 721.24,-29.83 374.35,-18.6 280.13,-16.09"/>
<polygon fill="red" stroke="red" stroke-width="0.11" points="280.47,-12.6 270.38,-15.84 280.29,-19.6 280.47,-12.6"/>
</g>
<!-- &#45;4&#45;&gt;4 -->
<g id="edge17" class="edge">
<title>&#45;4&#45;&gt;4</title>
<path fill="none" stroke="red" stroke-width="0.44" d="M1495.62,-150.59C1563.19,-146.35 1894.79,-124.95 1995.54,-106.71 2003.3,-105.31 2226.17,-42.82 2300.02,-22.1"/>
<polygon fill="red" stroke="red" stroke-width="0.44" points="2300.73,-25.53 2309.41,-19.46 2298.84,-18.79 2300.73,-25.53"/>
</g>
<!-- &#45;4&#45;&gt;6 -->
<g id="edge71" class="edge">
<title>&#45;4&#45;&gt;6</title>
<path fill="none" stroke="red" stroke-width="0.25" d="M1478.68,-142.42C1467.03,-121.03 1437.22,-66.3 1420.8,-36.17"/>
<polygon fill="red" stroke="red" stroke-width="0.25" points="1424.03,-34.78 1416.17,-27.67 1417.88,-38.13 1424.03,-34.78"/>
</g>
<!-- &#45;4&#45;&gt;7 -->
<g id="edge75" class="edge">
<title>&#45;4&#45;&gt;7</title>
<path fill="none" stroke="red" stroke-width="0.2" d="M1487.8,-142.36C1491.74,-133.52 1497.31,-119.52 1499.54,-106.71 1502.71,-88.44 1502.09,-83.36 1499.54,-64.99 1498.28,-55.94 1495.79,-46.21 1493.26,-37.79"/>
<polygon fill="red" stroke="red" stroke-width="0.2" points="1496.6,-36.77 1490.22,-28.31 1489.94,-38.9 1496.6,-36.77"/>
</g>
<!-- 576 -->
<g id="node26" class="node">
<title>576</title>
<ellipse fill="white" stroke="black" cx="1838.54" cy="-85.85" rx="20.86" ry="20.86"/>
<text text-anchor="middle" x="1838.54" y="-82.93" font-family="Times New Roman,serif" font-size="9.00">576</text>
</g>
<!-- &#45;4&#45;&gt;576 -->
<g id="edge31" class="edge">
<title>&#45;4&#45;&gt;576</title>
<path fill="none" stroke="red" stroke-width="0.13" d="M1495.53,-151.27C1538.49,-150.7 1688.28,-145.85 1803.54,-106.71 1806.58,-105.68 1809.66,-104.37 1812.67,-102.93"/>
<polygon fill="red" stroke="red" stroke-width="0.13" points="1814.16,-106.1 1821.34,-98.32 1810.87,-99.92 1814.16,-106.1"/>
</g>
<!-- &#45;4&#45;&gt;573 -->
<g id="edge59" class="edge">
<title>&#45;4&#45;&gt;573</title>
<path fill="none" stroke="red" stroke-width="0.17" d="M1471.51,-148.87C1461.62,-146.93 1447.23,-144.29 1434.54,-142.71 1217.85,-115.75 1151.19,-177.27 944.54,-106.71 942.72,-106.09 940.91,-105.33 939.12,-104.48"/>
<polygon fill="red" stroke="red" stroke-width="0.17" points="940.98,-101.51 930.56,-99.61 937.52,-107.59 940.98,-101.51"/>
</g>
<!-- &#45;4&#45;&gt;574 -->
<g id="edge90" class="edge">
<title>&#45;4&#45;&gt;574</title>
<path fill="none" stroke="green" stroke-width="0.37" d="M1471.64,-147.87C1445.89,-140.36 1383.13,-122.06 1330.54,-106.71 1317.9,-103.02 1303.95,-98.95 1291.98,-95.45"/>
<polygon fill="green" stroke="green" stroke-width="0.37" points="1293.05,-92.12 1282.47,-92.68 1291.09,-98.84 1293.05,-92.12"/>
</g>
<!-- &#45;5 -->
<g id="node5" class="node">
<title>&#45;5</title>
<polygon fill="lightgray" stroke="black" points="1955.29,-161.96 1931.79,-161.96 1931.79,-142.71 1955.29,-142.71 1955.29,-161.96"/>
<text text-anchor="middle" x="1943.54" y="-149.41" font-family="Times New Roman,serif" font-size="9.00">&#45;5</text>
</g>
<!-- &#45;5&#45;&gt;0 -->
<g id="edge129" class="edge">
<title>&#45;5&#45;&gt;0</title>
<path fill="none" stroke="green" stroke-width="0.18" d="M1955.35,-150C1990.03,-145.81 2090.38,-131.7 2109.54,-106.71 2120.82,-92 2121.38,-79.26 2109.54,-64.99 2079.32,-28.56 1930.58,-18.76 1871.14,-16.29"/>
<polygon fill="green" stroke="green" stroke-width="0.18" points="1871.58,-12.8 1861.45,-15.91 1871.31,-19.79 1871.58,-12.8"/>
</g>
<!-- &#45;5&#45;&gt;1 -->
<g id="edge116" class="edge">
<title>&#45;5&#45;&gt;1</title>
<path fill="none" stroke="green" stroke-width="0.24" d="M1955.72,-151.36C1982.12,-150.68 2044.42,-144.89 2071.54,-106.71 2082.28,-91.59 2083.67,-79.01 2071.54,-64.99 2035.1,-22.88 1877.79,-41.55 1823.54,-28.99 1817.17,-27.52 1810.39,-25.53 1804.17,-23.53"/>
<polygon fill="green" stroke="green" stroke-width="0.24" points="1805.59,-20.32 1795,-20.45 1803.37,-26.95 1805.59,-20.32"/>
</g>
<!-- &#45;5&#45;&gt;2 -->
<g id="edge85" class="edge">
<title>&#45;5&#45;&gt;2</title>
<path fill="none" stroke="red" stroke-width="0.26" d="M1931.35,-148.13C1882.36,-135.39 1694.78,-87.86 1537.54,-64.99 1306.1,-31.33 1022.72,-19.26 938.95,-16.29"/>
<polygon fill="red" stroke="red" stroke-width="0.26" points="939.22,-12.8 929.11,-15.95 938.98,-19.79 939.22,-12.8"/>
</g>
<!-- &#45;5&#45;&gt;4 -->
<g id="edge12" class="edge">
<title>&#45;5&#45;&gt;4</title>
<path fill="none" stroke="green" stroke-width="0.55" d="M1955.71,-150.9C2019.3,-148.51 2311.4,-135.98 2337.54,-106.71 2354.58,-87.63 2344.91,-56.85 2335.23,-36.4"/>
<polygon fill="green" stroke="green" stroke-width="0.55" points="2338.38,-34.88 2330.73,-27.55 2332.14,-38.05 2338.38,-34.88"/>
</g>
<!-- &#45;5&#45;&gt;5 -->
<g id="edge86" class="edge">
<title>&#45;5&#45;&gt;5</title>
<path fill="none" stroke="red" stroke-width="0.24" d="M1931.47,-150.75C1882.17,-148.19 1691.34,-136.77 1537.54,-106.71 1470.89,-93.68 1457.42,-76.77 1390.54,-64.99 1171.55,-26.44 1113.31,-45.04 891.54,-28.99 833.59,-24.8 765.5,-19.85 729.95,-17.27"/>
<polygon fill="red" stroke="red" stroke-width="0.24" points="730.24,-13.78 720.01,-16.55 729.73,-20.76 730.24,-13.78"/>
</g>
<!-- &#45;5&#45;&gt;6 -->
<g id="edge88" class="edge">
<title>&#45;5&#45;&gt;6</title>
<path fill="none" stroke="green" stroke-width="0.14" d="M1940.6,-142.29C1934.14,-124.03 1916.81,-82.97 1886.54,-64.99 1805.24,-16.7 1555.78,-44.71 1462.54,-28.99 1452.74,-27.34 1442.1,-24.78 1432.94,-22.34"/>
<polygon fill="green" stroke="green" stroke-width="0.14" points="1433.93,-18.98 1423.35,-19.68 1432.05,-25.73 1433.93,-18.98"/>
</g>
<!-- &#45;5&#45;&gt;7 -->
<g id="edge108" class="edge">
<title>&#45;5&#45;&gt;7</title>
<path fill="none" stroke="green" stroke-width="0.33" d="M1949.07,-142.45C1959.05,-125.18 1977.25,-86.88 1957.54,-64.99 1927.34,-31.46 1603.17,-19.07 1510.28,-16.19"/>
<polygon fill="green" stroke="green" stroke-width="0.33" points="1510.47,-12.7 1500.37,-15.9 1510.26,-19.7 1510.47,-12.7"/>
</g>
<!-- &#45;5&#45;&gt;576 -->
<g id="edge58" class="edge">
<title>&#45;5&#45;&gt;576</title>
<path fill="none" stroke="red" stroke-width="0.18" d="M1931.49,-143.94C1915.21,-133.94 1885.74,-115.84 1864.34,-102.7"/>
<polygon fill="red" stroke="red" stroke-width="0.18" points="1866.36,-99.83 1856.01,-97.58 1862.7,-105.8 1866.36,-99.83"/>
</g>
<!-- &#45;5&#45;&gt;574 -->
<g id="edge117" class="edge">
<title>&#45;5&#45;&gt;574</title>
<path fill="none" stroke="red" stroke-width="0.15" d="M1931.6,-150.81C1856.83,-147.48 1452.35,-128.68 1330.54,-106.71 1317.58,-104.37 1303.58,-100.52 1291.66,-96.83"/>
<polygon fill="red" stroke="red" stroke-width="0.15" points="1292.8,-93.52 1282.21,-93.8 1290.66,-100.18 1292.8,-93.52"/>
</g>
<!-- &#45;6 -->
<g id="node6" class="node">
<title>&#45;6</title>
<polygon fill="lightgray" stroke="black" points="1035.29,-161.96 1011.79,-161.96 1011.79,-142.71 1035.29,-142.71 1035.29,-161.96"/>
<text text-anchor="middle" x="1023.54" y="-149.41" font-family="Times New Roman,serif" font-size="9.00">&#45;6</text>
</g>
<!-- &#45;6&#45;&gt;0 -->
<g id="edge74" class="edge">
<title>&#45;6&#45;&gt;0</title>
<path fill="none" stroke="red" stroke-width="0.18" d="M1035.6,-150.39C1081.76,-146.6 1246.9,-131.54 1292.54,-106.71 1314.57,-94.73 1307.98,-75.96 1330.54,-64.99 1429.13,-17.06 1717.57,-60.62 1822.54,-28.99 1823.72,-28.63 1824.91,-28.21 1826.1,-27.74"/>
<polygon fill="red" stroke="red" stroke-width="0.18" points="1827.37,-31.01 1834.79,-23.45 1824.28,-24.73 1827.37,-31.01"/>
</g>
<!-- &#45;6&#45;&gt;1 -->
<g id="edge69" class="edge">
<title>&#45;6&#45;&gt;1</title>
<path fill="none" stroke="red" stroke-width="0.19" d="M1035.35,-144.95C1066.53,-128.44 1154,-84.28 1232.54,-64.99 1334.34,-39.99 1663.96,-21.53 1756.92,-16.73"/>
<polygon fill="red" stroke="red" stroke-width="0.19" points="1757.02,-20.23 1766.82,-16.22 1756.66,-13.24 1757.02,-20.23"/>
</g>
<!-- &#45;6&#45;&gt;3 -->
<g id="edge34" class="edge">
<title>&#45;6&#45;&gt;3</title>
<path fill="none" stroke="green" stroke-width="0.17" d="M1011.48,-149.2C924.97,-133.9 399.06,-40.88 279.64,-19.76"/>
<polygon fill="green" stroke="green" stroke-width="0.17" points="280.42,-16.34 269.97,-18.05 279.2,-23.24 280.42,-16.34"/>
</g>
<!-- &#45;6&#45;&gt;577 -->
<g id="edge97" class="edge">
<title>&#45;6&#45;&gt;577</title>
<path fill="none" stroke="green" stroke-width="0.15" d="M1016.73,-142.37C1010.55,-134.24 1001.15,-121.88 992.8,-110.88"/>
<polygon fill="green" stroke="green" stroke-width="0.15" points="995.8,-109.04 986.96,-103.2 990.22,-113.28 995.8,-109.04"/>
</g>
<!-- &#45;6&#45;&gt;573 -->
<g id="edge32" class="edge">
<title>&#45;6&#45;&gt;573</title>
<path fill="none" stroke="green" stroke-width="0.11" d="M1011.34,-144.79C995.69,-136.32 967.78,-120.94 944.54,-106.71 942.94,-105.73 941.31,-104.71 939.66,-103.67"/>
<polygon fill="green" stroke="green" stroke-width="0.11" points="941.83,-100.9 931.54,-98.4 938.03,-106.78 941.83,-100.9"/>
</g>
<!-- &#45;6&#45;&gt;574 -->
<g id="edge63" class="edge">
<title>&#45;6&#45;&gt;574</title>
<path fill="none" stroke="green" stroke-width="0.57" d="M1035.72,-148.05C1072,-138.26 1180.1,-109.09 1232.88,-94.85"/>
<polygon fill="green" stroke="green" stroke-width="0.57" points="1233.62,-98.28 1242.36,-92.29 1231.8,-91.52 1233.62,-98.28"/>
</g>
<!-- &#45;6&#45;&gt;575 -->
<g id="edge22" class="edge">
<title>&#45;6&#45;&gt;575</title>
<path fill="none" stroke="green" stroke-width="0.28" d="M1035.71,-151.13C1077.36,-150.09 1217.54,-143.87 1325.54,-106.71 1328.58,-105.66 1331.65,-104.35 1334.66,-102.91"/>
<polygon fill="green" stroke="green" stroke-width="0.28" points="1336.15,-106.08 1343.33,-98.28 1332.86,-99.9 1336.15,-106.08"/>
</g>
<!-- &#45;7 -->
<g id="node7" class="node">
<title>&#45;7</title>
<polygon fill="lightgray" stroke="black" points="956.29,-161.96 932.79,-161.96 932.79,-142.71 956.29,-142.71 956.29,-161.96"/>
<text text-anchor="middle" x="944.54" y="-149.41" font-family="Times New Roman,serif" font-size="9.00">&#45;7</text>
</g>
<!-- &#45;7&#45;&gt;2 -->
<g id="edge102" class="edge">
<title>&#45;7&#45;&gt;2</title>
<path fill="none" stroke="red" stroke-width="0.33" d="M932.38,-146.4C917.93,-139.79 894.51,-126.55 884.54,-106.71 872.58,-82.92 887.22,-53.31 899.92,-34.41"/>
<polygon fill="red" stroke="red" stroke-width="0.33" points="902.75,-36.47 905.7,-26.29 897.05,-32.41 902.75,-36.47"/>
</g>
<!-- &#45;7&#45;&gt;3 -->
<g id="edge1" class="edge">
<title>&#45;7&#45;&gt;3</title>
<path fill="none" stroke="green" stroke-width="0.47" d="M932.58,-149.06C921.67,-147.07 905.08,-144.27 890.54,-142.71 817.95,-134.94 284.72,-159.72 234.54,-106.71 216.24,-87.38 229.95,-55.46 242.2,-34.96"/>
<polygon fill="green" stroke="green" stroke-width="0.47" points="245.05,-37.01 247.44,-26.69 239.13,-33.27 245.05,-37.01"/>
</g>
<!-- &#45;7&#45;&gt;576 -->
<g id="edge42" class="edge">
<title>&#45;7&#45;&gt;576</title>
<path fill="none" stroke="green" stroke-width="0.47" d="M956.5,-149.27C968.2,-147.31 986.55,-144.43 1002.54,-142.71 1316.03,-108.98 1697.99,-92.32 1807.73,-88.01"/>
<polygon fill="green" stroke="green" stroke-width="0.47" points="1807.63,-91.52 1817.49,-87.63 1807.36,-84.52 1807.63,-91.52"/>
</g>
<!-- &#45;7&#45;&gt;577 -->
<g id="edge73" class="edge">
<title>&#45;7&#45;&gt;577</title>
<path fill="none" stroke="red" stroke-width="0.34" d="M948.71,-142.37C952.11,-135.06 957.11,-124.32 961.8,-114.24"/>
<polygon fill="red" stroke="red" stroke-width="0.34" points="964.92,-115.82 965.97,-105.28 958.58,-112.87 964.92,-115.82"/>
</g>
<!-- &#45;7&#45;&gt;573 -->
<g id="edge52" class="edge">
<title>&#45;7&#45;&gt;573</title>
<path fill="none" stroke="red" stroke-width="0.44" d="M940.37,-142.37C936.97,-135.06 931.97,-124.32 927.28,-114.24"/>
<polygon fill="red" stroke="red" stroke-width="0.44" points="930.5,-112.87 923.11,-105.28 924.16,-115.82 930.5,-112.87"/>
</g>
<!-- &#45;7&#45;&gt;574 -->
<g id="edge80" class="edge">
<title>&#45;7&#45;&gt;574</title>
<path fill="none" stroke="green" stroke-width="0.19" d="M956.62,-148.89C1002.16,-139.65 1164.32,-106.77 1232.25,-92.99"/>
<polygon fill="green" stroke="green" stroke-width="0.19" points="1232.84,-96.45 1241.94,-91.03 1231.45,-89.58 1232.84,-96.45"/>
</g>
<!-- &#45;8 -->
<g id="node8" class="node">
<title>&#45;8</title>
<polygon fill="lightgray" stroke="black" points="2259.29,-161.96 2235.79,-161.96 2235.79,-142.71 2259.29,-142.71 2259.29,-161.96"/>
<text text-anchor="middle" x="2247.54" y="-149.41" font-family="Times New Roman,serif" font-size="9.00">&#45;8</text>
</g>
<!-- &#45;8&#45;&gt;0 -->
<g id="edge38" class="edge">
<title>&#45;8&#45;&gt;0</title>
<path fill="none" stroke="red" stroke-width="0.16" d="M2259.65,-148.18C2297.68,-138.27 2412.33,-108.29 2413.54,-106.71 2424.82,-92 2426.07,-78.66 2413.54,-64.99 2376.42,-24.49 1975.94,-17.01 1871.39,-15.74"/>
<polygon fill="red" stroke="red" stroke-width="0.16" points="1871.47,-12.24 1861.43,-15.62 1871.39,-19.24 1871.47,-12.24"/>
</g>
<!-- &#45;8&#45;&gt;1 -->
<g id="edge111" class="edge">
<title>&#45;8&#45;&gt;1</title>
<path fill="none" stroke="green" stroke-width="0.13" d="M2253.12,-142.41C2263.17,-125.07 2281.5,-86.66 2261.54,-64.99 2228.45,-29.08 1871.43,-38.52 1823.54,-28.99 1817.13,-27.72 1810.33,-25.79 1804.11,-23.79"/>
<polygon fill="green" stroke="green" stroke-width="0.13" points="1805.54,-20.58 1794.95,-20.67 1803.29,-27.21 1805.54,-20.58"/>
</g>
<!-- &#45;8&#45;&gt;4 -->
<g id="edge8" class="edge">
<title>&#45;8&#45;&gt;4</title>
<path fill="none" stroke="red" stroke-width="0.14" d="M2259.74,-147.91C2266.19,-146.19 2274.25,-144.16 2281.54,-142.71 2335.72,-131.9 2491.41,-148.51 2527.54,-106.71 2580.29,-45.68 2412.78,-23.62 2348,-17.48"/>
<polygon fill="red" stroke="red" stroke-width="0.14" points="2348.47,-14.01 2338.19,-16.6 2347.84,-20.98 2348.47,-14.01"/>
</g>
<!-- &#45;8&#45;&gt;6 -->
<g id="edge110" class="edge">
<title>&#45;8&#45;&gt;6</title>
<path fill="none" stroke="red" stroke-width="0.18" d="M2235.5,-147.33C2192.92,-133.32 2045.23,-86.31 1919.54,-64.99 1718.67,-30.92 1663.55,-62.25 1462.54,-28.99 1452.74,-27.37 1442.1,-24.82 1432.94,-22.37"/>
<polygon fill="red" stroke="red" stroke-width="0.18" points="1433.92,-19.01 1423.35,-19.7 1432.05,-25.76 1433.92,-19.01"/>
</g>
<!-- &#45;8&#45;&gt;7 -->
<g id="edge91" class="edge">
<title>&#45;8&#45;&gt;7</title>
<path fill="none" stroke="green" stroke-width="0.2" d="M2235.36,-146.44C2197.62,-131.51 2079.04,-86.25 1976.54,-64.99 1800.19,-28.43 1582.39,-18.54 1510.12,-16.17"/>
<polygon fill="green" stroke="green" stroke-width="0.2" points="1510.27,-12.67 1500.17,-15.86 1510.05,-19.67 1510.27,-12.67"/>
</g>
<!-- &#45;8&#45;&gt;577 -->
<g id="edge107" class="edge">
<title>&#45;8&#45;&gt;577</title>
<path fill="none" stroke="red" stroke-width="0.16" d="M2235.47,-150.96C2151.39,-148.28 1644.53,-131.62 1232.54,-106.71 1150.45,-101.75 1053.83,-93.73 1005.44,-89.56"/>
<polygon fill="red" stroke="red" stroke-width="0.16" points="1005.86,-86.08 995.59,-88.71 1005.25,-93.06 1005.86,-86.08"/>
</g>
<!-- &#45;8&#45;&gt;575 -->
<g id="edge109" class="edge">
<title>&#45;8&#45;&gt;575</title>
<path fill="none" stroke="green" stroke-width="0.3" d="M2235.34,-150.45C2141.56,-143.63 1535.06,-99.54 1391.14,-89.08"/>
<polygon fill="green" stroke="green" stroke-width="0.3" points="1391.82,-85.62 1381.59,-88.38 1391.31,-92.6 1391.82,-85.62"/>
</g>
<!-- &#45;9 -->
<g id="node9" class="node">
<title>&#45;9</title>
<polygon fill="lightgray" stroke="black" points="632.29,-161.96 608.79,-161.96 608.79,-142.71 632.29,-142.71 632.29,-161.96"/>
<text text-anchor="middle" x="620.54" y="-149.41" font-family="Times New Roman,serif" font-size="9.00">&#45;9</text>
</g>
<!-- &#45;9&#45;&gt;0 -->
<g id="edge70" class="edge">
<title>&#45;9&#45;&gt;0</title>
<path fill="none" stroke="red" stroke-width="0.11" d="M632.66,-146.45C674.82,-129.56 815.12,-74.12 862.54,-64.99 1072.18,-24.65 1617.07,-86.93 1822.54,-28.99 1823.73,-28.66 1824.92,-28.25 1826.11,-27.79"/>
<polygon fill="red" stroke="red" stroke-width="0.11" points="1827.37,-31.07 1834.82,-23.55 1824.3,-24.78 1827.37,-31.07"/>
</g>
<!-- &#45;9&#45;&gt;1 -->
<g id="edge92" class="edge">
<title>&#45;9&#45;&gt;1</title>
<path fill="none" stroke="green" stroke-width="0.31" d="M632.79,-145.92C648.98,-138.44 677.99,-123.9 699.54,-106.71 719.15,-91.08 714.84,-75.66 737.54,-64.99 815.15,-28.51 1422.88,-33.11 1508.54,-28.99 1600.2,-24.59 1709.15,-19.14 1756.98,-16.73"/>
<polygon fill="green" stroke="green" stroke-width="0.31" points="1756.93,-20.24 1766.74,-16.24 1756.58,-13.25 1756.93,-20.24"/>
</g>
<!-- &#45;9&#45;&gt;2 -->
<g id="edge24" class="edge">
<title>&#45;9&#45;&gt;2</title>
<path fill="none" stroke="red" stroke-width="0.16" d="M608.5,-150.66C584.75,-148.6 532.22,-140.27 509.54,-106.71 499.16,-91.35 497.25,-78.87 509.54,-64.99 522.29,-50.59 804.97,-24.99 890.34,-17.57"/>
<polygon fill="red" stroke="red" stroke-width="0.16" points="890.51,-21.07 900.17,-16.72 889.91,-14.09 890.51,-21.07"/>
</g>
<!-- &#45;9&#45;&gt;5 -->
<g id="edge51" class="edge">
<title>&#45;9&#45;&gt;5</title>
<path fill="none" stroke="red" stroke-width="0.37" d="M608.58,-150.4C544.82,-145.35 247.36,-121.1 234.54,-106.71 222.2,-92.87 222.13,-78.77 234.54,-64.99 264.67,-31.53 588.16,-19.09 680.85,-16.2"/>
<polygon fill="red" stroke="red" stroke-width="0.37" points="680.85,-19.7 690.74,-15.9 680.64,-12.7 680.85,-19.7"/>
</g>
<!-- &#45;9&#45;&gt;6 -->
<g id="edge128" class="edge">
<title>&#45;9&#45;&gt;6</title>
<path fill="none" stroke="green" stroke-width="0.14" d="M631.15,-142.47C653.78,-124.15 709.13,-82.41 763.54,-64.99 882.52,-26.9 1281.42,-17.65 1384.87,-15.87"/>
<polygon fill="green" stroke="green" stroke-width="0.14" points="1384.77,-19.37 1394.71,-15.7 1384.66,-12.37 1384.77,-19.37"/>
</g>
<!-- &#45;9&#45;&gt;573 -->
<g id="edge133" class="edge">
<title>&#45;9&#45;&gt;573</title>
<path fill="none" stroke="green" stroke-width="0.13" d="M632.43,-148.73C675.05,-139.38 821.03,-107.36 884.58,-93.42"/>
<polygon fill="green" stroke="green" stroke-width="0.13" points="885.03,-96.91 894.04,-91.35 883.53,-90.07 885.03,-96.91"/>
</g>
<!-- &#45;10 -->
<g id="node10" class="node">
<title>&#45;10</title>
<polygon fill="lightgray" stroke="black" points="881.54,-161.96 853.54,-161.96 853.54,-142.71 881.54,-142.71 881.54,-161.96"/>
<text text-anchor="middle" x="867.54" y="-149.41" font-family="Times New Roman,serif" font-size="9.00">&#45;10</text>
</g>
<!-- &#45;10&#45;&gt;0 -->
<g id="edge36" class="edge">
<title>&#45;10&#45;&gt;0</title>
<path fill="none" stroke="green" stroke-width="0.16" d="M866.12,-142.26C863.88,-124.32 861.89,-84.35 884.54,-64.99 963.81,2.79 1722.17,-57.34 1822.54,-28.99 1823.73,-28.66 1824.92,-28.25 1826.11,-27.79"/>
<polygon fill="green" stroke="green" stroke-width="0.16" points="1827.37,-31.07 1834.82,-23.54 1824.3,-24.78 1827.37,-31.07"/>
</g>
<!-- &#45;10&#45;&gt;3 -->
<g id="edge25" class="edge">
<title>&#45;10&#45;&gt;3</title>
<path fill="none" stroke="red" stroke-width="0.12" d="M853.28,-150.65C757.64,-146.01 213.09,-119.06 201.54,-106.71 188.87,-93.17 194.07,-81.96 201.54,-64.99 208.45,-49.29 223.06,-36.4 235.35,-27.71"/>
<polygon fill="red" stroke="red" stroke-width="0.12" points="236.97,-30.83 243.36,-22.38 233.1,-25 236.97,-30.83"/>
</g>
<!-- &#45;10&#45;&gt;6 -->
<g id="edge5" class="edge">
<title>&#45;10&#45;&gt;6</title>
<path fill="none" stroke="green" stroke-width="0.37" d="M853.22,-149.17C831.95,-145.1 792.69,-134.09 775.54,-106.71 765.7,-91 762.95,-78.6 775.54,-64.99 817.62,-19.5 1273.5,-15.73 1385.03,-15.49"/>
<polygon fill="green" stroke="green" stroke-width="0.37" points="1384.72,-18.99 1394.72,-15.48 1384.71,-11.99 1384.72,-18.99"/>
</g>
<!-- &#45;10&#45;&gt;7 -->
<g id="edge39" class="edge">
<title>&#45;10&#45;&gt;7</title>
<path fill="none" stroke="green" stroke-width="0.15" d="M861.61,-142.39C850.92,-125.02 831.28,-86.54 851.54,-64.99 895.84,-17.86 1368.64,-39.02 1432.54,-28.99 1442.35,-27.45 1453,-24.92 1462.16,-22.46"/>
<polygon fill="green" stroke="green" stroke-width="0.15" points="1463.06,-25.84 1471.74,-19.77 1461.16,-19.1 1463.06,-25.84"/>
</g>
<!-- &#45;10&#45;&gt;577 -->
<g id="edge53" class="edge">
<title>&#45;10&#45;&gt;577</title>
<path fill="none" stroke="green" stroke-width="0.29" d="M881.88,-143.36C897.46,-134.62 923,-120.06 944.54,-106.71 946.13,-105.72 947.76,-104.69 949.4,-103.65"/>
<polygon fill="green" stroke="green" stroke-width="0.29" points="951.04,-106.76 957.52,-98.37 947.23,-100.89 951.04,-106.76"/>
</g>
<!-- &#45;10&#45;&gt;573 -->
<g id="edge2" class="edge">
<title>&#45;10&#45;&gt;573</title>
<path fill="none" stroke="red" stroke-width="0.17" d="M874.07,-142.37C879.9,-134.37 888.71,-122.28 896.63,-111.43"/>
<polygon fill="red" stroke="red" stroke-width="0.17" points="899.38,-113.6 902.44,-103.45 893.72,-109.47 899.38,-113.6"/>
</g>
<!-- &#45;10&#45;&gt;574 -->
<g id="edge76" class="edge">
<title>&#45;10&#45;&gt;574</title>
<path fill="none" stroke="red" stroke-width="0.69" d="M881.6,-149.04C938.3,-139.78 1151,-105.06 1231.45,-91.93"/>
<polygon fill="red" stroke="red" stroke-width="0.69" points="1231.59,-95.29 1240.89,-90.22 1230.46,-88.38 1231.59,-95.29"/>
</g>
<!-- &#45;10&#45;&gt;575 -->
<g id="edge131" class="edge">
<title>&#45;10&#45;&gt;575</title>
<path fill="none" stroke="red" stroke-width="0.37" d="M881.78,-148.92C893.08,-147.06 909.29,-144.5 923.54,-142.71 1087.03,-122.16 1130.75,-137.94 1292.54,-106.71 1305.46,-104.22 1319.47,-100.34 1331.39,-96.66"/>
<polygon fill="red" stroke="red" stroke-width="0.37" points="1332.37,-100.03 1340.84,-93.66 1330.25,-93.35 1332.37,-100.03"/>
</g>
<!-- &#45;11 -->
<g id="node11" class="node">
<title>&#45;11</title>
<polygon fill="lightgray" stroke="black" points="1425.54,-161.96 1397.54,-161.96 1397.54,-142.71 1425.54,-142.71 1425.54,-161.96"/>
<text text-anchor="middle" x="1411.54" y="-149.41" font-family="Times New Roman,serif" font-size="9.00">&#45;11</text>
</g>
<!-- &#45;11&#45;&gt;0 -->
<g id="edge98" class="edge">
<title>&#45;11&#45;&gt;0</title>
<path fill="none" stroke="green" stroke-width="0.26" d="M1425.81,-148.79C1436.02,-147.01 1450.11,-144.61 1462.54,-142.71 1580.04,-124.8 1617.81,-152.39 1727.54,-106.71 1769.03,-89.44 1808.68,-53.98 1830.1,-32.72"/>
<polygon fill="green" stroke="green" stroke-width="0.26" points="1832.36,-35.42 1836.89,-25.84 1827.37,-30.5 1832.36,-35.42"/>
</g>
<!-- &#45;11&#45;&gt;1 -->
<g id="edge13" class="edge">
<title>&#45;11&#45;&gt;1</title>
<path fill="none" stroke="red" stroke-width="0.21" d="M1425.59,-146.18C1481.58,-125.62 1689.07,-49.44 1758.64,-23.9"/>
<polygon fill="red" stroke="red" stroke-width="0.21" points="1759.68,-27.25 1767.87,-20.52 1757.27,-20.68 1759.68,-27.25"/>
</g>
<!-- &#45;11&#45;&gt;2 -->
<g id="edge119" class="edge">
<title>&#45;11&#45;&gt;2</title>
<path fill="none" stroke="red" stroke-width="0.11" d="M1397.05,-148.14C1366.45,-141.3 1293.1,-124.42 1232.54,-106.71 1176.73,-90.39 1164.3,-81.46 1108.54,-64.99 1047.6,-46.99 974.76,-29.46 938.1,-20.91"/>
<polygon fill="red" stroke="red" stroke-width="0.11" points="939.29,-17.59 928.76,-18.74 937.71,-24.41 939.29,-17.59"/>
</g>
<!-- &#45;11&#45;&gt;3 -->
<g id="edge57" class="edge">
<title>&#45;11&#45;&gt;3</title>
<path fill="none" stroke="red" stroke-width="0.35" d="M1397.25,-150.33C1323.77,-145.11 988.02,-120.91 884.54,-106.71 786.38,-93.24 763.45,-80.21 665.54,-64.99 519.87,-42.35 343.72,-24.15 280.01,-17.86"/>
<polygon fill="red" stroke="red" stroke-width="0.35" points="280.41,-14.38 270.11,-16.89 279.72,-21.35 280.41,-14.38"/>
</g>
<!-- &#45;11&#45;&gt;4 -->
<g id="edge68" class="edge">
<title>&#45;11&#45;&gt;4</title>
<path fill="none" stroke="green" stroke-width="0.16" d="M1425.78,-148.6C1435.98,-146.72 1450.07,-144.29 1462.54,-142.71 1650.16,-118.92 1702.19,-148.93 1886.54,-106.71 1937.1,-95.13 1945.38,-78.21 1995.54,-64.99 2106.74,-35.69 2244.03,-21.98 2299.05,-17.37"/>
<polygon fill="green" stroke="green" stroke-width="0.16" points="2299.24,-20.87 2308.93,-16.57 2298.67,-13.89 2299.24,-20.87"/>
</g>
<!-- &#45;11&#45;&gt;7 -->
<g id="edge60" class="edge">
<title>&#45;11&#45;&gt;7</title>
<path fill="none" stroke="red" stroke-width="0.24" d="M1416.39,-142.42C1428.05,-121.03 1457.86,-66.3 1474.28,-36.17"/>
<polygon fill="red" stroke="red" stroke-width="0.24" points="1477.2,-38.13 1478.91,-27.67 1471.05,-34.78 1477.2,-38.13"/>
</g>
<!-- &#45;11&#45;&gt;577 -->
<g id="edge30" class="edge">
<title>&#45;11&#45;&gt;577</title>
<path fill="none" stroke="green" stroke-width="0.2" d="M1397.49,-149.26C1336.22,-140.22 1091.47,-104.11 1005,-91.35"/>
<polygon fill="green" stroke="green" stroke-width="0.2" points="1005.66,-87.91 995.26,-89.91 1004.64,-94.83 1005.66,-87.91"/>
</g>
<!-- &#45;11&#45;&gt;574 -->
<g id="edge44" class="edge">
<title>&#45;11&#45;&gt;574</title>
<path fill="none" stroke="green" stroke-width="0.17" d="M1397.25,-145.15C1372.72,-134.54 1322.18,-112.66 1290.46,-98.93"/>
<polygon fill="green" stroke="green" stroke-width="0.17" points="1292.23,-95.89 1281.66,-95.13 1289.45,-102.31 1292.23,-95.89"/>
</g>
<!-- &#45;12 -->
<g id="node12" class="node">
<title>&#45;12</title>
<polygon fill="lightgray" stroke="black" points="2774.54,-161.96 2746.54,-161.96 2746.54,-142.71 2774.54,-142.71 2774.54,-161.96"/>
<text text-anchor="middle" x="2760.54" y="-149.41" font-family="Times New Roman,serif" font-size="9.00">&#45;12</text>
</g>
<!-- &#45;12&#45;&gt;0 -->
<g id="edge46" class="edge">
<title>&#45;12&#45;&gt;0</title>
<path fill="none" stroke="green" stroke-width="0.38" d="M2746.06,-144.54C2709.33,-127.66 2609.12,-83.81 2520.54,-64.99 2392.66,-37.83 1976.69,-20.45 1871.09,-16.4"/>
<polygon fill="green" stroke="green" stroke-width="0.38" points="1871.46,-12.92 1861.33,-16.03 1871.19,-19.91 1871.46,-12.92"/>
</g>
<!-- &#45;12&#45;&gt;1 -->
<g id="edge89" class="edge">
<title>&#45;12&#45;&gt;1</title>
<path fill="none" stroke="green" stroke-width="0.19" d="M2746.38,-147.75C2693.07,-134.39 2499.18,-87.16 2336.54,-64.99 2110.07,-34.12 2047.97,-72.27 1823.54,-28.99 1817.12,-27.75 1810.32,-25.84 1804.1,-23.84"/>
<polygon fill="green" stroke="green" stroke-width="0.19" points="1805.54,-20.64 1794.94,-20.72 1803.27,-27.26 1805.54,-20.64"/>
</g>
<!-- &#45;12&#45;&gt;4 -->
<g id="edge27" class="edge">
<title>&#45;12&#45;&gt;4</title>
<path fill="none" stroke="green" stroke-width="0.48" d="M2768.98,-142.37C2784.04,-125.31 2812.1,-87.84 2791.54,-64.99 2761.61,-31.73 2440.17,-19.15 2348.07,-16.21"/>
<polygon fill="green" stroke="green" stroke-width="0.48" points="2348.35,-12.72 2338.24,-15.91 2348.13,-19.72 2348.35,-12.72"/>
</g>
<!-- &#45;12&#45;&gt;575 -->
<g id="edge120" class="edge">
<title>&#45;12&#45;&gt;575</title>
<path fill="none" stroke="green" stroke-width="0.3" d="M2746.12,-150.27C2722.14,-148.53 2672.55,-145.02 2630.54,-142.71 2265.41,-122.61 2173.87,-122.81 1808.54,-106.71 1651.75,-99.8 1464.09,-91.46 1391.4,-88.22"/>
<polygon fill="green" stroke="green" stroke-width="0.3" points="1391.68,-84.73 1381.53,-87.79 1391.37,-91.73 1391.68,-84.73"/>
</g>
<!-- &#45;13 -->
<g id="node13" class="node">
<title>&#45;13</title>
<polygon fill="lightgray" stroke="black" points="309.54,-161.96 281.54,-161.96 281.54,-142.71 309.54,-142.71 309.54,-161.96"/>
<text text-anchor="middle" x="295.54" y="-149.41" font-family="Times New Roman,serif" font-size="9.00">&#45;13</text>
</g>
<!-- &#45;13&#45;&gt;3 -->
<g id="edge106" class="edge">
<title>&#45;13&#45;&gt;3</title>
<path fill="none" stroke="green" stroke-width="0.41" d="M281.32,-151.41C228.81,-151.36 46.98,-148.15 11.54,-106.71 -50.79,-33.82 157.59,-19.1 230.94,-16.19"/>
<polygon fill="green" stroke="green" stroke-width="0.41" points="230.87,-19.7 240.74,-15.84 230.62,-12.7 230.87,-19.7"/>
</g>
<!-- &#45;13&#45;&gt;5 -->
<g id="edge55" class="edge">
<title>&#45;13&#45;&gt;5</title>
<path fill="none" stroke="red" stroke-width="0.36" d="M281.18,-149C260.28,-144.74 222.18,-133.54 205.54,-106.71 195.76,-90.95 193.09,-78.73 205.54,-64.99 237.78,-29.4 584.63,-18.41 680.89,-16.04"/>
<polygon fill="red" stroke="red" stroke-width="0.36" points="680.71,-19.54 690.63,-15.81 680.55,-12.55 680.71,-19.54"/>
</g>
<!-- &#45;13&#45;&gt;7 -->
<g id="edge40" class="edge">
<title>&#45;13&#45;&gt;7</title>
<path fill="none" stroke="green" stroke-width="0.4" d="M308.91,-142.3C337.35,-123.67 406.52,-81.37 471.54,-64.99 678.77,-12.79 1221.03,-59.53 1432.54,-28.99 1442.37,-27.57 1453.02,-25.06 1462.17,-22.58"/>
<polygon fill="green" stroke="green" stroke-width="0.4" points="1463.09,-25.96 1471.75,-19.86 1461.18,-19.23 1463.09,-25.96"/>
</g>
<!-- &#45;13&#45;&gt;577 -->
<g id="edge84" class="edge">
<title>&#45;13&#45;&gt;577</title>
<path fill="none" stroke="green" stroke-width="0.66" d="M309.86,-150.56C402.42,-145.51 913.42,-117.26 944.54,-106.71 946.36,-106.09 948.17,-105.34 949.96,-104.49"/>
<polygon fill="green" stroke="green" stroke-width="0.66" points="951.56,-107.61 958.52,-99.63 948.1,-101.52 951.56,-107.61"/>
</g>
<!-- &#45;13&#45;&gt;573 -->
<g id="edge118" class="edge">
<title>&#45;13&#45;&gt;573</title>
<path fill="none" stroke="red" stroke-width="0.27" d="M309.93,-149.84C389.14,-141.58 772.53,-101.65 884.05,-90.03"/>
<polygon fill="red" stroke="red" stroke-width="0.27" points="884.1,-93.54 893.68,-89.02 883.37,-86.58 884.1,-93.54"/>
</g>
<!-- &#45;14 -->
<g id="node14" class="node">
<title>&#45;14</title>
<polygon fill="lightgray" stroke="black" points="2318.54,-161.96 2290.54,-161.96 2290.54,-142.71 2318.54,-142.71 2318.54,-161.96"/>
<text text-anchor="middle" x="2304.54" y="-149.41" font-family="Times New Roman,serif" font-size="9.00">&#45;14</text>
</g>
<!-- &#45;14&#45;&gt;0 -->
<g id="edge3" class="edge">
<title>&#45;14&#45;&gt;0</title>
<path fill="none" stroke="red" stroke-width="0.26" d="M2318.67,-147.37C2350.33,-138.34 2424.75,-116.29 2431.54,-106.71 2442.26,-91.58 2444.09,-78.64 2431.54,-64.99 2393.07,-23.14 1977.4,-16.64 1871.15,-15.66"/>
<polygon fill="red" stroke="red" stroke-width="0.26" points="1871.36,-12.17 1861.33,-15.58 1871.3,-19.17 1871.36,-12.17"/>
</g>
<!-- &#45;14&#45;&gt;1 -->
<g id="edge61" class="edge">
<title>&#45;14&#45;&gt;1</title>
<path fill="none" stroke="red" stroke-width="0.23" d="M2305.09,-142.25C2305.62,-124.28 2303.95,-84.28 2280.54,-64.99 2201.92,-0.21 1923.48,-48.71 1823.54,-28.99 1817.13,-27.73 1810.33,-25.81 1804.11,-23.81"/>
<polygon fill="red" stroke="red" stroke-width="0.23" points="1805.54,-20.6 1794.95,-20.69 1803.28,-27.23 1805.54,-20.6"/>
</g>
<!-- &#45;14&#45;&gt;4 -->
<g id="edge11" class="edge">
<title>&#45;14&#45;&gt;4</title>
<path fill="none" stroke="red" stroke-width="0.21" d="M2318.82,-147.51C2325.4,-145.85 2333.33,-144 2340.54,-142.71 2406.85,-130.84 2596.82,-157.09 2641.54,-106.71 2653.85,-92.84 2653.6,-79.07 2641.54,-64.99 2603.59,-20.68 2415.95,-15.73 2348.09,-15.4"/>
<polygon fill="red" stroke="red" stroke-width="0.21" points="2348.27,-11.9 2338.26,-15.39 2348.26,-18.9 2348.27,-11.9"/>
</g>
<!-- &#45;14&#45;&gt;6 -->
<g id="edge54" class="edge">
<title>&#45;14&#45;&gt;6</title>
<path fill="none" stroke="green" stroke-width="0.15" d="M2290.21,-145.62C2249.36,-129.6 2128.46,-84.2 2023.54,-64.99 1777.78,-19.99 1709.32,-67.98 1462.54,-28.99 1452.73,-27.44 1442.08,-24.9 1432.92,-22.45"/>
<polygon fill="green" stroke="green" stroke-width="0.15" points="1433.91,-19.09 1423.34,-19.76 1432.03,-25.83 1433.91,-19.09"/>
</g>
<!-- &#45;14&#45;&gt;573 -->
<g id="edge4" class="edge">
<title>&#45;14&#45;&gt;573</title>
<path fill="none" stroke="red" stroke-width="0.29" d="M2290.3,-147.2C2283.74,-145.48 2275.8,-143.67 2268.54,-142.71 2122.64,-123.46 1084.87,-151.04 944.54,-106.71 942.71,-106.13 940.88,-105.41 939.09,-104.58"/>
<polygon fill="red" stroke="red" stroke-width="0.29" points="940.94,-101.6 930.51,-99.77 937.52,-107.71 940.94,-101.6"/>
</g>
<!-- &#45;14&#45;&gt;575 -->
<g id="edge37" class="edge">
<title>&#45;14&#45;&gt;575</title>
<path fill="none" stroke="green" stroke-width="0.39" d="M2290.29,-147.32C2283.72,-145.62 2275.79,-143.79 2268.54,-142.71 2093.66,-116.58 1530.03,-93.43 1391.51,-88.03"/>
<polygon fill="green" stroke="green" stroke-width="0.39" points="1391.69,-84.54 1381.56,-87.65 1391.42,-91.53 1391.69,-84.54"/>
</g>
<!-- &#45;15 -->
<g id="node15" class="node">
<title>&#45;15</title>
<polygon fill="lightgray" stroke="black" points="1276.54,-161.96 1248.54,-161.96 1248.54,-142.71 1276.54,-142.71 1276.54,-161.96"/>
<text text-anchor="middle" x="1262.54" y="-149.41" font-family="Times New Roman,serif" font-size="9.00">&#45;15</text>
</g>
<!-- &#45;15&#45;&gt;0 -->
<g id="edge66" class="edge">
<title>&#45;15&#45;&gt;0</title>
<path fill="none" stroke="red" stroke-width="0.55" d="M1276.85,-148.6C1312.18,-141.82 1406.33,-123.56 1484.54,-106.71 1635.22,-74.25 1678.78,-84.61 1822.54,-28.99 1823.69,-28.55 1824.86,-28.05 1826.02,-27.52"/>
<polygon fill="red" stroke="red" stroke-width="0.55" points="1827.38,-30.76 1834.66,-23.06 1824.17,-24.54 1827.38,-30.76"/>
</g>
<!-- &#45;15&#45;&gt;1 -->
<g id="edge29" class="edge">
<title>&#45;15&#45;&gt;1</title>
<path fill="none" stroke="red" stroke-width="0.21" d="M1276.76,-146.32C1317.27,-132.15 1436.92,-91.16 1538.54,-64.99 1617.88,-44.56 1713.55,-27.15 1757.42,-19.56"/>
<polygon fill="red" stroke="red" stroke-width="0.21" points="1757.92,-23.03 1767.18,-17.89 1756.73,-16.13 1757.92,-23.03"/>
</g>
<!-- &#45;15&#45;&gt;2 -->
<g id="edge48" class="edge">
<title>&#45;15&#45;&gt;2</title>
<path fill="none" stroke="green" stroke-width="0.15" d="M1248.47,-145.84C1194.89,-124.93 1003.33,-50.15 937.19,-24.34"/>
<polygon fill="green" stroke="green" stroke-width="0.15" points="938.62,-21.14 928.03,-20.76 936.07,-27.66 938.62,-21.14"/>
</g>
<!-- &#45;15&#45;&gt;5 -->
<g id="edge15" class="edge">
<title>&#45;15&#45;&gt;5</title>
<path fill="none" stroke="green" stroke-width="0.44" d="M1248.1,-151.44C1197.14,-151.44 1021.45,-148.22 884.54,-106.71 823.21,-88.12 757.72,-49.23 725.62,-28.76"/>
<polygon fill="green" stroke="green" stroke-width="0.44" points="727.78,-25.99 717.49,-23.5 723.99,-31.87 727.78,-25.99"/>
</g>
<!-- &#45;15&#45;&gt;6 -->
<g id="edge79" class="edge">
<title>&#45;15&#45;&gt;6</title>
<path fill="none" stroke="green" stroke-width="0.15" d="M1248.17,-145.87C1232.93,-139.21 1209.7,-126.36 1199.54,-106.71 1191.02,-90.24 1188.03,-79.53 1199.54,-64.99 1222.49,-36 1334.97,-22.28 1385.22,-17.53"/>
<polygon fill="green" stroke="green" stroke-width="0.15" points="1385.29,-21.04 1394.94,-16.65 1384.66,-14.06 1385.29,-21.04"/>
</g>
<!-- &#45;15&#45;&gt;7 -->
<g id="edge19" class="edge">
<title>&#45;15&#45;&gt;7</title>
<path fill="none" stroke="green" stroke-width="0.16" d="M1254.19,-142.23C1239.64,-125.25 1213,-88.37 1232.54,-64.99 1261.5,-30.35 1388.41,-38.57 1432.54,-28.99 1442.25,-26.88 1452.87,-24.25 1462.04,-21.86"/>
<polygon fill="green" stroke="green" stroke-width="0.16" points="1462.88,-25.26 1471.65,-19.32 1461.09,-18.49 1462.88,-25.26"/>
</g>
<!-- &#45;15&#45;&gt;576 -->
<g id="edge78" class="edge">
<title>&#45;15&#45;&gt;576</title>
<path fill="none" stroke="green" stroke-width="0.2" d="M1276.66,-150.4C1333.43,-146.56 1550.37,-131.02 1727.54,-106.71 1755.12,-102.93 1786.32,-97.22 1808.6,-92.89"/>
<polygon fill="green" stroke="green" stroke-width="0.2" points="1809.02,-96.37 1818.16,-91.01 1807.67,-89.5 1809.02,-96.37"/>
</g>
<!-- &#45;15&#45;&gt;574 -->
<g id="edge136" class="edge">
<title>&#45;15&#45;&gt;574</title>
<path fill="none" stroke="red" stroke-width="0.15" d="M1262.54,-142.37C1262.54,-135.71 1262.54,-126.22 1262.54,-116.96"/>
<polygon fill="red" stroke="red" stroke-width="0.15" points="1266.04,-117.15 1262.54,-107.15 1259.04,-117.15 1266.04,-117.15"/>
</g>
<!-- &#45;15&#45;&gt;575 -->
<g id="edge47" class="edge">
<title>&#45;15&#45;&gt;575</title>
<path fill="none" stroke="green" stroke-width="0.11" d="M1276.17,-142.37C1291.4,-132.35 1316.4,-115.9 1335.24,-103.5"/>
<polygon fill="green" stroke="green" stroke-width="0.11" points="1336.98,-106.55 1343.41,-98.12 1333.13,-100.7 1336.98,-106.55"/>
</g>
<!-- &#45;16 -->
<g id="node16" class="node">
<title>&#45;16</title>
<polygon fill="lightgray" stroke="black" points="1689.54,-161.96 1661.54,-161.96 1661.54,-142.71 1689.54,-142.71 1689.54,-161.96"/>
<text text-anchor="middle" x="1675.54" y="-149.41" font-family="Times New Roman,serif" font-size="9.00">&#45;16</text>
</g>
<!-- &#45;16&#45;&gt;1 -->
<g id="edge10" class="edge">
<title>&#45;16&#45;&gt;1</title>
<path fill="none" stroke="red" stroke-width="0.11" d="M1689.88,-150.57C1733.25,-147.91 1861.55,-137.54 1886.54,-106.71 1898.22,-92.31 1896.47,-80.65 1886.54,-64.99 1877.17,-50.22 1832.26,-32.73 1804.29,-23"/>
<polygon fill="red" stroke="red" stroke-width="0.11" points="1805.78,-19.81 1795.19,-19.89 1803.52,-26.43 1805.78,-19.81"/>
</g>
<!-- &#45;16&#45;&gt;4 -->
<g id="edge93" class="edge">
<title>&#45;16&#45;&gt;4</title>
<path fill="none" stroke="green" stroke-width="0.11" d="M1689.79,-150.72C1758.77,-147.64 2058.31,-132.97 2147.54,-106.71 2208.2,-88.86 2272.44,-49.65 2303.88,-28.93"/>
<polygon fill="green" stroke="green" stroke-width="0.11" points="2305.47,-32.08 2311.85,-23.61 2301.59,-26.26 2305.47,-32.08"/>
</g>
<!-- &#45;16&#45;&gt;7 -->
<g id="edge72" class="edge">
<title>&#45;16&#45;&gt;7</title>
<path fill="none" stroke="red" stroke-width="0.3" d="M1662.78,-142.21C1630.13,-118.87 1543.45,-56.9 1504.71,-29.2"/>
<polygon fill="red" stroke="red" stroke-width="0.3" points="1506.96,-26.51 1496.79,-23.54 1502.89,-32.2 1506.96,-26.51"/>
</g>
<!-- &#45;16&#45;&gt;576 -->
<g id="edge81" class="edge">
<title>&#45;16&#45;&gt;576</title>
<path fill="none" stroke="red" stroke-width="0.4" d="M1689.69,-147.32C1713.64,-140.32 1763.46,-124.89 1803.54,-106.71 1806.47,-105.38 1809.47,-103.89 1812.43,-102.34"/>
<polygon fill="red" stroke="red" stroke-width="0.4" points="1813.98,-105.48 1821.06,-97.59 1810.61,-99.35 1813.98,-105.48"/>
</g>
<!-- &#45;16&#45;&gt;577 -->
<g id="edge64" class="edge">
<title>&#45;16&#45;&gt;577</title>
<path fill="none" stroke="green" stroke-width="0.4" d="M1661.22,-150.02C1575.29,-142.11 1127.67,-100.94 1005.42,-89.69"/>
<polygon fill="green" stroke="green" stroke-width="0.4" points="1005.85,-86.22 995.57,-88.79 1005.21,-93.19 1005.85,-86.22"/>
</g>
<!-- &#45;16&#45;&gt;573 -->
<g id="edge28" class="edge">
<title>&#45;16&#45;&gt;573</title>
<path fill="none" stroke="red" stroke-width="0.15" d="M1661.31,-150.57C1560.88,-145.15 962.21,-112.62 944.54,-106.71 942.72,-106.1 940.9,-105.35 939.11,-104.5"/>
<polygon fill="red" stroke="red" stroke-width="0.15" points="940.97,-101.53 930.55,-99.65 937.52,-107.62 940.97,-101.53"/>
</g>
<!-- &#45;16&#45;&gt;575 -->
<g id="edge132" class="edge">
<title>&#45;16&#45;&gt;575</title>
<path fill="none" stroke="red" stroke-width="0.23" d="M1661.19,-148.4C1612.99,-138.53 1456.28,-106.45 1390.27,-92.94"/>
<polygon fill="red" stroke="red" stroke-width="0.23" points="1391.35,-89.59 1380.85,-91.01 1389.95,-96.44 1391.35,-89.59"/>
</g>
<!-- &#45;17 -->
<g id="node17" class="node">
<title>&#45;17</title>
<polygon fill="lightgray" stroke="black" points="2621.54,-161.96 2593.54,-161.96 2593.54,-142.71 2621.54,-142.71 2621.54,-161.96"/>
<text text-anchor="middle" x="2607.54" y="-149.41" font-family="Times New Roman,serif" font-size="9.00">&#45;17</text>
</g>
<!-- &#45;17&#45;&gt;0 -->
<g id="edge135" class="edge">
<title>&#45;17&#45;&gt;0</title>
<path fill="none" stroke="green" stroke-width="0.34" d="M2597.18,-142.48C2575.09,-124.18 2521.01,-82.48 2467.54,-64.99 2353.73,-27.77 1972.19,-17.91 1871.22,-15.92"/>
<polygon fill="green" stroke="green" stroke-width="0.34" points="1871.4,-12.43 1861.33,-15.74 1871.26,-19.42 1871.4,-12.43"/>
</g>
<!-- &#45;17&#45;&gt;4 -->
<g id="edge95" class="edge">
<title>&#45;17&#45;&gt;4</title>
<path fill="none" stroke="green" stroke-width="0.15" d="M2621.92,-149.69C2658.74,-145.14 2754.84,-131.1 2773.54,-106.71 2784.82,-92 2785.91,-78.8 2773.54,-64.99 2744.94,-33.07 2438.36,-19.61 2348.29,-16.33"/>
<polygon fill="green" stroke="green" stroke-width="0.15" points="2348.53,-12.84 2338.41,-15.98 2348.28,-19.83 2348.53,-12.84"/>
</g>
<!-- &#45;17&#45;&gt;576 -->
<g id="edge134" class="edge">
<title>&#45;17&#45;&gt;576</title>
<path fill="none" stroke="green" stroke-width="0.27" d="M2593.2,-150.13C2501.72,-142.46 1999.29,-100.33 1869.27,-89.43"/>
<polygon fill="green" stroke="green" stroke-width="0.27" points="1869.8,-85.96 1859.54,-88.61 1869.21,-92.94 1869.8,-85.96"/>
</g>
<!-- &#45;17&#45;&gt;577 -->
<g id="edge14" class="edge">
<title>&#45;17&#45;&gt;577</title>
<path fill="none" stroke="green" stroke-width="0.21" d="M2593.06,-150.75C2557.33,-149.3 2462.04,-145.48 2382.54,-142.71 1871.49,-124.92 1743.15,-134.34 1232.54,-106.71 1150.42,-102.27 1053.81,-94.02 1005.43,-89.69"/>
<polygon fill="green" stroke="green" stroke-width="0.21" points="1005.86,-86.21 995.59,-88.8 1005.23,-93.18 1005.86,-86.21"/>
</g>
<!-- 1&#45;&gt;1 -->
<g id="edge62" class="edge">
<title>1&#45;&gt;1</title>
<path fill="none" stroke="green" stroke-width="0.12" d="M1791.85,-24.94C1802.35,-31.08 1814.03,-27.6 1814.03,-14.5 1814.03,-5.28 1808.26,-0.83 1801.18,-1.13"/>
<polygon fill="green" stroke="green" stroke-width="0.12" points="1800.35,2.28 1791.85,-4.06 1802.44,-4.4 1800.35,2.28"/>
</g>
<!-- 3&#45;&gt;3 -->
<g id="edge99" class="edge">
<title>3&#45;&gt;3</title>
<path fill="none" stroke="red" stroke-width="0.14" d="M265.85,-24.94C276.35,-31.08 288.03,-27.6 288.03,-14.5 288.03,-5.28 282.26,-0.83 275.18,-1.13"/>
<polygon fill="red" stroke="red" stroke-width="0.14" points="274.35,2.28 265.85,-4.06 276.44,-4.4 274.35,2.28"/>
</g>
<!-- 4&#45;&gt;4 -->
<g id="edge122" class="edge">
<title>4&#45;&gt;4</title>
<path fill="none" stroke="red" stroke-width="0.13" d="M2333.85,-24.94C2344.35,-31.08 2356.03,-27.6 2356.03,-14.5 2356.03,-5.28 2350.26,-0.83 2343.18,-1.13"/>
<polygon fill="red" stroke="red" stroke-width="0.13" points="2342.35,2.28 2333.85,-4.06 2344.44,-4.4 2342.35,2.28"/>
</g>
<!-- 5&#45;&gt;5 -->
<g id="edge114" class="edge">
<title>5&#45;&gt;5</title>
<path fill="none" stroke="green" stroke-width="0.19" d="M715.85,-24.94C726.35,-31.08 738.03,-27.6 738.03,-14.5 738.03,-5.28 732.26,-0.83 725.18,-1.13"/>
<polygon fill="green" stroke="green" stroke-width="0.19" points="724.35,2.28 715.85,-4.06 726.44,-4.4 724.35,2.28"/>
</g>
<!-- 576&#45;&gt;0 -->
<g id="edge125" class="edge">
<title>576&#45;&gt;0</title>
<path fill="none" stroke="green" stroke-width="0.11" d="M1840.85,-64.79C1841.77,-56.8 1842.84,-47.55 1843.8,-39.23"/>
<polygon fill="green" stroke="green" stroke-width="0.11" points="1847.27,-39.69 1844.94,-29.36 1840.32,-38.89 1847.27,-39.69"/>
</g>
<!-- 576&#45;&gt;1 -->
<g id="edge82" class="edge">
<title>576&#45;&gt;1</title>
<path fill="none" stroke="red" stroke-width="0.33" d="M1825.6,-69.11C1816.94,-58.56 1805.49,-44.64 1796.44,-33.63"/>
<polygon fill="red" stroke="red" stroke-width="0.33" points="1799.4,-31.72 1790.35,-26.21 1793.99,-36.16 1799.4,-31.72"/>
</g>
<!-- 576&#45;&gt;3 -->
<g id="edge56" class="edge">
<title>576&#45;&gt;3</title>
<path fill="none" stroke="green" stroke-width="0.23" d="M1817.55,-83.92C1753.52,-81.06 1555.04,-72.22 1390.54,-64.99 944.87,-45.4 400.76,-21.79 280.02,-16.56"/>
<polygon fill="green" stroke="green" stroke-width="0.23" points="280.4,-13.07 270.26,-16.13 280.1,-20.06 280.4,-13.07"/>
</g>
<!-- 576&#45;&gt;4 -->
<g id="edge33" class="edge">
<title>576&#45;&gt;4</title>
<path fill="none" stroke="green" stroke-width="0.11" d="M1859.08,-81.59C1884.52,-77.58 1929.2,-70.61 1967.54,-64.99 2092.21,-46.73 2241.71,-26.48 2299.29,-18.74"/>
<polygon fill="green" stroke="green" stroke-width="0.11" points="2299.5,-22.25 2308.95,-17.45 2298.57,-15.31 2299.5,-22.25"/>
</g>
<!-- 576&#45;&gt;6 -->
<g id="edge130" class="edge">
<title>576&#45;&gt;6</title>
<path fill="none" stroke="green" stroke-width="0.31" d="M1817.62,-82.5C1760.43,-75.92 1596.79,-55.98 1462.54,-28.99 1452.8,-27.03 1442.17,-24.42 1433,-22.02"/>
<polygon fill="green" stroke="green" stroke-width="0.31" points="1433.96,-18.65 1423.4,-19.44 1432.15,-25.41 1433.96,-18.65"/>
</g>
<!-- 576&#45;&gt;576 -->
<g id="edge65" class="edge">
<title>576&#45;&gt;576</title>
<path fill="none" stroke="green" stroke-width="0.33" d="M1856.12,-97.44C1867.02,-100.23 1877.4,-96.37 1877.4,-85.85 1877.4,-78.62 1872.5,-74.53 1865.89,-73.6"/>
<polygon fill="green" stroke="green" stroke-width="0.33" points="1865.86,-70.09 1856.12,-74.26 1866.34,-77.07 1865.86,-70.09"/>
</g>
<!-- 577&#45;&gt;4 -->
<g id="edge103" class="edge">
<title>577&#45;&gt;4</title>
<path fill="none" stroke="green" stroke-width="0.5" d="M995.59,-83C1039.57,-79.2 1144.43,-70.38 1232.54,-64.99 1659.23,-38.9 2180.57,-20.37 2298.88,-16.33"/>
<polygon fill="green" stroke="green" stroke-width="0.5" points="2298.89,-19.83 2308.77,-15.99 2298.66,-12.83 2298.89,-19.83"/>
</g>
<!-- 577&#45;&gt;5 -->
<g id="edge21" class="edge">
<title>577&#45;&gt;5</title>
<path fill="none" stroke="red" stroke-width="0.26" d="M958.04,-72.32C953.81,-69.57 949.15,-66.91 944.54,-64.99 870.09,-34 774.25,-21.73 729.97,-17.48"/>
<polygon fill="red" stroke="red" stroke-width="0.26" points="730.38,-14 720.11,-16.58 729.75,-20.97 730.38,-14"/>
</g>
<!-- 577&#45;&gt;6 -->
<g id="edge16" class="edge">
<title>577&#45;&gt;6</title>
<path fill="none" stroke="red" stroke-width="0.13" d="M991.71,-73.33C997.2,-70.14 1003.44,-67.01 1009.54,-64.99 1146.12,-19.79 1321.33,-15.27 1385.02,-15.24"/>
<polygon fill="red" stroke="red" stroke-width="0.13" points="1384.91,-18.74 1394.92,-15.27 1384.93,-11.74 1384.91,-18.74"/>
</g>
<!-- 573&#45;&gt;1 -->
<g id="edge113" class="edge">
<title>573&#45;&gt;1</title>
<path fill="none" stroke="green" stroke-width="0.18" d="M930.54,-72.04C934.86,-69.23 939.68,-66.61 944.54,-64.99 964.33,-58.39 1620.12,-23.91 1756.75,-16.78"/>
<polygon fill="green" stroke="green" stroke-width="0.18" points="1756.88,-20.28 1766.69,-16.27 1756.52,-13.29 1756.88,-20.28"/>
</g>
<!-- 573&#45;&gt;2 -->
<g id="edge26" class="edge">
<title>573&#45;&gt;2</title>
<path fill="none" stroke="green" stroke-width="0.36" d="M914.54,-64.79C914.54,-56.8 914.54,-47.55 914.54,-39.23"/>
<polygon fill="green" stroke="green" stroke-width="0.36" points="918.04,-39.36 914.54,-29.36 911.04,-39.36 918.04,-39.36"/>
</g>
<!-- 573&#45;&gt;4 -->
<g id="edge77" class="edge">
<title>573&#45;&gt;4</title>
<path fill="none" stroke="red" stroke-width="0.36" d="M930.52,-71.97C934.83,-69.16 939.66,-66.56 944.54,-64.99 961.33,-59.61 2114.78,-22.22 2298.88,-16.29"/>
<polygon fill="red" stroke="red" stroke-width="0.36" points="2298.83,-19.79 2308.72,-15.97 2298.61,-12.8 2298.83,-19.79"/>
</g>
<!-- 573&#45;&gt;5 -->
<g id="edge87" class="edge">
<title>573&#45;&gt;5</title>
<path fill="none" stroke="green" stroke-width="0.2" d="M894.88,-78.33C856.11,-65.46 769.98,-36.88 728.6,-23.15"/>
<polygon fill="green" stroke="green" stroke-width="0.2" points="729.92,-19.9 719.33,-20.07 727.72,-26.54 729.92,-19.9"/>
</g>
<!-- 574&#45;&gt;1 -->
<g id="edge49" class="edge">
<title>574&#45;&gt;1</title>
<path fill="none" stroke="green" stroke-width="0.11" d="M1279.69,-73.25C1285.17,-70.06 1291.42,-66.95 1297.54,-64.99 1384.74,-37.15 1671.19,-20.98 1757.02,-16.67"/>
<polygon fill="green" stroke="green" stroke-width="0.11" points="1757.09,-20.17 1766.9,-16.18 1756.74,-13.18 1757.09,-20.17"/>
</g>
<!-- 574&#45;&gt;5 -->
<g id="edge50" class="edge">
<title>574&#45;&gt;5</title>
<path fill="none" stroke="red" stroke-width="0.11" d="M1242.15,-80.78C1219.93,-76.45 1183.31,-69.59 1151.54,-64.99 991.26,-41.79 797.2,-23.63 729.9,-17.62"/>
<polygon fill="red" stroke="red" stroke-width="0.11" points="730.48,-14.16 720.21,-16.77 729.87,-21.14 730.48,-14.16"/>
</g>
<!-- 574&#45;&gt;7 -->
<g id="edge96" class="edge">
<title>574&#45;&gt;7</title>
<path fill="none" stroke="red" stroke-width="0.3" d="M1279.9,-73.83C1285.39,-70.66 1291.59,-67.42 1297.54,-64.99 1305.27,-61.84 1413.42,-33.98 1462.1,-21.5"/>
<polygon fill="red" stroke="red" stroke-width="0.3" points="1462.7,-24.95 1471.52,-19.08 1460.97,-18.17 1462.7,-24.95"/>
</g>
<!-- 575&#45;&gt;2 -->
<g id="edge115" class="edge">
<title>575&#45;&gt;2</title>
<path fill="none" stroke="green" stroke-width="0.2" d="M1340.81,-78.21C1327.34,-73.9 1309.03,-68.46 1292.54,-64.99 1160.56,-37.25 999.2,-22.31 938.84,-17.37"/>
<polygon fill="green" stroke="green" stroke-width="0.2" points="939.34,-13.9 929.09,-16.59 938.78,-20.88 939.34,-13.9"/>
</g>
<!-- 575&#45;&gt;5 -->
<g id="edge94" class="edge">
<title>575&#45;&gt;5</title>
<path fill="none" stroke="green" stroke-width="0.12" d="M1340.86,-77.97C1327.41,-73.55 1309.1,-68.08 1292.54,-64.99 1236.58,-54.57 834.04,-24.84 730.02,-17.27"/>
<polygon fill="green" stroke="green" stroke-width="0.12" points="730.35,-13.78 720.13,-16.55 729.85,-20.77 730.35,-13.78"/>
</g>
<!-- 575&#45;&gt;7 -->
<g id="edge121" class="edge">
<title>575&#45;&gt;7</title>
<path fill="none" stroke="green" stroke-width="0.16" d="M1378.72,-74.77C1401.43,-62.16 1440.24,-40.63 1464.3,-27.28"/>
<polygon fill="green" stroke="green" stroke-width="0.16" points="1465.98,-30.35 1473.03,-22.44 1462.59,-24.23 1465.98,-30.35"/>
</g>
</g>
</svg>
