<?xml version="1.0" encoding="utf-8" standalone="no"?>
<!DOCTYPE svg PUBLIC "-//W3C//DTD SVG 1.1//EN"
  "http://www.w3.org/Graphics/SVG/1.1/DTD/svg11.dtd">
<svg xmlns:xlink="http://www.w3.org/1999/xlink" width="460.8pt" height="345.6pt" viewBox="0 0 460.8 345.6" xmlns="http://www.w3.org/2000/svg" version="1.1">
 <metadata>
  <rdf:RDF xmlns:dc="http://purl.org/dc/elements/1.1/" xmlns:cc="http://creativecommons.org/ns#" xmlns:rdf="http://www.w3.org/1999/02/22-rdf-syntax-ns#">
   <cc:Work>
    <dc:type rdf:resource="http://purl.org/dc/dcmitype/StillImage"/>
    <dc:date>2023-05-24T12:07:50.702107</dc:date>
    <dc:format>image/svg+xml</dc:format>
    <dc:creator>
     <cc:Agent>
      <dc:title>Matplotlib v3.7.0, https://matplotlib.org/</dc:title>
     </cc:Agent>
    </dc:creator>
   </cc:Work>
  </rdf:RDF>
 </metadata>
 <defs>
  <style type="text/css">*{stroke-linejoin: round; stroke-linecap: butt}</style>
 </defs>
 <g id="figure_1">
  <g id="patch_1">
   <path d="M 0 345.6 
L 460.8 345.6 
L 460.8 0 
L 0 0 
z
" style="fill: #ffffff"/>
  </g>
  <g id="axes_1">
   <g id="patch_2">
    <path d="M 57.6 307.584 
L 414.72 307.584 
L 414.72 41.472 
L 57.6 41.472 
z
" style="fill: #ffffff"/>
   </g>
   <g id="PolyCollection_1">
    <path d="M 73.832727 302.5152 
L 73.832727 307.584 
L 88.589752 307.584 
L 103.346777 307.584 
L 118.103802 307.584 
L 132.860826 307.584 
L 147.617851 307.584 
L 162.374876 307.584 
L 177.131901 307.584 
L 191.888926 307.584 
L 206.64595 307.584 
L 221.402975 307.584 
L 236.16 307.584 
L 250.917025 307.584 
L 265.67405 307.584 
L 280.431074 307.584 
L 295.188099 307.584 
L 309.945124 307.584 
L 324.702149 307.584 
L 339.459174 307.584 
L 354.216198 307.584 
L 368.973223 307.584 
L 383.730248 307.584 
L 398.487273 307.584 
L 398.487273 302.5152 
L 398.487273 302.5152 
L 383.730248 302.5152 
L 368.973223 302.5152 
L 354.216198 302.5152 
L 339.459174 302.5152 
L 324.702149 302.5152 
L 309.945124 302.5152 
L 295.188099 302.5152 
L 280.431074 302.5152 
L 265.67405 302.5152 
L 250.917025 302.5152 
L 236.16 302.5152 
L 221.402975 302.5152 
L 206.64595 302.5152 
L 191.888926 302.5152 
L 177.131901 302.5152 
L 162.374876 302.5152 
L 147.617851 302.5152 
L 132.860826 302.5152 
L 118.103802 302.5152 
L 103.346777 302.5152 
L 88.589752 302.5152 
L 73.832727 302.5152 
z
" clip-path="url(#pf1aed881cc)" style="fill: #1f77b4"/>
   </g>
   <g id="PolyCollection_2">
    <path d="M 73.832727 297.4464 
L 73.832727 302.5152 
L 88.589752 302.5152 
L 103.346777 302.5152 
L 118.103802 302.5152 
L 132.860826 302.5152 
L 147.617851 302.5152 
L 162.374876 302.5152 
L 177.131901 302.5152 
L 191.888926 302.5152 
L 206.64595 302.5152 
L 221.402975 302.5152 
L 236.16 302.5152 
L 250.917025 302.5152 
L 265.67405 302.5152 
L 280.431074 302.5152 
L 295.188099 302.5152 
L 309.945124 302.5152 
L 324.702149 302.5152 
L 339.459174 302.5152 
L 354.216198 302.5152 
L 368.973223 302.5152 
L 383.730248 302.5152 
L 398.487273 302.5152 
L 398.487273 297.4464 
L 398.487273 297.4464 
L 383.730248 297.4464 
L 368.973223 297.4464 
L 354.216198 297.4464 
L 339.459174 297.4464 
L 324.702149 297.4464 
L 309.945124 297.4464 
L 295.188099 297.4464 
L 280.431074 297.4464 
L 265.67405 297.4464 
L 250.917025 297.4464 
L 236.16 297.4464 
L 221.402975 297.4464 
L 206.64595 297.4464 
L 191.888926 297.4464 
L 177.131901 297.4464 
L 162.374876 297.4464 
L 147.617851 297.4464 
L 132.860826 297.4464 
L 118.103802 297.4464 
L 103.346777 297.4464 
L 88.589752 297.4464 
L 73.832727 297.4464 
z
" clip-path="url(#pf1aed881cc)" style="fill: #ff7f0e"/>
   </g>
   <g id="PolyCollection_3">
    <path d="M 73.832727 292.3776 
L 73.832727 297.4464 
L 88.589752 297.4464 
L 103.346777 297.4464 
L 118.103802 297.4464 
L 132.860826 297.4464 
L 147.617851 297.4464 
L 162.374876 297.4464 
L 177.131901 297.4464 
L 191.888926 297.4464 
L 206.64595 297.4464 
L 221.402975 297.4464 
L 236.16 297.4464 
L 250.917025 297.4464 
L 265.67405 297.4464 
L 280.431074 297.4464 
L 295.188099 297.4464 
L 309.945124 297.4464 
L 324.702149 297.4464 
L 339.459174 297.4464 
L 354.216198 297.4464 
L 368.973223 297.4464 
L 383.730248 297.4464 
L 398.487273 297.4464 
L 398.487273 292.3776 
L 398.487273 292.3776 
L 383.730248 292.3776 
L 368.973223 292.3776 
L 354.216198 292.3776 
L 339.459174 292.3776 
L 324.702149 292.3776 
L 309.945124 292.3776 
L 295.188099 292.3776 
L 280.431074 292.3776 
L 265.67405 292.3776 
L 250.917025 292.3776 
L 236.16 292.3776 
L 221.402975 292.3776 
L 206.64595 292.3776 
L 191.888926 292.3776 
L 177.131901 292.3776 
L 162.374876 292.3776 
L 147.617851 292.3776 
L 132.860826 292.3776 
L 118.103802 292.3776 
L 103.346777 292.3776 
L 88.589752 292.3776 
L 73.832727 292.3776 
z
" clip-path="url(#pf1aed881cc)" style="fill: #2ca02c"/>
   </g>
   <g id="PolyCollection_4">
    <path d="M 73.832727 287.3088 
L 73.832727 292.3776 
L 88.589752 292.3776 
L 103.346777 292.3776 
L 118.103802 292.3776 
L 132.860826 292.3776 
L 147.617851 292.3776 
L 162.374876 292.3776 
L 177.131901 292.3776 
L 191.888926 292.3776 
L 206.64595 292.3776 
L 221.402975 292.3776 
L 236.16 292.3776 
L 250.917025 292.3776 
L 265.67405 292.3776 
L 280.431074 292.3776 
L 295.188099 292.3776 
L 309.945124 292.3776 
L 324.702149 292.3776 
L 339.459174 292.3776 
L 354.216198 292.3776 
L 368.973223 292.3776 
L 383.730248 292.3776 
L 398.487273 292.3776 
L 398.487273 287.3088 
L 398.487273 287.3088 
L 383.730248 287.3088 
L 368.973223 287.3088 
L 354.216198 287.3088 
L 339.459174 287.3088 
L 324.702149 287.3088 
L 309.945124 287.3088 
L 295.188099 287.3088 
L 280.431074 287.3088 
L 265.67405 287.3088 
L 250.917025 287.3088 
L 236.16 287.3088 
L 221.402975 287.3088 
L 206.64595 287.3088 
L 191.888926 287.3088 
L 177.131901 287.3088 
L 162.374876 287.3088 
L 147.617851 287.3088 
L 132.860826 287.3088 
L 118.103802 287.3088 
L 103.346777 287.3088 
L 88.589752 287.3088 
L 73.832727 287.3088 
z
" clip-path="url(#pf1aed881cc)" style="fill: #d62728"/>
   </g>
   <g id="PolyCollection_5">
    <path d="M 73.832727 282.24 
L 73.832727 287.3088 
L 88.589752 287.3088 
L 103.346777 287.3088 
L 118.103802 287.3088 
L 132.860826 287.3088 
L 147.617851 287.3088 
L 162.374876 287.3088 
L 177.131901 287.3088 
L 191.888926 287.3088 
L 206.64595 287.3088 
L 221.402975 287.3088 
L 236.16 287.3088 
L 250.917025 287.3088 
L 265.67405 287.3088 
L 280.431074 287.3088 
L 295.188099 287.3088 
L 309.945124 287.3088 
L 324.702149 287.3088 
L 339.459174 287.3088 
L 354.216198 287.3088 
L 368.973223 287.3088 
L 383.730248 287.3088 
L 398.487273 287.3088 
L 398.487273 282.24 
L 398.487273 282.24 
L 383.730248 282.24 
L 368.973223 282.24 
L 354.216198 282.24 
L 339.459174 282.24 
L 324.702149 282.24 
L 309.945124 282.24 
L 295.188099 282.24 
L 280.431074 282.24 
L 265.67405 282.24 
L 250.917025 282.24 
L 236.16 282.24 
L 221.402975 282.24 
L 206.64595 282.24 
L 191.888926 282.24 
L 177.131901 282.24 
L 162.374876 282.24 
L 147.617851 282.24 
L 132.860826 282.24 
L 118.103802 282.24 
L 103.346777 282.24 
L 88.589752 282.24 
L 73.832727 282.24 
z
" clip-path="url(#pf1aed881cc)" style="fill: #9467bd"/>
   </g>
   <g id="PolyCollection_6">
    <path d="M 73.832727 277.1712 
L 73.832727 282.24 
L 88.589752 282.24 
L 103.346777 282.24 
L 118.103802 282.24 
L 132.860826 282.24 
L 147.617851 282.24 
L 162.374876 282.24 
L 177.131901 282.24 
L 191.888926 282.24 
L 206.64595 282.24 
L 221.402975 282.24 
L 236.16 282.24 
L 250.917025 282.24 
L 265.67405 282.24 
L 280.431074 282.24 
L 295.188099 282.24 
L 309.945124 282.24 
L 324.702149 282.24 
L 339.459174 282.24 
L 354.216198 282.24 
L 368.973223 282.24 
L 383.730248 282.24 
L 398.487273 282.24 
L 398.487273 277.1712 
L 398.487273 277.1712 
L 383.730248 277.1712 
L 368.973223 277.1712 
L 354.216198 277.1712 
L 339.459174 277.1712 
L 324.702149 277.1712 
L 309.945124 277.1712 
L 295.188099 277.1712 
L 280.431074 277.1712 
L 265.67405 277.1712 
L 250.917025 277.1712 
L 236.16 277.1712 
L 221.402975 277.1712 
L 206.64595 277.1712 
L 191.888926 277.1712 
L 177.131901 277.1712 
L 162.374876 277.1712 
L 147.617851 277.1712 
L 132.860826 277.1712 
L 118.103802 277.1712 
L 103.346777 277.1712 
L 88.589752 277.1712 
L 73.832727 277.1712 
z
" clip-path="url(#pf1aed881cc)" style="fill: #8c564b"/>
   </g>
   <g id="PolyCollection_7">
    <path d="M 73.832727 272.1024 
L 73.832727 277.1712 
L 88.589752 277.1712 
L 103.346777 277.1712 
L 118.103802 277.1712 
L 132.860826 277.1712 
L 147.617851 277.1712 
L 162.374876 277.1712 
L 177.131901 277.1712 
L 191.888926 277.1712 
L 206.64595 277.1712 
L 221.402975 277.1712 
L 236.16 277.1712 
L 250.917025 277.1712 
L 265.67405 277.1712 
L 280.431074 277.1712 
L 295.188099 277.1712 
L 309.945124 277.1712 
L 324.702149 277.1712 
L 339.459174 277.1712 
L 354.216198 277.1712 
L 368.973223 277.1712 
L 383.730248 277.1712 
L 398.487273 277.1712 
L 398.487273 272.1024 
L 398.487273 272.1024 
L 383.730248 272.1024 
L 368.973223 272.1024 
L 354.216198 272.1024 
L 339.459174 272.1024 
L 324.702149 272.1024 
L 309.945124 272.1024 
L 295.188099 272.1024 
L 280.431074 272.1024 
L 265.67405 272.1024 
L 250.917025 272.1024 
L 236.16 272.1024 
L 221.402975 272.1024 
L 206.64595 272.1024 
L 191.888926 272.1024 
L 177.131901 272.1024 
L 162.374876 272.1024 
L 147.617851 272.1024 
L 132.860826 272.1024 
L 118.103802 272.1024 
L 103.346777 272.1024 
L 88.589752 272.1024 
L 73.832727 272.1024 
z
" clip-path="url(#pf1aed881cc)" style="fill: #e377c2"/>
   </g>
   <g id="PolyCollection_8">
    <path d="M 73.832727 267.0336 
L 73.832727 272.1024 
L 88.589752 272.1024 
L 103.346777 272.1024 
L 118.103802 272.1024 
L 132.860826 272.1024 
L 147.617851 272.1024 
L 162.374876 272.1024 
L 177.131901 272.1024 
L 191.888926 272.1024 
L 206.64595 272.1024 
L 221.402975 272.1024 
L 236.16 272.1024 
L 250.917025 272.1024 
L 265.67405 272.1024 
L 280.431074 272.1024 
L 295.188099 272.1024 
L 309.945124 272.1024 
L 324.702149 272.1024 
L 339.459174 272.1024 
L 354.216198 272.1024 
L 368.973223 272.1024 
L 383.730248 272.1024 
L 398.487273 272.1024 
L 398.487273 267.0336 
L 398.487273 267.0336 
L 383.730248 267.0336 
L 368.973223 267.0336 
L 354.216198 267.0336 
L 339.459174 267.0336 
L 324.702149 267.0336 
L 309.945124 267.0336 
L 295.188099 267.0336 
L 280.431074 267.0336 
L 265.67405 267.0336 
L 250.917025 267.0336 
L 236.16 267.0336 
L 221.402975 267.0336 
L 206.64595 267.0336 
L 191.888926 267.0336 
L 177.131901 267.0336 
L 162.374876 267.0336 
L 147.617851 267.0336 
L 132.860826 267.0336 
L 118.103802 267.0336 
L 103.346777 267.0336 
L 88.589752 267.0336 
L 73.832727 267.0336 
z
" clip-path="url(#pf1aed881cc)" style="fill: #7f7f7f"/>
   </g>
   <g id="PolyCollection_9">
    <path d="M 73.832727 261.9648 
L 73.832727 267.0336 
L 88.589752 267.0336 
L 103.346777 267.0336 
L 118.103802 267.0336 
L 132.860826 267.0336 
L 147.617851 267.0336 
L 162.374876 267.0336 
L 177.131901 267.0336 
L 191.888926 267.0336 
L 206.64595 267.0336 
L 221.402975 267.0336 
L 236.16 267.0336 
L 250.917025 267.0336 
L 265.67405 267.0336 
L 280.431074 267.0336 
L 295.188099 267.0336 
L 309.945124 267.0336 
L 324.702149 267.0336 
L 339.459174 267.0336 
L 354.216198 267.0336 
L 368.973223 267.0336 
L 383.730248 267.0336 
L 398.487273 267.0336 
L 398.487273 261.9648 
L 398.487273 261.9648 
L 383.730248 261.9648 
L 368.973223 261.9648 
L 354.216198 261.9648 
L 339.459174 261.9648 
L 324.702149 261.9648 
L 309.945124 261.9648 
L 295.188099 261.9648 
L 280.431074 261.9648 
L 265.67405 261.9648 
L 250.917025 261.9648 
L 236.16 261.9648 
L 221.402975 261.9648 
L 206.64595 261.9648 
L 191.888926 261.9648 
L 177.131901 261.9648 
L 162.374876 261.9648 
L 147.617851 261.9648 
L 132.860826 261.9648 
L 118.103802 261.9648 
L 103.346777 261.9648 
L 88.589752 261.9648 
L 73.832727 261.9648 
z
" clip-path="url(#pf1aed881cc)" style="fill: #bcbd22"/>
   </g>
   <g id="PolyCollection_10">
    <path d="M 73.832727 256.896 
L 73.832727 261.9648 
L 88.589752 261.9648 
L 103.346777 261.9648 
L 118.103802 261.9648 
L 132.860826 261.9648 
L 147.617851 261.9648 
L 162.374876 261.9648 
L 177.131901 261.9648 
L 191.888926 261.9648 
L 206.64595 261.9648 
L 221.402975 261.9648 
L 236.16 261.9648 
L 250.917025 261.9648 
L 265.67405 261.9648 
L 280.431074 261.9648 
L 295.188099 261.9648 
L 309.945124 261.9648 
L 324.702149 261.9648 
L 339.459174 261.9648 
L 354.216198 261.9648 
L 368.973223 261.9648 
L 383.730248 261.9648 
L 398.487273 261.9648 
L 398.487273 261.9648 
L 398.487273 261.9648 
L 383.730248 261.9648 
L 368.973223 256.896 
L 354.216198 256.896 
L 339.459174 256.896 
L 324.702149 256.896 
L 309.945124 256.896 
L 295.188099 256.896 
L 280.431074 256.896 
L 265.67405 256.896 
L 250.917025 256.896 
L 236.16 256.896 
L 221.402975 256.896 
L 206.64595 256.896 
L 191.888926 256.896 
L 177.131901 256.896 
L 162.374876 256.896 
L 147.617851 256.896 
L 132.860826 256.896 
L 118.103802 256.896 
L 103.346777 256.896 
L 88.589752 256.896 
L 73.832727 256.896 
z
" clip-path="url(#pf1aed881cc)" style="fill: #17becf"/>
   </g>
   <g id="PolyCollection_11">
    <path d="M 73.832727 251.8272 
L 73.832727 256.896 
L 88.589752 256.896 
L 103.346777 256.896 
L 118.103802 256.896 
L 132.860826 256.896 
L 147.617851 256.896 
L 162.374876 256.896 
L 177.131901 256.896 
L 191.888926 256.896 
L 206.64595 256.896 
L 221.402975 256.896 
L 236.16 256.896 
L 250.917025 256.896 
L 265.67405 256.896 
L 280.431074 256.896 
L 295.188099 256.896 
L 309.945124 256.896 
L 324.702149 256.896 
L 339.459174 256.896 
L 354.216198 256.896 
L 368.973223 256.896 
L 383.730248 261.9648 
L 398.487273 261.9648 
L 398.487273 256.896 
L 398.487273 256.896 
L 383.730248 256.896 
L 368.973223 251.8272 
L 354.216198 251.8272 
L 339.459174 251.8272 
L 324.702149 251.8272 
L 309.945124 251.8272 
L 295.188099 251.8272 
L 280.431074 251.8272 
L 265.67405 251.8272 
L 250.917025 251.8272 
L 236.16 251.8272 
L 221.402975 251.8272 
L 206.64595 251.8272 
L 191.888926 251.8272 
L 177.131901 251.8272 
L 162.374876 251.8272 
L 147.617851 251.8272 
L 132.860826 251.8272 
L 118.103802 251.8272 
L 103.346777 251.8272 
L 88.589752 251.8272 
L 73.832727 251.8272 
z
" clip-path="url(#pf1aed881cc)" style="fill: #1f77b4"/>
   </g>
   <g id="PolyCollection_12">
    <path d="M 73.832727 246.7584 
L 73.832727 251.8272 
L 88.589752 251.8272 
L 103.346777 251.8272 
L 118.103802 251.8272 
L 132.860826 251.8272 
L 147.617851 251.8272 
L 162.374876 251.8272 
L 177.131901 251.8272 
L 191.888926 251.8272 
L 206.64595 251.8272 
L 221.402975 251.8272 
L 236.16 251.8272 
L 250.917025 251.8272 
L 265.67405 251.8272 
L 280.431074 251.8272 
L 295.188099 251.8272 
L 309.945124 251.8272 
L 324.702149 251.8272 
L 339.459174 251.8272 
L 354.216198 251.8272 
L 368.973223 251.8272 
L 383.730248 256.896 
L 398.487273 256.896 
L 398.487273 251.8272 
L 398.487273 251.8272 
L 383.730248 251.8272 
L 368.973223 246.7584 
L 354.216198 246.7584 
L 339.459174 246.7584 
L 324.702149 246.7584 
L 309.945124 246.7584 
L 295.188099 246.7584 
L 280.431074 246.7584 
L 265.67405 246.7584 
L 250.917025 246.7584 
L 236.16 246.7584 
L 221.402975 246.7584 
L 206.64595 246.7584 
L 191.888926 246.7584 
L 177.131901 246.7584 
L 162.374876 246.7584 
L 147.617851 246.7584 
L 132.860826 246.7584 
L 118.103802 246.7584 
L 103.346777 246.7584 
L 88.589752 246.7584 
L 73.832727 246.7584 
z
" clip-path="url(#pf1aed881cc)" style="fill: #ff7f0e"/>
   </g>
   <g id="PolyCollection_13">
    <path d="M 73.832727 241.6896 
L 73.832727 246.7584 
L 88.589752 246.7584 
L 103.346777 246.7584 
L 118.103802 246.7584 
L 132.860826 246.7584 
L 147.617851 246.7584 
L 162.374876 246.7584 
L 177.131901 246.7584 
L 191.888926 246.7584 
L 206.64595 246.7584 
L 221.402975 246.7584 
L 236.16 246.7584 
L 250.917025 246.7584 
L 265.67405 246.7584 
L 280.431074 246.7584 
L 295.188099 246.7584 
L 309.945124 246.7584 
L 324.702149 246.7584 
L 339.459174 246.7584 
L 354.216198 246.7584 
L 368.973223 246.7584 
L 383.730248 251.8272 
L 398.487273 251.8272 
L 398.487273 246.7584 
L 398.487273 246.7584 
L 383.730248 246.7584 
L 368.973223 241.6896 
L 354.216198 241.6896 
L 339.459174 241.6896 
L 324.702149 241.6896 
L 309.945124 241.6896 
L 295.188099 241.6896 
L 280.431074 241.6896 
L 265.67405 241.6896 
L 250.917025 241.6896 
L 236.16 241.6896 
L 221.402975 241.6896 
L 206.64595 241.6896 
L 191.888926 241.6896 
L 177.131901 241.6896 
L 162.374876 241.6896 
L 147.617851 241.6896 
L 132.860826 241.6896 
L 118.103802 241.6896 
L 103.346777 241.6896 
L 88.589752 241.6896 
L 73.832727 241.6896 
z
" clip-path="url(#pf1aed881cc)" style="fill: #2ca02c"/>
   </g>
   <g id="PolyCollection_14">
    <path d="M 73.832727 236.6208 
L 73.832727 241.6896 
L 88.589752 241.6896 
L 103.346777 241.6896 
L 118.103802 241.6896 
L 132.860826 241.6896 
L 147.617851 241.6896 
L 162.374876 241.6896 
L 177.131901 241.6896 
L 191.888926 241.6896 
L 206.64595 241.6896 
L 221.402975 241.6896 
L 236.16 241.6896 
L 250.917025 241.6896 
L 265.67405 241.6896 
L 280.431074 241.6896 
L 295.188099 241.6896 
L 309.945124 241.6896 
L 324.702149 241.6896 
L 339.459174 241.6896 
L 354.216198 241.6896 
L 368.973223 241.6896 
L 383.730248 246.7584 
L 398.487273 246.7584 
L 398.487273 241.6896 
L 398.487273 241.6896 
L 383.730248 241.6896 
L 368.973223 236.6208 
L 354.216198 236.6208 
L 339.459174 236.6208 
L 324.702149 236.6208 
L 309.945124 236.6208 
L 295.188099 236.6208 
L 280.431074 236.6208 
L 265.67405 236.6208 
L 250.917025 236.6208 
L 236.16 236.6208 
L 221.402975 236.6208 
L 206.64595 236.6208 
L 191.888926 236.6208 
L 177.131901 236.6208 
L 162.374876 236.6208 
L 147.617851 236.6208 
L 132.860826 236.6208 
L 118.103802 236.6208 
L 103.346777 236.6208 
L 88.589752 236.6208 
L 73.832727 236.6208 
z
" clip-path="url(#pf1aed881cc)" style="fill: #d62728"/>
   </g>
   <g id="PolyCollection_15">
    <path d="M 73.832727 231.552 
L 73.832727 236.6208 
L 88.589752 236.6208 
L 103.346777 236.6208 
L 118.103802 236.6208 
L 132.860826 236.6208 
L 147.617851 236.6208 
L 162.374876 236.6208 
L 177.131901 236.6208 
L 191.888926 236.6208 
L 206.64595 236.6208 
L 221.402975 236.6208 
L 236.16 236.6208 
L 250.917025 236.6208 
L 265.67405 236.6208 
L 280.431074 236.6208 
L 295.188099 236.6208 
L 309.945124 236.6208 
L 324.702149 236.6208 
L 339.459174 236.6208 
L 354.216198 236.6208 
L 368.973223 236.6208 
L 383.730248 241.6896 
L 398.487273 241.6896 
L 398.487273 236.6208 
L 398.487273 236.6208 
L 383.730248 236.6208 
L 368.973223 231.552 
L 354.216198 231.552 
L 339.459174 231.552 
L 324.702149 231.552 
L 309.945124 231.552 
L 295.188099 231.552 
L 280.431074 231.552 
L 265.67405 231.552 
L 250.917025 231.552 
L 236.16 231.552 
L 221.402975 231.552 
L 206.64595 231.552 
L 191.888926 231.552 
L 177.131901 231.552 
L 162.374876 231.552 
L 147.617851 231.552 
L 132.860826 231.552 
L 118.103802 231.552 
L 103.346777 231.552 
L 88.589752 231.552 
L 73.832727 231.552 
z
" clip-path="url(#pf1aed881cc)" style="fill: #9467bd"/>
   </g>
   <g id="PolyCollection_16">
    <path d="M 73.832727 226.4832 
L 73.832727 231.552 
L 88.589752 231.552 
L 103.346777 231.552 
L 118.103802 231.552 
L 132.860826 231.552 
L 147.617851 231.552 
L 162.374876 231.552 
L 177.131901 231.552 
L 191.888926 231.552 
L 206.64595 231.552 
L 221.402975 231.552 
L 236.16 231.552 
L 250.917025 231.552 
L 265.67405 231.552 
L 280.431074 231.552 
L 295.188099 231.552 
L 309.945124 231.552 
L 324.702149 231.552 
L 339.459174 231.552 
L 354.216198 231.552 
L 368.973223 231.552 
L 383.730248 236.6208 
L 398.487273 236.6208 
L 398.487273 236.6208 
L 398.487273 236.6208 
L 383.730248 231.552 
L 368.973223 226.4832 
L 354.216198 226.4832 
L 339.459174 226.4832 
L 324.702149 226.4832 
L 309.945124 226.4832 
L 295.188099 226.4832 
L 280.431074 226.4832 
L 265.67405 226.4832 
L 250.917025 226.4832 
L 236.16 226.4832 
L 221.402975 226.4832 
L 206.64595 226.4832 
L 191.888926 226.4832 
L 177.131901 226.4832 
L 162.374876 226.4832 
L 147.617851 226.4832 
L 132.860826 226.4832 
L 118.103802 226.4832 
L 103.346777 226.4832 
L 88.589752 226.4832 
L 73.832727 226.4832 
z
" clip-path="url(#pf1aed881cc)" style="fill: #8c564b"/>
   </g>
   <g id="PolyCollection_17">
    <path d="M 73.832727 221.4144 
L 73.832727 226.4832 
L 88.589752 226.4832 
L 103.346777 226.4832 
L 118.103802 226.4832 
L 132.860826 226.4832 
L 147.617851 226.4832 
L 162.374876 226.4832 
L 177.131901 226.4832 
L 191.888926 226.4832 
L 206.64595 226.4832 
L 221.402975 226.4832 
L 236.16 226.4832 
L 250.917025 226.4832 
L 265.67405 226.4832 
L 280.431074 226.4832 
L 295.188099 226.4832 
L 309.945124 226.4832 
L 324.702149 226.4832 
L 339.459174 226.4832 
L 354.216198 226.4832 
L 368.973223 226.4832 
L 383.730248 231.552 
L 398.487273 236.6208 
L 398.487273 231.552 
L 398.487273 231.552 
L 383.730248 226.4832 
L 368.973223 221.4144 
L 354.216198 221.4144 
L 339.459174 221.4144 
L 324.702149 221.4144 
L 309.945124 221.4144 
L 295.188099 221.4144 
L 280.431074 221.4144 
L 265.67405 221.4144 
L 250.917025 221.4144 
L 236.16 221.4144 
L 221.402975 221.4144 
L 206.64595 221.4144 
L 191.888926 221.4144 
L 177.131901 221.4144 
L 162.374876 221.4144 
L 147.617851 221.4144 
L 132.860826 221.4144 
L 118.103802 221.4144 
L 103.346777 221.4144 
L 88.589752 221.4144 
L 73.832727 221.4144 
z
" clip-path="url(#pf1aed881cc)" style="fill: #e377c2"/>
   </g>
   <g id="PolyCollection_18">
    <path d="M 73.832727 216.3456 
L 73.832727 221.4144 
L 88.589752 221.4144 
L 103.346777 221.4144 
L 118.103802 221.4144 
L 132.860826 221.4144 
L 147.617851 221.4144 
L 162.374876 221.4144 
L 177.131901 221.4144 
L 191.888926 221.4144 
L 206.64595 221.4144 
L 221.402975 221.4144 
L 236.16 221.4144 
L 250.917025 221.4144 
L 265.67405 221.4144 
L 280.431074 221.4144 
L 295.188099 221.4144 
L 309.945124 221.4144 
L 324.702149 221.4144 
L 339.459174 221.4144 
L 354.216198 221.4144 
L 368.973223 221.4144 
L 383.730248 226.4832 
L 398.487273 231.552 
L 398.487273 226.4832 
L 398.487273 226.4832 
L 383.730248 221.4144 
L 368.973223 216.3456 
L 354.216198 216.3456 
L 339.459174 216.3456 
L 324.702149 216.3456 
L 309.945124 216.3456 
L 295.188099 216.3456 
L 280.431074 216.3456 
L 265.67405 216.3456 
L 250.917025 216.3456 
L 236.16 216.3456 
L 221.402975 216.3456 
L 206.64595 216.3456 
L 191.888926 216.3456 
L 177.131901 216.3456 
L 162.374876 216.3456 
L 147.617851 216.3456 
L 132.860826 216.3456 
L 118.103802 216.3456 
L 103.346777 216.3456 
L 88.589752 216.3456 
L 73.832727 216.3456 
z
" clip-path="url(#pf1aed881cc)" style="fill: #7f7f7f"/>
   </g>
   <g id="PolyCollection_19">
    <path d="M 73.832727 211.2768 
L 73.832727 216.3456 
L 88.589752 216.3456 
L 103.346777 216.3456 
L 118.103802 216.3456 
L 132.860826 216.3456 
L 147.617851 216.3456 
L 162.374876 216.3456 
L 177.131901 216.3456 
L 191.888926 216.3456 
L 206.64595 216.3456 
L 221.402975 216.3456 
L 236.16 216.3456 
L 250.917025 216.3456 
L 265.67405 216.3456 
L 280.431074 216.3456 
L 295.188099 216.3456 
L 309.945124 216.3456 
L 324.702149 216.3456 
L 339.459174 216.3456 
L 354.216198 216.3456 
L 368.973223 216.3456 
L 383.730248 221.4144 
L 398.487273 226.4832 
L 398.487273 221.4144 
L 398.487273 221.4144 
L 383.730248 216.3456 
L 368.973223 211.2768 
L 354.216198 211.2768 
L 339.459174 211.2768 
L 324.702149 211.2768 
L 309.945124 211.2768 
L 295.188099 211.2768 
L 280.431074 211.2768 
L 265.67405 211.2768 
L 250.917025 211.2768 
L 236.16 211.2768 
L 221.402975 211.2768 
L 206.64595 211.2768 
L 191.888926 211.2768 
L 177.131901 211.2768 
L 162.374876 211.2768 
L 147.617851 211.2768 
L 132.860826 211.2768 
L 118.103802 211.2768 
L 103.346777 211.2768 
L 88.589752 211.2768 
L 73.832727 211.2768 
z
" clip-path="url(#pf1aed881cc)" style="fill: #bcbd22"/>
   </g>
   <g id="PolyCollection_20">
    <path d="M 73.832727 206.208 
L 73.832727 211.2768 
L 88.589752 211.2768 
L 103.346777 211.2768 
L 118.103802 211.2768 
L 132.860826 211.2768 
L 147.617851 211.2768 
L 162.374876 211.2768 
L 177.131901 211.2768 
L 191.888926 211.2768 
L 206.64595 211.2768 
L 221.402975 211.2768 
L 236.16 211.2768 
L 250.917025 211.2768 
L 265.67405 211.2768 
L 280.431074 211.2768 
L 295.188099 211.2768 
L 309.945124 211.2768 
L 324.702149 211.2768 
L 339.459174 211.2768 
L 354.216198 211.2768 
L 368.973223 211.2768 
L 383.730248 216.3456 
L 398.487273 221.4144 
L 398.487273 216.3456 
L 398.487273 216.3456 
L 383.730248 211.2768 
L 368.973223 206.208 
L 354.216198 206.208 
L 339.459174 206.208 
L 324.702149 206.208 
L 309.945124 206.208 
L 295.188099 206.208 
L 280.431074 206.208 
L 265.67405 206.208 
L 250.917025 206.208 
L 236.16 206.208 
L 221.402975 206.208 
L 206.64595 206.208 
L 191.888926 206.208 
L 177.131901 206.208 
L 162.374876 206.208 
L 147.617851 206.208 
L 132.860826 206.208 
L 118.103802 206.208 
L 103.346777 206.208 
L 88.589752 206.208 
L 73.832727 206.208 
z
" clip-path="url(#pf1aed881cc)" style="fill: #17becf"/>
   </g>
   <g id="PolyCollection_21">
    <path d="M 73.832727 201.1392 
L 73.832727 206.208 
L 88.589752 206.208 
L 103.346777 206.208 
L 118.103802 206.208 
L 132.860826 206.208 
L 147.617851 206.208 
L 162.374876 206.208 
L 177.131901 206.208 
L 191.888926 206.208 
L 206.64595 206.208 
L 221.402975 206.208 
L 236.16 206.208 
L 250.917025 206.208 
L 265.67405 206.208 
L 280.431074 206.208 
L 295.188099 206.208 
L 309.945124 206.208 
L 324.702149 206.208 
L 339.459174 206.208 
L 354.216198 206.208 
L 368.973223 206.208 
L 383.730248 211.2768 
L 398.487273 216.3456 
L 398.487273 211.2768 
L 398.487273 211.2768 
L 383.730248 206.208 
L 368.973223 201.1392 
L 354.216198 201.1392 
L 339.459174 201.1392 
L 324.702149 201.1392 
L 309.945124 201.1392 
L 295.188099 201.1392 
L 280.431074 201.1392 
L 265.67405 201.1392 
L 250.917025 201.1392 
L 236.16 201.1392 
L 221.402975 201.1392 
L 206.64595 201.1392 
L 191.888926 201.1392 
L 177.131901 201.1392 
L 162.374876 201.1392 
L 147.617851 201.1392 
L 132.860826 201.1392 
L 118.103802 201.1392 
L 103.346777 201.1392 
L 88.589752 201.1392 
L 73.832727 201.1392 
z
" clip-path="url(#pf1aed881cc)" style="fill: #1f77b4"/>
   </g>
   <g id="PolyCollection_22">
    <path d="M 73.832727 196.0704 
L 73.832727 201.1392 
L 88.589752 201.1392 
L 103.346777 201.1392 
L 118.103802 201.1392 
L 132.860826 201.1392 
L 147.617851 201.1392 
L 162.374876 201.1392 
L 177.131901 201.1392 
L 191.888926 201.1392 
L 206.64595 201.1392 
L 221.402975 201.1392 
L 236.16 201.1392 
L 250.917025 201.1392 
L 265.67405 201.1392 
L 280.431074 201.1392 
L 295.188099 201.1392 
L 309.945124 201.1392 
L 324.702149 201.1392 
L 339.459174 201.1392 
L 354.216198 201.1392 
L 368.973223 201.1392 
L 383.730248 206.208 
L 398.487273 211.2768 
L 398.487273 206.208 
L 398.487273 206.208 
L 383.730248 201.1392 
L 368.973223 196.0704 
L 354.216198 196.0704 
L 339.459174 196.0704 
L 324.702149 196.0704 
L 309.945124 196.0704 
L 295.188099 196.0704 
L 280.431074 196.0704 
L 265.67405 196.0704 
L 250.917025 196.0704 
L 236.16 196.0704 
L 221.402975 196.0704 
L 206.64595 196.0704 
L 191.888926 196.0704 
L 177.131901 196.0704 
L 162.374876 196.0704 
L 147.617851 196.0704 
L 132.860826 196.0704 
L 118.103802 196.0704 
L 103.346777 196.0704 
L 88.589752 196.0704 
L 73.832727 196.0704 
z
" clip-path="url(#pf1aed881cc)" style="fill: #ff7f0e"/>
   </g>
   <g id="PolyCollection_23">
    <path d="M 73.832727 191.0016 
L 73.832727 196.0704 
L 88.589752 196.0704 
L 103.346777 196.0704 
L 118.103802 196.0704 
L 132.860826 196.0704 
L 147.617851 196.0704 
L 162.374876 196.0704 
L 177.131901 196.0704 
L 191.888926 196.0704 
L 206.64595 196.0704 
L 221.402975 196.0704 
L 236.16 196.0704 
L 250.917025 196.0704 
L 265.67405 196.0704 
L 280.431074 196.0704 
L 295.188099 196.0704 
L 309.945124 196.0704 
L 324.702149 196.0704 
L 339.459174 196.0704 
L 354.216198 196.0704 
L 368.973223 196.0704 
L 383.730248 201.1392 
L 398.487273 206.208 
L 398.487273 201.1392 
L 398.487273 201.1392 
L 383.730248 196.0704 
L 368.973223 191.0016 
L 354.216198 191.0016 
L 339.459174 191.0016 
L 324.702149 191.0016 
L 309.945124 191.0016 
L 295.188099 191.0016 
L 280.431074 191.0016 
L 265.67405 191.0016 
L 250.917025 191.0016 
L 236.16 191.0016 
L 221.402975 191.0016 
L 206.64595 191.0016 
L 191.888926 191.0016 
L 177.131901 191.0016 
L 162.374876 191.0016 
L 147.617851 191.0016 
L 132.860826 191.0016 
L 118.103802 191.0016 
L 103.346777 191.0016 
L 88.589752 191.0016 
L 73.832727 191.0016 
z
" clip-path="url(#pf1aed881cc)" style="fill: #2ca02c"/>
   </g>
   <g id="PolyCollection_24">
    <path d="M 73.832727 185.9328 
L 73.832727 191.0016 
L 88.589752 191.0016 
L 103.346777 191.0016 
L 118.103802 191.0016 
L 132.860826 191.0016 
L 147.617851 191.0016 
L 162.374876 191.0016 
L 177.131901 191.0016 
L 191.888926 191.0016 
L 206.64595 191.0016 
L 221.402975 191.0016 
L 236.16 191.0016 
L 250.917025 191.0016 
L 265.67405 191.0016 
L 280.431074 191.0016 
L 295.188099 191.0016 
L 309.945124 191.0016 
L 324.702149 191.0016 
L 339.459174 191.0016 
L 354.216198 191.0016 
L 368.973223 191.0016 
L 383.730248 196.0704 
L 398.487273 201.1392 
L 398.487273 201.1392 
L 398.487273 201.1392 
L 383.730248 191.0016 
L 368.973223 185.9328 
L 354.216198 185.9328 
L 339.459174 185.9328 
L 324.702149 185.9328 
L 309.945124 185.9328 
L 295.188099 185.9328 
L 280.431074 185.9328 
L 265.67405 185.9328 
L 250.917025 185.9328 
L 236.16 185.9328 
L 221.402975 185.9328 
L 206.64595 185.9328 
L 191.888926 185.9328 
L 177.131901 185.9328 
L 162.374876 185.9328 
L 147.617851 185.9328 
L 132.860826 185.9328 
L 118.103802 185.9328 
L 103.346777 185.9328 
L 88.589752 185.9328 
L 73.832727 185.9328 
z
" clip-path="url(#pf1aed881cc)" style="fill: #d62728"/>
   </g>
   <g id="PolyCollection_25">
    <path d="M 73.832727 180.864 
L 73.832727 185.9328 
L 88.589752 185.9328 
L 103.346777 185.9328 
L 118.103802 185.9328 
L 132.860826 185.9328 
L 147.617851 185.9328 
L 162.374876 185.9328 
L 177.131901 185.9328 
L 191.888926 185.9328 
L 206.64595 185.9328 
L 221.402975 185.9328 
L 236.16 185.9328 
L 250.917025 185.9328 
L 265.67405 185.9328 
L 280.431074 185.9328 
L 295.188099 185.9328 
L 309.945124 185.9328 
L 324.702149 185.9328 
L 339.459174 185.9328 
L 354.216198 185.9328 
L 368.973223 185.9328 
L 383.730248 191.0016 
L 398.487273 201.1392 
L 398.487273 196.0704 
L 398.487273 196.0704 
L 383.730248 185.9328 
L 368.973223 180.864 
L 354.216198 180.864 
L 339.459174 180.864 
L 324.702149 180.864 
L 309.945124 180.864 
L 295.188099 180.864 
L 280.431074 180.864 
L 265.67405 180.864 
L 250.917025 180.864 
L 236.16 180.864 
L 221.402975 180.864 
L 206.64595 180.864 
L 191.888926 180.864 
L 177.131901 180.864 
L 162.374876 180.864 
L 147.617851 180.864 
L 132.860826 180.864 
L 118.103802 180.864 
L 103.346777 180.864 
L 88.589752 180.864 
L 73.832727 180.864 
z
" clip-path="url(#pf1aed881cc)" style="fill: #9467bd"/>
   </g>
   <g id="PolyCollection_26">
    <path d="M 73.832727 175.7952 
L 73.832727 180.864 
L 88.589752 180.864 
L 103.346777 180.864 
L 118.103802 180.864 
L 132.860826 180.864 
L 147.617851 180.864 
L 162.374876 180.864 
L 177.131901 180.864 
L 191.888926 180.864 
L 206.64595 180.864 
L 221.402975 180.864 
L 236.16 180.864 
L 250.917025 180.864 
L 265.67405 180.864 
L 280.431074 180.864 
L 295.188099 180.864 
L 309.945124 180.864 
L 324.702149 180.864 
L 339.459174 180.864 
L 354.216198 180.864 
L 368.973223 180.864 
L 383.730248 185.9328 
L 398.487273 196.0704 
L 398.487273 191.0016 
L 398.487273 191.0016 
L 383.730248 180.864 
L 368.973223 175.7952 
L 354.216198 175.7952 
L 339.459174 175.7952 
L 324.702149 175.7952 
L 309.945124 175.7952 
L 295.188099 175.7952 
L 280.431074 175.7952 
L 265.67405 175.7952 
L 250.917025 175.7952 
L 236.16 175.7952 
L 221.402975 175.7952 
L 206.64595 175.7952 
L 191.888926 175.7952 
L 177.131901 175.7952 
L 162.374876 175.7952 
L 147.617851 175.7952 
L 132.860826 175.7952 
L 118.103802 175.7952 
L 103.346777 175.7952 
L 88.589752 175.7952 
L 73.832727 175.7952 
z
" clip-path="url(#pf1aed881cc)" style="fill: #8c564b"/>
   </g>
   <g id="PolyCollection_27">
    <path d="M 73.832727 170.7264 
L 73.832727 175.7952 
L 88.589752 175.7952 
L 103.346777 175.7952 
L 118.103802 175.7952 
L 132.860826 175.7952 
L 147.617851 175.7952 
L 162.374876 175.7952 
L 177.131901 175.7952 
L 191.888926 175.7952 
L 206.64595 175.7952 
L 221.402975 175.7952 
L 236.16 175.7952 
L 250.917025 175.7952 
L 265.67405 175.7952 
L 280.431074 175.7952 
L 295.188099 175.7952 
L 309.945124 175.7952 
L 324.702149 175.7952 
L 339.459174 175.7952 
L 354.216198 175.7952 
L 368.973223 175.7952 
L 383.730248 180.864 
L 398.487273 191.0016 
L 398.487273 185.9328 
L 398.487273 185.9328 
L 383.730248 175.7952 
L 368.973223 170.7264 
L 354.216198 170.7264 
L 339.459174 170.7264 
L 324.702149 170.7264 
L 309.945124 170.7264 
L 295.188099 170.7264 
L 280.431074 170.7264 
L 265.67405 170.7264 
L 250.917025 170.7264 
L 236.16 170.7264 
L 221.402975 170.7264 
L 206.64595 170.7264 
L 191.888926 170.7264 
L 177.131901 170.7264 
L 162.374876 170.7264 
L 147.617851 170.7264 
L 132.860826 170.7264 
L 118.103802 170.7264 
L 103.346777 170.7264 
L 88.589752 170.7264 
L 73.832727 170.7264 
z
" clip-path="url(#pf1aed881cc)" style="fill: #e377c2"/>
   </g>
   <g id="PolyCollection_28">
    <path d="M 73.832727 165.6576 
L 73.832727 170.7264 
L 88.589752 170.7264 
L 103.346777 170.7264 
L 118.103802 170.7264 
L 132.860826 170.7264 
L 147.617851 170.7264 
L 162.374876 170.7264 
L 177.131901 170.7264 
L 191.888926 170.7264 
L 206.64595 170.7264 
L 221.402975 170.7264 
L 236.16 170.7264 
L 250.917025 170.7264 
L 265.67405 170.7264 
L 280.431074 170.7264 
L 295.188099 170.7264 
L 309.945124 170.7264 
L 324.702149 170.7264 
L 339.459174 170.7264 
L 354.216198 170.7264 
L 368.973223 170.7264 
L 383.730248 175.7952 
L 398.487273 185.9328 
L 398.487273 185.9328 
L 398.487273 185.9328 
L 383.730248 170.7264 
L 368.973223 165.6576 
L 354.216198 165.6576 
L 339.459174 165.6576 
L 324.702149 165.6576 
L 309.945124 165.6576 
L 295.188099 165.6576 
L 280.431074 165.6576 
L 265.67405 165.6576 
L 250.917025 165.6576 
L 236.16 165.6576 
L 221.402975 165.6576 
L 206.64595 165.6576 
L 191.888926 165.6576 
L 177.131901 165.6576 
L 162.374876 165.6576 
L 147.617851 165.6576 
L 132.860826 165.6576 
L 118.103802 165.6576 
L 103.346777 165.6576 
L 88.589752 165.6576 
L 73.832727 165.6576 
z
" clip-path="url(#pf1aed881cc)" style="fill: #7f7f7f"/>
   </g>
   <g id="PolyCollection_29">
    <path d="M 73.832727 160.5888 
L 73.832727 165.6576 
L 88.589752 165.6576 
L 103.346777 165.6576 
L 118.103802 165.6576 
L 132.860826 165.6576 
L 147.617851 165.6576 
L 162.374876 165.6576 
L 177.131901 165.6576 
L 191.888926 165.6576 
L 206.64595 165.6576 
L 221.402975 165.6576 
L 236.16 165.6576 
L 250.917025 165.6576 
L 265.67405 165.6576 
L 280.431074 165.6576 
L 295.188099 165.6576 
L 309.945124 165.6576 
L 324.702149 165.6576 
L 339.459174 165.6576 
L 354.216198 165.6576 
L 368.973223 165.6576 
L 383.730248 170.7264 
L 398.487273 185.9328 
L 398.487273 180.864 
L 398.487273 180.864 
L 383.730248 165.6576 
L 368.973223 160.5888 
L 354.216198 160.5888 
L 339.459174 160.5888 
L 324.702149 160.5888 
L 309.945124 160.5888 
L 295.188099 160.5888 
L 280.431074 160.5888 
L 265.67405 160.5888 
L 250.917025 160.5888 
L 236.16 160.5888 
L 221.402975 160.5888 
L 206.64595 160.5888 
L 191.888926 160.5888 
L 177.131901 160.5888 
L 162.374876 160.5888 
L 147.617851 160.5888 
L 132.860826 160.5888 
L 118.103802 160.5888 
L 103.346777 160.5888 
L 88.589752 160.5888 
L 73.832727 160.5888 
z
" clip-path="url(#pf1aed881cc)" style="fill: #bcbd22"/>
   </g>
   <g id="PolyCollection_30">
    <path d="M 73.832727 155.52 
L 73.832727 160.5888 
L 88.589752 160.5888 
L 103.346777 160.5888 
L 118.103802 160.5888 
L 132.860826 160.5888 
L 147.617851 160.5888 
L 162.374876 160.5888 
L 177.131901 160.5888 
L 191.888926 160.5888 
L 206.64595 160.5888 
L 221.402975 160.5888 
L 236.16 160.5888 
L 250.917025 160.5888 
L 265.67405 160.5888 
L 280.431074 160.5888 
L 295.188099 160.5888 
L 309.945124 160.5888 
L 324.702149 160.5888 
L 339.459174 160.5888 
L 354.216198 160.5888 
L 368.973223 160.5888 
L 383.730248 165.6576 
L 398.487273 180.864 
L 398.487273 175.7952 
L 398.487273 175.7952 
L 383.730248 160.5888 
L 368.973223 155.52 
L 354.216198 155.52 
L 339.459174 155.52 
L 324.702149 155.52 
L 309.945124 155.52 
L 295.188099 155.52 
L 280.431074 155.52 
L 265.67405 155.52 
L 250.917025 155.52 
L 236.16 155.52 
L 221.402975 155.52 
L 206.64595 155.52 
L 191.888926 155.52 
L 177.131901 155.52 
L 162.374876 155.52 
L 147.617851 155.52 
L 132.860826 155.52 
L 118.103802 155.52 
L 103.346777 155.52 
L 88.589752 155.52 
L 73.832727 155.52 
z
" clip-path="url(#pf1aed881cc)" style="fill: #17becf"/>
   </g>
   <g id="PolyCollection_31">
    <path d="M 73.832727 150.4512 
L 73.832727 155.52 
L 88.589752 155.52 
L 103.346777 155.52 
L 118.103802 155.52 
L 132.860826 155.52 
L 147.617851 155.52 
L 162.374876 155.52 
L 177.131901 155.52 
L 191.888926 155.52 
L 206.64595 155.52 
L 221.402975 155.52 
L 236.16 155.52 
L 250.917025 155.52 
L 265.67405 155.52 
L 280.431074 155.52 
L 295.188099 155.52 
L 309.945124 155.52 
L 324.702149 155.52 
L 339.459174 155.52 
L 354.216198 155.52 
L 368.973223 155.52 
L 383.730248 160.5888 
L 398.487273 175.7952 
L 398.487273 170.7264 
L 398.487273 170.7264 
L 383.730248 155.52 
L 368.973223 150.4512 
L 354.216198 150.4512 
L 339.459174 150.4512 
L 324.702149 150.4512 
L 309.945124 150.4512 
L 295.188099 150.4512 
L 280.431074 150.4512 
L 265.67405 150.4512 
L 250.917025 150.4512 
L 236.16 150.4512 
L 221.402975 150.4512 
L 206.64595 150.4512 
L 191.888926 150.4512 
L 177.131901 150.4512 
L 162.374876 150.4512 
L 147.617851 150.4512 
L 132.860826 150.4512 
L 118.103802 150.4512 
L 103.346777 150.4512 
L 88.589752 150.4512 
L 73.832727 150.4512 
z
" clip-path="url(#pf1aed881cc)" style="fill: #1f77b4"/>
   </g>
   <g id="PolyCollection_32">
    <path d="M 73.832727 145.3824 
L 73.832727 150.4512 
L 88.589752 150.4512 
L 103.346777 150.4512 
L 118.103802 150.4512 
L 132.860826 150.4512 
L 147.617851 150.4512 
L 162.374876 150.4512 
L 177.131901 150.4512 
L 191.888926 150.4512 
L 206.64595 150.4512 
L 221.402975 150.4512 
L 236.16 150.4512 
L 250.917025 150.4512 
L 265.67405 150.4512 
L 280.431074 150.4512 
L 295.188099 150.4512 
L 309.945124 150.4512 
L 324.702149 150.4512 
L 339.459174 150.4512 
L 354.216198 150.4512 
L 368.973223 150.4512 
L 383.730248 155.52 
L 398.487273 170.7264 
L 398.487273 165.6576 
L 398.487273 165.6576 
L 383.730248 150.4512 
L 368.973223 145.3824 
L 354.216198 145.3824 
L 339.459174 145.3824 
L 324.702149 145.3824 
L 309.945124 145.3824 
L 295.188099 145.3824 
L 280.431074 145.3824 
L 265.67405 145.3824 
L 250.917025 145.3824 
L 236.16 145.3824 
L 221.402975 145.3824 
L 206.64595 145.3824 
L 191.888926 145.3824 
L 177.131901 145.3824 
L 162.374876 145.3824 
L 147.617851 145.3824 
L 132.860826 145.3824 
L 118.103802 145.3824 
L 103.346777 145.3824 
L 88.589752 145.3824 
L 73.832727 145.3824 
z
" clip-path="url(#pf1aed881cc)" style="fill: #ff7f0e"/>
   </g>
   <g id="PolyCollection_33">
    <path d="M 73.832727 140.3136 
L 73.832727 145.3824 
L 88.589752 145.3824 
L 103.346777 145.3824 
L 118.103802 145.3824 
L 132.860826 145.3824 
L 147.617851 145.3824 
L 162.374876 145.3824 
L 177.131901 145.3824 
L 191.888926 145.3824 
L 206.64595 145.3824 
L 221.402975 145.3824 
L 236.16 145.3824 
L 250.917025 145.3824 
L 265.67405 145.3824 
L 280.431074 145.3824 
L 295.188099 145.3824 
L 309.945124 145.3824 
L 324.702149 145.3824 
L 339.459174 145.3824 
L 354.216198 145.3824 
L 368.973223 145.3824 
L 383.730248 150.4512 
L 398.487273 165.6576 
L 398.487273 160.5888 
L 398.487273 160.5888 
L 383.730248 145.3824 
L 368.973223 140.3136 
L 354.216198 140.3136 
L 339.459174 140.3136 
L 324.702149 140.3136 
L 309.945124 140.3136 
L 295.188099 140.3136 
L 280.431074 140.3136 
L 265.67405 140.3136 
L 250.917025 140.3136 
L 236.16 140.3136 
L 221.402975 140.3136 
L 206.64595 140.3136 
L 191.888926 140.3136 
L 177.131901 140.3136 
L 162.374876 140.3136 
L 147.617851 140.3136 
L 132.860826 140.3136 
L 118.103802 140.3136 
L 103.346777 140.3136 
L 88.589752 140.3136 
L 73.832727 140.3136 
z
" clip-path="url(#pf1aed881cc)" style="fill: #2ca02c"/>
   </g>
   <g id="PolyCollection_34">
    <path d="M 73.832727 135.2448 
L 73.832727 140.3136 
L 88.589752 140.3136 
L 103.346777 140.3136 
L 118.103802 140.3136 
L 132.860826 140.3136 
L 147.617851 140.3136 
L 162.374876 140.3136 
L 177.131901 140.3136 
L 191.888926 140.3136 
L 206.64595 140.3136 
L 221.402975 140.3136 
L 236.16 140.3136 
L 250.917025 140.3136 
L 265.67405 140.3136 
L 280.431074 140.3136 
L 295.188099 140.3136 
L 309.945124 140.3136 
L 324.702149 140.3136 
L 339.459174 140.3136 
L 354.216198 140.3136 
L 368.973223 140.3136 
L 383.730248 145.3824 
L 398.487273 160.5888 
L 398.487273 155.52 
L 398.487273 155.52 
L 383.730248 140.3136 
L 368.973223 135.2448 
L 354.216198 135.2448 
L 339.459174 135.2448 
L 324.702149 135.2448 
L 309.945124 135.2448 
L 295.188099 135.2448 
L 280.431074 135.2448 
L 265.67405 135.2448 
L 250.917025 135.2448 
L 236.16 135.2448 
L 221.402975 135.2448 
L 206.64595 135.2448 
L 191.888926 135.2448 
L 177.131901 135.2448 
L 162.374876 135.2448 
L 147.617851 135.2448 
L 132.860826 135.2448 
L 118.103802 135.2448 
L 103.346777 135.2448 
L 88.589752 135.2448 
L 73.832727 135.2448 
z
" clip-path="url(#pf1aed881cc)" style="fill: #d62728"/>
   </g>
   <g id="PolyCollection_35">
    <path d="M 73.832727 130.176 
L 73.832727 135.2448 
L 88.589752 135.2448 
L 103.346777 135.2448 
L 118.103802 135.2448 
L 132.860826 135.2448 
L 147.617851 135.2448 
L 162.374876 135.2448 
L 177.131901 135.2448 
L 191.888926 135.2448 
L 206.64595 135.2448 
L 221.402975 135.2448 
L 236.16 135.2448 
L 250.917025 135.2448 
L 265.67405 135.2448 
L 280.431074 135.2448 
L 295.188099 135.2448 
L 309.945124 135.2448 
L 324.702149 135.2448 
L 339.459174 135.2448 
L 354.216198 135.2448 
L 368.973223 135.2448 
L 383.730248 140.3136 
L 398.487273 155.52 
L 398.487273 150.4512 
L 398.487273 150.4512 
L 383.730248 135.2448 
L 368.973223 130.176 
L 354.216198 130.176 
L 339.459174 130.176 
L 324.702149 130.176 
L 309.945124 130.176 
L 295.188099 130.176 
L 280.431074 130.176 
L 265.67405 130.176 
L 250.917025 130.176 
L 236.16 130.176 
L 221.402975 130.176 
L 206.64595 130.176 
L 191.888926 130.176 
L 177.131901 130.176 
L 162.374876 130.176 
L 147.617851 130.176 
L 132.860826 130.176 
L 118.103802 130.176 
L 103.346777 130.176 
L 88.589752 130.176 
L 73.832727 130.176 
z
" clip-path="url(#pf1aed881cc)" style="fill: #9467bd"/>
   </g>
   <g id="PolyCollection_36">
    <path d="M 73.832727 125.1072 
L 73.832727 130.176 
L 88.589752 130.176 
L 103.346777 130.176 
L 118.103802 130.176 
L 132.860826 130.176 
L 147.617851 130.176 
L 162.374876 130.176 
L 177.131901 130.176 
L 191.888926 130.176 
L 206.64595 130.176 
L 221.402975 130.176 
L 236.16 130.176 
L 250.917025 130.176 
L 265.67405 130.176 
L 280.431074 130.176 
L 295.188099 130.176 
L 309.945124 130.176 
L 324.702149 130.176 
L 339.459174 130.176 
L 354.216198 130.176 
L 368.973223 130.176 
L 383.730248 135.2448 
L 398.487273 150.4512 
L 398.487273 145.3824 
L 398.487273 145.3824 
L 383.730248 130.176 
L 368.973223 125.1072 
L 354.216198 125.1072 
L 339.459174 125.1072 
L 324.702149 125.1072 
L 309.945124 125.1072 
L 295.188099 125.1072 
L 280.431074 125.1072 
L 265.67405 125.1072 
L 250.917025 125.1072 
L 236.16 125.1072 
L 221.402975 125.1072 
L 206.64595 125.1072 
L 191.888926 125.1072 
L 177.131901 125.1072 
L 162.374876 125.1072 
L 147.617851 125.1072 
L 132.860826 125.1072 
L 118.103802 125.1072 
L 103.346777 125.1072 
L 88.589752 125.1072 
L 73.832727 125.1072 
z
" clip-path="url(#pf1aed881cc)" style="fill: #8c564b"/>
   </g>
   <g id="PolyCollection_37">
    <path d="M 73.832727 120.0384 
L 73.832727 125.1072 
L 88.589752 125.1072 
L 103.346777 125.1072 
L 118.103802 125.1072 
L 132.860826 125.1072 
L 147.617851 125.1072 
L 162.374876 125.1072 
L 177.131901 125.1072 
L 191.888926 125.1072 
L 206.64595 125.1072 
L 221.402975 125.1072 
L 236.16 125.1072 
L 250.917025 125.1072 
L 265.67405 125.1072 
L 280.431074 125.1072 
L 295.188099 125.1072 
L 309.945124 125.1072 
L 324.702149 125.1072 
L 339.459174 125.1072 
L 354.216198 125.1072 
L 368.973223 125.1072 
L 383.730248 130.176 
L 398.487273 145.3824 
L 398.487273 140.3136 
L 398.487273 140.3136 
L 383.730248 125.1072 
L 368.973223 120.0384 
L 354.216198 120.0384 
L 339.459174 120.0384 
L 324.702149 120.0384 
L 309.945124 120.0384 
L 295.188099 120.0384 
L 280.431074 120.0384 
L 265.67405 120.0384 
L 250.917025 120.0384 
L 236.16 120.0384 
L 221.402975 120.0384 
L 206.64595 120.0384 
L 191.888926 120.0384 
L 177.131901 120.0384 
L 162.374876 120.0384 
L 147.617851 120.0384 
L 132.860826 120.0384 
L 118.103802 120.0384 
L 103.346777 120.0384 
L 88.589752 120.0384 
L 73.832727 120.0384 
z
" clip-path="url(#pf1aed881cc)" style="fill: #e377c2"/>
   </g>
   <g id="PolyCollection_38">
    <path d="M 73.832727 114.9696 
L 73.832727 120.0384 
L 88.589752 120.0384 
L 103.346777 120.0384 
L 118.103802 120.0384 
L 132.860826 120.0384 
L 147.617851 120.0384 
L 162.374876 120.0384 
L 177.131901 120.0384 
L 191.888926 120.0384 
L 206.64595 120.0384 
L 221.402975 120.0384 
L 236.16 120.0384 
L 250.917025 120.0384 
L 265.67405 120.0384 
L 280.431074 120.0384 
L 295.188099 120.0384 
L 309.945124 120.0384 
L 324.702149 120.0384 
L 339.459174 120.0384 
L 354.216198 120.0384 
L 368.973223 120.0384 
L 383.730248 125.1072 
L 398.487273 140.3136 
L 398.487273 135.2448 
L 398.487273 135.2448 
L 383.730248 120.0384 
L 368.973223 114.9696 
L 354.216198 114.9696 
L 339.459174 114.9696 
L 324.702149 114.9696 
L 309.945124 114.9696 
L 295.188099 114.9696 
L 280.431074 114.9696 
L 265.67405 114.9696 
L 250.917025 114.9696 
L 236.16 114.9696 
L 221.402975 114.9696 
L 206.64595 114.9696 
L 191.888926 114.9696 
L 177.131901 114.9696 
L 162.374876 114.9696 
L 147.617851 114.9696 
L 132.860826 114.9696 
L 118.103802 114.9696 
L 103.346777 114.9696 
L 88.589752 114.9696 
L 73.832727 114.9696 
z
" clip-path="url(#pf1aed881cc)" style="fill: #7f7f7f"/>
   </g>
   <g id="PolyCollection_39">
    <path d="M 73.832727 109.9008 
L 73.832727 114.9696 
L 88.589752 114.9696 
L 103.346777 114.9696 
L 118.103802 114.9696 
L 132.860826 114.9696 
L 147.617851 114.9696 
L 162.374876 114.9696 
L 177.131901 114.9696 
L 191.888926 114.9696 
L 206.64595 114.9696 
L 221.402975 114.9696 
L 236.16 114.9696 
L 250.917025 114.9696 
L 265.67405 114.9696 
L 280.431074 114.9696 
L 295.188099 114.9696 
L 309.945124 114.9696 
L 324.702149 114.9696 
L 339.459174 114.9696 
L 354.216198 114.9696 
L 368.973223 114.9696 
L 383.730248 120.0384 
L 398.487273 135.2448 
L 398.487273 130.176 
L 398.487273 130.176 
L 383.730248 114.9696 
L 368.973223 109.9008 
L 354.216198 109.9008 
L 339.459174 109.9008 
L 324.702149 109.9008 
L 309.945124 109.9008 
L 295.188099 109.9008 
L 280.431074 109.9008 
L 265.67405 109.9008 
L 250.917025 109.9008 
L 236.16 109.9008 
L 221.402975 109.9008 
L 206.64595 109.9008 
L 191.888926 109.9008 
L 177.131901 109.9008 
L 162.374876 109.9008 
L 147.617851 109.9008 
L 132.860826 109.9008 
L 118.103802 109.9008 
L 103.346777 109.9008 
L 88.589752 109.9008 
L 73.832727 109.9008 
z
" clip-path="url(#pf1aed881cc)" style="fill: #bcbd22"/>
   </g>
   <g id="PolyCollection_40">
    <path d="M 73.832727 104.832 
L 73.832727 109.9008 
L 88.589752 109.9008 
L 103.346777 109.9008 
L 118.103802 109.9008 
L 132.860826 109.9008 
L 147.617851 109.9008 
L 162.374876 109.9008 
L 177.131901 109.9008 
L 191.888926 109.9008 
L 206.64595 109.9008 
L 221.402975 109.9008 
L 236.16 109.9008 
L 250.917025 109.9008 
L 265.67405 109.9008 
L 280.431074 109.9008 
L 295.188099 109.9008 
L 309.945124 109.9008 
L 324.702149 109.9008 
L 339.459174 109.9008 
L 354.216198 109.9008 
L 368.973223 109.9008 
L 383.730248 114.9696 
L 398.487273 130.176 
L 398.487273 130.176 
L 398.487273 130.176 
L 383.730248 114.9696 
L 368.973223 104.832 
L 354.216198 104.832 
L 339.459174 104.832 
L 324.702149 104.832 
L 309.945124 104.832 
L 295.188099 104.832 
L 280.431074 104.832 
L 265.67405 104.832 
L 250.917025 104.832 
L 236.16 104.832 
L 221.402975 104.832 
L 206.64595 104.832 
L 191.888926 104.832 
L 177.131901 104.832 
L 162.374876 104.832 
L 147.617851 104.832 
L 132.860826 104.832 
L 118.103802 104.832 
L 103.346777 104.832 
L 88.589752 104.832 
L 73.832727 104.832 
z
" clip-path="url(#pf1aed881cc)" style="fill: #17becf"/>
   </g>
   <g id="PolyCollection_41">
    <path d="M 73.832727 99.7632 
L 73.832727 104.832 
L 88.589752 104.832 
L 103.346777 104.832 
L 118.103802 104.832 
L 132.860826 104.832 
L 147.617851 104.832 
L 162.374876 104.832 
L 177.131901 104.832 
L 191.888926 104.832 
L 206.64595 104.832 
L 221.402975 104.832 
L 236.16 104.832 
L 250.917025 104.832 
L 265.67405 104.832 
L 280.431074 104.832 
L 295.188099 104.832 
L 309.945124 104.832 
L 324.702149 104.832 
L 339.459174 104.832 
L 354.216198 104.832 
L 368.973223 104.832 
L 383.730248 114.9696 
L 398.487273 130.176 
L 398.487273 125.1072 
L 398.487273 125.1072 
L 383.730248 109.9008 
L 368.973223 99.7632 
L 354.216198 99.7632 
L 339.459174 99.7632 
L 324.702149 99.7632 
L 309.945124 99.7632 
L 295.188099 99.7632 
L 280.431074 99.7632 
L 265.67405 99.7632 
L 250.917025 99.7632 
L 236.16 99.7632 
L 221.402975 99.7632 
L 206.64595 99.7632 
L 191.888926 99.7632 
L 177.131901 99.7632 
L 162.374876 99.7632 
L 147.617851 99.7632 
L 132.860826 99.7632 
L 118.103802 99.7632 
L 103.346777 99.7632 
L 88.589752 99.7632 
L 73.832727 99.7632 
z
" clip-path="url(#pf1aed881cc)" style="fill: #1f77b4"/>
   </g>
   <g id="PolyCollection_42">
    <path d="M 73.832727 94.6944 
L 73.832727 99.7632 
L 88.589752 99.7632 
L 103.346777 99.7632 
L 118.103802 99.7632 
L 132.860826 99.7632 
L 147.617851 99.7632 
L 162.374876 99.7632 
L 177.131901 99.7632 
L 191.888926 99.7632 
L 206.64595 99.7632 
L 221.402975 99.7632 
L 236.16 99.7632 
L 250.917025 99.7632 
L 265.67405 99.7632 
L 280.431074 99.7632 
L 295.188099 99.7632 
L 309.945124 99.7632 
L 324.702149 99.7632 
L 339.459174 99.7632 
L 354.216198 99.7632 
L 368.973223 99.7632 
L 383.730248 109.9008 
L 398.487273 125.1072 
L 398.487273 120.0384 
L 398.487273 120.0384 
L 383.730248 104.832 
L 368.973223 94.6944 
L 354.216198 94.6944 
L 339.459174 94.6944 
L 324.702149 94.6944 
L 309.945124 94.6944 
L 295.188099 94.6944 
L 280.431074 94.6944 
L 265.67405 94.6944 
L 250.917025 94.6944 
L 236.16 94.6944 
L 221.402975 94.6944 
L 206.64595 94.6944 
L 191.888926 94.6944 
L 177.131901 94.6944 
L 162.374876 94.6944 
L 147.617851 94.6944 
L 132.860826 94.6944 
L 118.103802 94.6944 
L 103.346777 94.6944 
L 88.589752 94.6944 
L 73.832727 94.6944 
z
" clip-path="url(#pf1aed881cc)" style="fill: #ff7f0e"/>
   </g>
   <g id="PolyCollection_43">
    <path d="M 73.832727 89.6256 
L 73.832727 94.6944 
L 88.589752 94.6944 
L 103.346777 94.6944 
L 118.103802 94.6944 
L 132.860826 94.6944 
L 147.617851 94.6944 
L 162.374876 94.6944 
L 177.131901 94.6944 
L 191.888926 94.6944 
L 206.64595 94.6944 
L 221.402975 94.6944 
L 236.16 94.6944 
L 250.917025 94.6944 
L 265.67405 94.6944 
L 280.431074 94.6944 
L 295.188099 94.6944 
L 309.945124 94.6944 
L 324.702149 94.6944 
L 339.459174 94.6944 
L 354.216198 94.6944 
L 368.973223 94.6944 
L 383.730248 104.832 
L 398.487273 120.0384 
L 398.487273 114.9696 
L 398.487273 114.9696 
L 383.730248 99.7632 
L 368.973223 89.6256 
L 354.216198 89.6256 
L 339.459174 89.6256 
L 324.702149 89.6256 
L 309.945124 89.6256 
L 295.188099 89.6256 
L 280.431074 89.6256 
L 265.67405 89.6256 
L 250.917025 89.6256 
L 236.16 89.6256 
L 221.402975 89.6256 
L 206.64595 89.6256 
L 191.888926 89.6256 
L 177.131901 89.6256 
L 162.374876 89.6256 
L 147.617851 89.6256 
L 132.860826 89.6256 
L 118.103802 89.6256 
L 103.346777 89.6256 
L 88.589752 89.6256 
L 73.832727 89.6256 
z
" clip-path="url(#pf1aed881cc)" style="fill: #2ca02c"/>
   </g>
   <g id="PolyCollection_44">
    <path d="M 73.832727 84.5568 
L 73.832727 89.6256 
L 88.589752 89.6256 
L 103.346777 89.6256 
L 118.103802 89.6256 
L 132.860826 89.6256 
L 147.617851 89.6256 
L 162.374876 89.6256 
L 177.131901 89.6256 
L 191.888926 89.6256 
L 206.64595 89.6256 
L 221.402975 89.6256 
L 236.16 89.6256 
L 250.917025 89.6256 
L 265.67405 89.6256 
L 280.431074 89.6256 
L 295.188099 89.6256 
L 309.945124 89.6256 
L 324.702149 89.6256 
L 339.459174 89.6256 
L 354.216198 89.6256 
L 368.973223 89.6256 
L 383.730248 99.7632 
L 398.487273 114.9696 
L 398.487273 109.9008 
L 398.487273 109.9008 
L 383.730248 94.6944 
L 368.973223 84.5568 
L 354.216198 84.5568 
L 339.459174 84.5568 
L 324.702149 84.5568 
L 309.945124 84.5568 
L 295.188099 84.5568 
L 280.431074 84.5568 
L 265.67405 84.5568 
L 250.917025 84.5568 
L 236.16 84.5568 
L 221.402975 84.5568 
L 206.64595 84.5568 
L 191.888926 84.5568 
L 177.131901 84.5568 
L 162.374876 84.5568 
L 147.617851 84.5568 
L 132.860826 84.5568 
L 118.103802 84.5568 
L 103.346777 84.5568 
L 88.589752 84.5568 
L 73.832727 84.5568 
z
" clip-path="url(#pf1aed881cc)" style="fill: #d62728"/>
   </g>
   <g id="PolyCollection_45">
    <path d="M 73.832727 79.488 
L 73.832727 84.5568 
L 88.589752 84.5568 
L 103.346777 84.5568 
L 118.103802 84.5568 
L 132.860826 84.5568 
L 147.617851 84.5568 
L 162.374876 84.5568 
L 177.131901 84.5568 
L 191.888926 84.5568 
L 206.64595 84.5568 
L 221.402975 84.5568 
L 236.16 84.5568 
L 250.917025 84.5568 
L 265.67405 84.5568 
L 280.431074 84.5568 
L 295.188099 84.5568 
L 309.945124 84.5568 
L 324.702149 84.5568 
L 339.459174 84.5568 
L 354.216198 84.5568 
L 368.973223 84.5568 
L 383.730248 94.6944 
L 398.487273 109.9008 
L 398.487273 104.832 
L 398.487273 104.832 
L 383.730248 89.6256 
L 368.973223 79.488 
L 354.216198 79.488 
L 339.459174 79.488 
L 324.702149 79.488 
L 309.945124 79.488 
L 295.188099 79.488 
L 280.431074 79.488 
L 265.67405 79.488 
L 250.917025 79.488 
L 236.16 79.488 
L 221.402975 79.488 
L 206.64595 79.488 
L 191.888926 79.488 
L 177.131901 79.488 
L 162.374876 79.488 
L 147.617851 79.488 
L 132.860826 79.488 
L 118.103802 79.488 
L 103.346777 79.488 
L 88.589752 79.488 
L 73.832727 79.488 
z
" clip-path="url(#pf1aed881cc)" style="fill: #9467bd"/>
   </g>
   <g id="PolyCollection_46">
    <path d="M 73.832727 74.4192 
L 73.832727 79.488 
L 88.589752 79.488 
L 103.346777 79.488 
L 118.103802 79.488 
L 132.860826 79.488 
L 147.617851 79.488 
L 162.374876 79.488 
L 177.131901 79.488 
L 191.888926 79.488 
L 206.64595 79.488 
L 221.402975 79.488 
L 236.16 79.488 
L 250.917025 79.488 
L 265.67405 79.488 
L 280.431074 79.488 
L 295.188099 79.488 
L 309.945124 79.488 
L 324.702149 79.488 
L 339.459174 79.488 
L 354.216198 79.488 
L 368.973223 79.488 
L 383.730248 89.6256 
L 398.487273 104.832 
L 398.487273 99.7632 
L 398.487273 99.7632 
L 383.730248 84.5568 
L 368.973223 74.4192 
L 354.216198 74.4192 
L 339.459174 74.4192 
L 324.702149 74.4192 
L 309.945124 74.4192 
L 295.188099 74.4192 
L 280.431074 74.4192 
L 265.67405 74.4192 
L 250.917025 74.4192 
L 236.16 74.4192 
L 221.402975 74.4192 
L 206.64595 74.4192 
L 191.888926 74.4192 
L 177.131901 74.4192 
L 162.374876 74.4192 
L 147.617851 74.4192 
L 132.860826 74.4192 
L 118.103802 74.4192 
L 103.346777 74.4192 
L 88.589752 74.4192 
L 73.832727 74.4192 
z
" clip-path="url(#pf1aed881cc)" style="fill: #8c564b"/>
   </g>
   <g id="PolyCollection_47">
    <path d="M 73.832727 69.3504 
L 73.832727 74.4192 
L 88.589752 74.4192 
L 103.346777 74.4192 
L 118.103802 74.4192 
L 132.860826 74.4192 
L 147.617851 74.4192 
L 162.374876 74.4192 
L 177.131901 74.4192 
L 191.888926 74.4192 
L 206.64595 74.4192 
L 221.402975 74.4192 
L 236.16 74.4192 
L 250.917025 74.4192 
L 265.67405 74.4192 
L 280.431074 74.4192 
L 295.188099 74.4192 
L 309.945124 74.4192 
L 324.702149 74.4192 
L 339.459174 74.4192 
L 354.216198 74.4192 
L 368.973223 74.4192 
L 383.730248 84.5568 
L 398.487273 99.7632 
L 398.487273 94.6944 
L 398.487273 94.6944 
L 383.730248 79.488 
L 368.973223 69.3504 
L 354.216198 69.3504 
L 339.459174 69.3504 
L 324.702149 69.3504 
L 309.945124 69.3504 
L 295.188099 69.3504 
L 280.431074 69.3504 
L 265.67405 69.3504 
L 250.917025 69.3504 
L 236.16 69.3504 
L 221.402975 69.3504 
L 206.64595 69.3504 
L 191.888926 69.3504 
L 177.131901 69.3504 
L 162.374876 69.3504 
L 147.617851 69.3504 
L 132.860826 69.3504 
L 118.103802 69.3504 
L 103.346777 69.3504 
L 88.589752 69.3504 
L 73.832727 69.3504 
z
" clip-path="url(#pf1aed881cc)" style="fill: #e377c2"/>
   </g>
   <g id="PolyCollection_48">
    <path d="M 73.832727 64.2816 
L 73.832727 69.3504 
L 88.589752 69.3504 
L 103.346777 69.3504 
L 118.103802 69.3504 
L 132.860826 69.3504 
L 147.617851 69.3504 
L 162.374876 69.3504 
L 177.131901 69.3504 
L 191.888926 69.3504 
L 206.64595 69.3504 
L 221.402975 69.3504 
L 236.16 69.3504 
L 250.917025 69.3504 
L 265.67405 69.3504 
L 280.431074 69.3504 
L 295.188099 69.3504 
L 309.945124 69.3504 
L 324.702149 69.3504 
L 339.459174 69.3504 
L 354.216198 69.3504 
L 368.973223 69.3504 
L 383.730248 79.488 
L 398.487273 94.6944 
L 398.487273 89.6256 
L 398.487273 89.6256 
L 383.730248 74.4192 
L 368.973223 64.2816 
L 354.216198 64.2816 
L 339.459174 64.2816 
L 324.702149 64.2816 
L 309.945124 64.2816 
L 295.188099 64.2816 
L 280.431074 64.2816 
L 265.67405 64.2816 
L 250.917025 64.2816 
L 236.16 64.2816 
L 221.402975 64.2816 
L 206.64595 64.2816 
L 191.888926 64.2816 
L 177.131901 64.2816 
L 162.374876 64.2816 
L 147.617851 64.2816 
L 132.860826 64.2816 
L 118.103802 64.2816 
L 103.346777 64.2816 
L 88.589752 64.2816 
L 73.832727 64.2816 
z
" clip-path="url(#pf1aed881cc)" style="fill: #7f7f7f"/>
   </g>
   <g id="PolyCollection_49">
    <path d="M 73.832727 59.2128 
L 73.832727 64.2816 
L 88.589752 64.2816 
L 103.346777 64.2816 
L 118.103802 64.2816 
L 132.860826 64.2816 
L 147.617851 64.2816 
L 162.374876 64.2816 
L 177.131901 64.2816 
L 191.888926 64.2816 
L 206.64595 64.2816 
L 221.402975 64.2816 
L 236.16 64.2816 
L 250.917025 64.2816 
L 265.67405 64.2816 
L 280.431074 64.2816 
L 295.188099 64.2816 
L 309.945124 64.2816 
L 324.702149 64.2816 
L 339.459174 64.2816 
L 354.216198 64.2816 
L 368.973223 64.2816 
L 383.730248 74.4192 
L 398.487273 89.6256 
L 398.487273 84.5568 
L 398.487273 84.5568 
L 383.730248 69.3504 
L 368.973223 59.2128 
L 354.216198 59.2128 
L 339.459174 59.2128 
L 324.702149 59.2128 
L 309.945124 59.2128 
L 295.188099 59.2128 
L 280.431074 59.2128 
L 265.67405 59.2128 
L 250.917025 59.2128 
L 236.16 59.2128 
L 221.402975 59.2128 
L 206.64595 59.2128 
L 191.888926 59.2128 
L 177.131901 59.2128 
L 162.374876 59.2128 
L 147.617851 59.2128 
L 132.860826 59.2128 
L 118.103802 59.2128 
L 103.346777 59.2128 
L 88.589752 59.2128 
L 73.832727 59.2128 
z
" clip-path="url(#pf1aed881cc)" style="fill: #bcbd22"/>
   </g>
   <g id="PolyCollection_50">
    <path d="M 73.832727 54.144 
L 73.832727 59.2128 
L 88.589752 59.2128 
L 103.346777 59.2128 
L 118.103802 59.2128 
L 132.860826 59.2128 
L 147.617851 59.2128 
L 162.374876 59.2128 
L 177.131901 59.2128 
L 191.888926 59.2128 
L 206.64595 59.2128 
L 221.402975 59.2128 
L 236.16 59.2128 
L 250.917025 59.2128 
L 265.67405 59.2128 
L 280.431074 59.2128 
L 295.188099 59.2128 
L 309.945124 59.2128 
L 324.702149 59.2128 
L 339.459174 59.2128 
L 354.216198 59.2128 
L 368.973223 59.2128 
L 383.730248 69.3504 
L 398.487273 84.5568 
L 398.487273 79.488 
L 398.487273 79.488 
L 383.730248 64.2816 
L 368.973223 54.144 
L 354.216198 54.144 
L 339.459174 54.144 
L 324.702149 54.144 
L 309.945124 54.144 
L 295.188099 54.144 
L 280.431074 54.144 
L 265.67405 54.144 
L 250.917025 54.144 
L 236.16 54.144 
L 221.402975 54.144 
L 206.64595 54.144 
L 191.888926 54.144 
L 177.131901 54.144 
L 162.374876 54.144 
L 147.617851 54.144 
L 132.860826 54.144 
L 118.103802 54.144 
L 103.346777 54.144 
L 88.589752 54.144 
L 73.832727 54.144 
z
" clip-path="url(#pf1aed881cc)" style="fill: #17becf"/>
   </g>
   <g id="matplotlib.axis_1">
    <g id="xtick_1">
     <g id="line2d_1">
      <defs>
       <path id="m041f2ae911" d="M 0 0 
L 0 3.5 
" style="stroke: #000000; stroke-width: 0.8"/>
      </defs>
      <g>
       <use xlink:href="#m041f2ae911" x="73.832727" y="307.584" style="stroke: #000000; stroke-width: 0.8"/>
      </g>
     </g>
     <g id="text_1">
      <!-- 0 -->
      <g transform="translate(70.651477 322.182437) scale(0.1 -0.1)">
       <defs>
        <path id="DejaVuSans-30" d="M 2034 4250 
Q 1547 4250 1301 3770 
Q 1056 3291 1056 2328 
Q 1056 1369 1301 889 
Q 1547 409 2034 409 
Q 2525 409 2770 889 
Q 3016 1369 3016 2328 
Q 3016 3291 2770 3770 
Q 2525 4250 2034 4250 
z
M 2034 4750 
Q 2819 4750 3233 4129 
Q 3647 3509 3647 2328 
Q 3647 1150 3233 529 
Q 2819 -91 2034 -91 
Q 1250 -91 836 529 
Q 422 1150 422 2328 
Q 422 3509 836 4129 
Q 1250 4750 2034 4750 
z
" transform="scale(0.015625)"/>
       </defs>
       <use xlink:href="#DejaVuSans-30"/>
      </g>
     </g>
    </g>
    <g id="xtick_2">
     <g id="line2d_2">
      <g>
       <use xlink:href="#m041f2ae911" x="147.617851" y="307.584" style="stroke: #000000; stroke-width: 0.8"/>
      </g>
     </g>
     <g id="text_2">
      <!-- 5 -->
      <g transform="translate(144.436601 322.182437) scale(0.1 -0.1)">
       <defs>
        <path id="DejaVuSans-35" d="M 691 4666 
L 3169 4666 
L 3169 4134 
L 1269 4134 
L 1269 2991 
Q 1406 3038 1543 3061 
Q 1681 3084 1819 3084 
Q 2600 3084 3056 2656 
Q 3513 2228 3513 1497 
Q 3513 744 3044 326 
Q 2575 -91 1722 -91 
Q 1428 -91 1123 -41 
Q 819 9 494 109 
L 494 744 
Q 775 591 1075 516 
Q 1375 441 1709 441 
Q 2250 441 2565 725 
Q 2881 1009 2881 1497 
Q 2881 1984 2565 2268 
Q 2250 2553 1709 2553 
Q 1456 2553 1204 2497 
Q 953 2441 691 2322 
L 691 4666 
z
" transform="scale(0.015625)"/>
       </defs>
       <use xlink:href="#DejaVuSans-35"/>
      </g>
     </g>
    </g>
    <g id="xtick_3">
     <g id="line2d_3">
      <g>
       <use xlink:href="#m041f2ae911" x="221.402975" y="307.584" style="stroke: #000000; stroke-width: 0.8"/>
      </g>
     </g>
     <g id="text_3">
      <!-- 10 -->
      <g transform="translate(215.040475 322.182437) scale(0.1 -0.1)">
       <defs>
        <path id="DejaVuSans-31" d="M 794 531 
L 1825 531 
L 1825 4091 
L 703 3866 
L 703 4441 
L 1819 4666 
L 2450 4666 
L 2450 531 
L 3481 531 
L 3481 0 
L 794 0 
L 794 531 
z
" transform="scale(0.015625)"/>
       </defs>
       <use xlink:href="#DejaVuSans-31"/>
       <use xlink:href="#DejaVuSans-30" x="63.623047"/>
      </g>
     </g>
    </g>
    <g id="xtick_4">
     <g id="line2d_4">
      <g>
       <use xlink:href="#m041f2ae911" x="295.188099" y="307.584" style="stroke: #000000; stroke-width: 0.8"/>
      </g>
     </g>
     <g id="text_4">
      <!-- 15 -->
      <g transform="translate(288.825599 322.182437) scale(0.1 -0.1)">
       <use xlink:href="#DejaVuSans-31"/>
       <use xlink:href="#DejaVuSans-35" x="63.623047"/>
      </g>
     </g>
    </g>
    <g id="xtick_5">
     <g id="line2d_5">
      <g>
       <use xlink:href="#m041f2ae911" x="368.973223" y="307.584" style="stroke: #000000; stroke-width: 0.8"/>
      </g>
     </g>
     <g id="text_5">
      <!-- 20 -->
      <g transform="translate(362.610723 322.182437) scale(0.1 -0.1)">
       <defs>
        <path id="DejaVuSans-32" d="M 1228 531 
L 3431 531 
L 3431 0 
L 469 0 
L 469 531 
Q 828 903 1448 1529 
Q 2069 2156 2228 2338 
Q 2531 2678 2651 2914 
Q 2772 3150 2772 3378 
Q 2772 3750 2511 3984 
Q 2250 4219 1831 4219 
Q 1534 4219 1204 4116 
Q 875 4013 500 3803 
L 500 4441 
Q 881 4594 1212 4672 
Q 1544 4750 1819 4750 
Q 2544 4750 2975 4387 
Q 3406 4025 3406 3419 
Q 3406 3131 3298 2873 
Q 3191 2616 2906 2266 
Q 2828 2175 2409 1742 
Q 1991 1309 1228 531 
z
" transform="scale(0.015625)"/>
       </defs>
       <use xlink:href="#DejaVuSans-32"/>
       <use xlink:href="#DejaVuSans-30" x="63.623047"/>
      </g>
     </g>
    </g>
    <g id="text_6">
     <!-- Generations -->
     <g transform="translate(205.662344 335.860562) scale(0.1 -0.1)">
      <defs>
       <path id="DejaVuSans-47" d="M 3809 666 
L 3809 1919 
L 2778 1919 
L 2778 2438 
L 4434 2438 
L 4434 434 
Q 4069 175 3628 42 
Q 3188 -91 2688 -91 
Q 1594 -91 976 548 
Q 359 1188 359 2328 
Q 359 3472 976 4111 
Q 1594 4750 2688 4750 
Q 3144 4750 3555 4637 
Q 3966 4525 4313 4306 
L 4313 3634 
Q 3963 3931 3569 4081 
Q 3175 4231 2741 4231 
Q 1884 4231 1454 3753 
Q 1025 3275 1025 2328 
Q 1025 1384 1454 906 
Q 1884 428 2741 428 
Q 3075 428 3337 486 
Q 3600 544 3809 666 
z
" transform="scale(0.015625)"/>
       <path id="DejaVuSans-65" d="M 3597 1894 
L 3597 1613 
L 953 1613 
Q 991 1019 1311 708 
Q 1631 397 2203 397 
Q 2534 397 2845 478 
Q 3156 559 3463 722 
L 3463 178 
Q 3153 47 2828 -22 
Q 2503 -91 2169 -91 
Q 1331 -91 842 396 
Q 353 884 353 1716 
Q 353 2575 817 3079 
Q 1281 3584 2069 3584 
Q 2775 3584 3186 3129 
Q 3597 2675 3597 1894 
z
M 3022 2063 
Q 3016 2534 2758 2815 
Q 2500 3097 2075 3097 
Q 1594 3097 1305 2825 
Q 1016 2553 972 2059 
L 3022 2063 
z
" transform="scale(0.015625)"/>
       <path id="DejaVuSans-6e" d="M 3513 2113 
L 3513 0 
L 2938 0 
L 2938 2094 
Q 2938 2591 2744 2837 
Q 2550 3084 2163 3084 
Q 1697 3084 1428 2787 
Q 1159 2491 1159 1978 
L 1159 0 
L 581 0 
L 581 3500 
L 1159 3500 
L 1159 2956 
Q 1366 3272 1645 3428 
Q 1925 3584 2291 3584 
Q 2894 3584 3203 3211 
Q 3513 2838 3513 2113 
z
" transform="scale(0.015625)"/>
       <path id="DejaVuSans-72" d="M 2631 2963 
Q 2534 3019 2420 3045 
Q 2306 3072 2169 3072 
Q 1681 3072 1420 2755 
Q 1159 2438 1159 1844 
L 1159 0 
L 581 0 
L 581 3500 
L 1159 3500 
L 1159 2956 
Q 1341 3275 1631 3429 
Q 1922 3584 2338 3584 
Q 2397 3584 2469 3576 
Q 2541 3569 2628 3553 
L 2631 2963 
z
" transform="scale(0.015625)"/>
       <path id="DejaVuSans-61" d="M 2194 1759 
Q 1497 1759 1228 1600 
Q 959 1441 959 1056 
Q 959 750 1161 570 
Q 1363 391 1709 391 
Q 2188 391 2477 730 
Q 2766 1069 2766 1631 
L 2766 1759 
L 2194 1759 
z
M 3341 1997 
L 3341 0 
L 2766 0 
L 2766 531 
Q 2569 213 2275 61 
Q 1981 -91 1556 -91 
Q 1019 -91 701 211 
Q 384 513 384 1019 
Q 384 1609 779 1909 
Q 1175 2209 1959 2209 
L 2766 2209 
L 2766 2266 
Q 2766 2663 2505 2880 
Q 2244 3097 1772 3097 
Q 1472 3097 1187 3025 
Q 903 2953 641 2809 
L 641 3341 
Q 956 3463 1253 3523 
Q 1550 3584 1831 3584 
Q 2591 3584 2966 3190 
Q 3341 2797 3341 1997 
z
" transform="scale(0.015625)"/>
       <path id="DejaVuSans-74" d="M 1172 4494 
L 1172 3500 
L 2356 3500 
L 2356 3053 
L 1172 3053 
L 1172 1153 
Q 1172 725 1289 603 
Q 1406 481 1766 481 
L 2356 481 
L 2356 0 
L 1766 0 
Q 1100 0 847 248 
Q 594 497 594 1153 
L 594 3053 
L 172 3053 
L 172 3500 
L 594 3500 
L 594 4494 
L 1172 4494 
z
" transform="scale(0.015625)"/>
       <path id="DejaVuSans-69" d="M 603 3500 
L 1178 3500 
L 1178 0 
L 603 0 
L 603 3500 
z
M 603 4863 
L 1178 4863 
L 1178 4134 
L 603 4134 
L 603 4863 
z
" transform="scale(0.015625)"/>
       <path id="DejaVuSans-6f" d="M 1959 3097 
Q 1497 3097 1228 2736 
Q 959 2375 959 1747 
Q 959 1119 1226 758 
Q 1494 397 1959 397 
Q 2419 397 2687 759 
Q 2956 1122 2956 1747 
Q 2956 2369 2687 2733 
Q 2419 3097 1959 3097 
z
M 1959 3584 
Q 2709 3584 3137 3096 
Q 3566 2609 3566 1747 
Q 3566 888 3137 398 
Q 2709 -91 1959 -91 
Q 1206 -91 779 398 
Q 353 888 353 1747 
Q 353 2609 779 3096 
Q 1206 3584 1959 3584 
z
" transform="scale(0.015625)"/>
       <path id="DejaVuSans-73" d="M 2834 3397 
L 2834 2853 
Q 2591 2978 2328 3040 
Q 2066 3103 1784 3103 
Q 1356 3103 1142 2972 
Q 928 2841 928 2578 
Q 928 2378 1081 2264 
Q 1234 2150 1697 2047 
L 1894 2003 
Q 2506 1872 2764 1633 
Q 3022 1394 3022 966 
Q 3022 478 2636 193 
Q 2250 -91 1575 -91 
Q 1294 -91 989 -36 
Q 684 19 347 128 
L 347 722 
Q 666 556 975 473 
Q 1284 391 1588 391 
Q 1994 391 2212 530 
Q 2431 669 2431 922 
Q 2431 1156 2273 1281 
Q 2116 1406 1581 1522 
L 1381 1569 
Q 847 1681 609 1914 
Q 372 2147 372 2553 
Q 372 3047 722 3315 
Q 1072 3584 1716 3584 
Q 2034 3584 2315 3537 
Q 2597 3491 2834 3397 
z
" transform="scale(0.015625)"/>
      </defs>
      <use xlink:href="#DejaVuSans-47"/>
      <use xlink:href="#DejaVuSans-65" x="77.490234"/>
      <use xlink:href="#DejaVuSans-6e" x="139.013672"/>
      <use xlink:href="#DejaVuSans-65" x="202.392578"/>
      <use xlink:href="#DejaVuSans-72" x="263.916016"/>
      <use xlink:href="#DejaVuSans-61" x="305.029297"/>
      <use xlink:href="#DejaVuSans-74" x="366.308594"/>
      <use xlink:href="#DejaVuSans-69" x="405.517578"/>
      <use xlink:href="#DejaVuSans-6f" x="433.300781"/>
      <use xlink:href="#DejaVuSans-6e" x="494.482422"/>
      <use xlink:href="#DejaVuSans-73" x="557.861328"/>
     </g>
    </g>
   </g>
   <g id="matplotlib.axis_2">
    <g id="ytick_1">
     <g id="line2d_6">
      <defs>
       <path id="mbbe5753789" d="M 0 0 
L -3.5 0 
" style="stroke: #000000; stroke-width: 0.8"/>
      </defs>
      <g>
       <use xlink:href="#mbbe5753789" x="57.6" y="307.584" style="stroke: #000000; stroke-width: 0.8"/>
      </g>
     </g>
     <g id="text_7">
      <!-- 0 -->
      <g transform="translate(44.2375 311.383219) scale(0.1 -0.1)">
       <use xlink:href="#DejaVuSans-30"/>
      </g>
     </g>
    </g>
    <g id="ytick_2">
     <g id="line2d_7">
      <g>
       <use xlink:href="#mbbe5753789" x="57.6" y="256.896" style="stroke: #000000; stroke-width: 0.8"/>
      </g>
     </g>
     <g id="text_8">
      <!-- 20 -->
      <g transform="translate(37.875 260.695219) scale(0.1 -0.1)">
       <use xlink:href="#DejaVuSans-32"/>
       <use xlink:href="#DejaVuSans-30" x="63.623047"/>
      </g>
     </g>
    </g>
    <g id="ytick_3">
     <g id="line2d_8">
      <g>
       <use xlink:href="#mbbe5753789" x="57.6" y="206.208" style="stroke: #000000; stroke-width: 0.8"/>
      </g>
     </g>
     <g id="text_9">
      <!-- 40 -->
      <g transform="translate(37.875 210.007219) scale(0.1 -0.1)">
       <defs>
        <path id="DejaVuSans-34" d="M 2419 4116 
L 825 1625 
L 2419 1625 
L 2419 4116 
z
M 2253 4666 
L 3047 4666 
L 3047 1625 
L 3713 1625 
L 3713 1100 
L 3047 1100 
L 3047 0 
L 2419 0 
L 2419 1100 
L 313 1100 
L 313 1709 
L 2253 4666 
z
" transform="scale(0.015625)"/>
       </defs>
       <use xlink:href="#DejaVuSans-34"/>
       <use xlink:href="#DejaVuSans-30" x="63.623047"/>
      </g>
     </g>
    </g>
    <g id="ytick_4">
     <g id="line2d_9">
      <g>
       <use xlink:href="#mbbe5753789" x="57.6" y="155.52" style="stroke: #000000; stroke-width: 0.8"/>
      </g>
     </g>
     <g id="text_10">
      <!-- 60 -->
      <g transform="translate(37.875 159.319219) scale(0.1 -0.1)">
       <defs>
        <path id="DejaVuSans-36" d="M 2113 2584 
Q 1688 2584 1439 2293 
Q 1191 2003 1191 1497 
Q 1191 994 1439 701 
Q 1688 409 2113 409 
Q 2538 409 2786 701 
Q 3034 994 3034 1497 
Q 3034 2003 2786 2293 
Q 2538 2584 2113 2584 
z
M 3366 4563 
L 3366 3988 
Q 3128 4100 2886 4159 
Q 2644 4219 2406 4219 
Q 1781 4219 1451 3797 
Q 1122 3375 1075 2522 
Q 1259 2794 1537 2939 
Q 1816 3084 2150 3084 
Q 2853 3084 3261 2657 
Q 3669 2231 3669 1497 
Q 3669 778 3244 343 
Q 2819 -91 2113 -91 
Q 1303 -91 875 529 
Q 447 1150 447 2328 
Q 447 3434 972 4092 
Q 1497 4750 2381 4750 
Q 2619 4750 2861 4703 
Q 3103 4656 3366 4563 
z
" transform="scale(0.015625)"/>
       </defs>
       <use xlink:href="#DejaVuSans-36"/>
       <use xlink:href="#DejaVuSans-30" x="63.623047"/>
      </g>
     </g>
    </g>
    <g id="ytick_5">
     <g id="line2d_10">
      <g>
       <use xlink:href="#mbbe5753789" x="57.6" y="104.832" style="stroke: #000000; stroke-width: 0.8"/>
      </g>
     </g>
     <g id="text_11">
      <!-- 80 -->
      <g transform="translate(37.875 108.631219) scale(0.1 -0.1)">
       <defs>
        <path id="DejaVuSans-38" d="M 2034 2216 
Q 1584 2216 1326 1975 
Q 1069 1734 1069 1313 
Q 1069 891 1326 650 
Q 1584 409 2034 409 
Q 2484 409 2743 651 
Q 3003 894 3003 1313 
Q 3003 1734 2745 1975 
Q 2488 2216 2034 2216 
z
M 1403 2484 
Q 997 2584 770 2862 
Q 544 3141 544 3541 
Q 544 4100 942 4425 
Q 1341 4750 2034 4750 
Q 2731 4750 3128 4425 
Q 3525 4100 3525 3541 
Q 3525 3141 3298 2862 
Q 3072 2584 2669 2484 
Q 3125 2378 3379 2068 
Q 3634 1759 3634 1313 
Q 3634 634 3220 271 
Q 2806 -91 2034 -91 
Q 1263 -91 848 271 
Q 434 634 434 1313 
Q 434 1759 690 2068 
Q 947 2378 1403 2484 
z
M 1172 3481 
Q 1172 3119 1398 2916 
Q 1625 2713 2034 2713 
Q 2441 2713 2670 2916 
Q 2900 3119 2900 3481 
Q 2900 3844 2670 4047 
Q 2441 4250 2034 4250 
Q 1625 4250 1398 4047 
Q 1172 3844 1172 3481 
z
" transform="scale(0.015625)"/>
       </defs>
       <use xlink:href="#DejaVuSans-38"/>
       <use xlink:href="#DejaVuSans-30" x="63.623047"/>
      </g>
     </g>
    </g>
    <g id="ytick_6">
     <g id="line2d_11">
      <g>
       <use xlink:href="#mbbe5753789" x="57.6" y="54.144" style="stroke: #000000; stroke-width: 0.8"/>
      </g>
     </g>
     <g id="text_12">
      <!-- 100 -->
      <g transform="translate(31.5125 57.943219) scale(0.1 -0.1)">
       <use xlink:href="#DejaVuSans-31"/>
       <use xlink:href="#DejaVuSans-30" x="63.623047"/>
       <use xlink:href="#DejaVuSans-30" x="127.246094"/>
      </g>
     </g>
    </g>
    <g id="text_13">
     <!-- Size per Species -->
     <g transform="translate(25.432812 215.520969) rotate(-90) scale(0.1 -0.1)">
      <defs>
       <path id="DejaVuSans-53" d="M 3425 4513 
L 3425 3897 
Q 3066 4069 2747 4153 
Q 2428 4238 2131 4238 
Q 1616 4238 1336 4038 
Q 1056 3838 1056 3469 
Q 1056 3159 1242 3001 
Q 1428 2844 1947 2747 
L 2328 2669 
Q 3034 2534 3370 2195 
Q 3706 1856 3706 1288 
Q 3706 609 3251 259 
Q 2797 -91 1919 -91 
Q 1588 -91 1214 -16 
Q 841 59 441 206 
L 441 856 
Q 825 641 1194 531 
Q 1563 422 1919 422 
Q 2459 422 2753 634 
Q 3047 847 3047 1241 
Q 3047 1584 2836 1778 
Q 2625 1972 2144 2069 
L 1759 2144 
Q 1053 2284 737 2584 
Q 422 2884 422 3419 
Q 422 4038 858 4394 
Q 1294 4750 2059 4750 
Q 2388 4750 2728 4690 
Q 3069 4631 3425 4513 
z
" transform="scale(0.015625)"/>
       <path id="DejaVuSans-7a" d="M 353 3500 
L 3084 3500 
L 3084 2975 
L 922 459 
L 3084 459 
L 3084 0 
L 275 0 
L 275 525 
L 2438 3041 
L 353 3041 
L 353 3500 
z
" transform="scale(0.015625)"/>
       <path id="DejaVuSans-20" transform="scale(0.015625)"/>
       <path id="DejaVuSans-70" d="M 1159 525 
L 1159 -1331 
L 581 -1331 
L 581 3500 
L 1159 3500 
L 1159 2969 
Q 1341 3281 1617 3432 
Q 1894 3584 2278 3584 
Q 2916 3584 3314 3078 
Q 3713 2572 3713 1747 
Q 3713 922 3314 415 
Q 2916 -91 2278 -91 
Q 1894 -91 1617 61 
Q 1341 213 1159 525 
z
M 3116 1747 
Q 3116 2381 2855 2742 
Q 2594 3103 2138 3103 
Q 1681 3103 1420 2742 
Q 1159 2381 1159 1747 
Q 1159 1113 1420 752 
Q 1681 391 2138 391 
Q 2594 391 2855 752 
Q 3116 1113 3116 1747 
z
" transform="scale(0.015625)"/>
       <path id="DejaVuSans-63" d="M 3122 3366 
L 3122 2828 
Q 2878 2963 2633 3030 
Q 2388 3097 2138 3097 
Q 1578 3097 1268 2742 
Q 959 2388 959 1747 
Q 959 1106 1268 751 
Q 1578 397 2138 397 
Q 2388 397 2633 464 
Q 2878 531 3122 666 
L 3122 134 
Q 2881 22 2623 -34 
Q 2366 -91 2075 -91 
Q 1284 -91 818 406 
Q 353 903 353 1747 
Q 353 2603 823 3093 
Q 1294 3584 2113 3584 
Q 2378 3584 2631 3529 
Q 2884 3475 3122 3366 
z
" transform="scale(0.015625)"/>
      </defs>
      <use xlink:href="#DejaVuSans-53"/>
      <use xlink:href="#DejaVuSans-69" x="63.476562"/>
      <use xlink:href="#DejaVuSans-7a" x="91.259766"/>
      <use xlink:href="#DejaVuSans-65" x="143.75"/>
      <use xlink:href="#DejaVuSans-20" x="205.273438"/>
      <use xlink:href="#DejaVuSans-70" x="237.060547"/>
      <use xlink:href="#DejaVuSans-65" x="300.537109"/>
      <use xlink:href="#DejaVuSans-72" x="362.060547"/>
      <use xlink:href="#DejaVuSans-20" x="403.173828"/>
      <use xlink:href="#DejaVuSans-53" x="434.960938"/>
      <use xlink:href="#DejaVuSans-70" x="498.4375"/>
      <use xlink:href="#DejaVuSans-65" x="561.914062"/>
      <use xlink:href="#DejaVuSans-63" x="623.4375"/>
      <use xlink:href="#DejaVuSans-69" x="678.417969"/>
      <use xlink:href="#DejaVuSans-65" x="706.201172"/>
      <use xlink:href="#DejaVuSans-73" x="767.724609"/>
     </g>
    </g>
   </g>
   <g id="line2d_12">
    <path d="M 132.860826 307.584 
L 132.860826 41.472 
" clip-path="url(#pf1aed881cc)" style="fill: none; stroke-dasharray: 5.55,2.4; stroke-dashoffset: 0; stroke: #000000; stroke-width: 1.5"/>
   </g>
   <g id="patch_3">
    <path d="M 57.6 307.584 
L 57.6 41.472 
" style="fill: none; stroke: #000000; stroke-width: 0.8; stroke-linejoin: miter; stroke-linecap: square"/>
   </g>
   <g id="patch_4">
    <path d="M 414.72 307.584 
L 414.72 41.472 
" style="fill: none; stroke: #000000; stroke-width: 0.8; stroke-linejoin: miter; stroke-linecap: square"/>
   </g>
   <g id="patch_5">
    <path d="M 57.6 307.584 
L 414.72 307.584 
" style="fill: none; stroke: #000000; stroke-width: 0.8; stroke-linejoin: miter; stroke-linecap: square"/>
   </g>
   <g id="patch_6">
    <path d="M 57.6 41.472 
L 414.72 41.472 
" style="fill: none; stroke: #000000; stroke-width: 0.8; stroke-linejoin: miter; stroke-linecap: square"/>
   </g>
   <g id="text_14">
    <!-- Speciation -->
    <g transform="translate(204.714375 35.472) scale(0.12 -0.12)">
     <use xlink:href="#DejaVuSans-53"/>
     <use xlink:href="#DejaVuSans-70" x="63.476562"/>
     <use xlink:href="#DejaVuSans-65" x="126.953125"/>
     <use xlink:href="#DejaVuSans-63" x="188.476562"/>
     <use xlink:href="#DejaVuSans-69" x="243.457031"/>
     <use xlink:href="#DejaVuSans-61" x="271.240234"/>
     <use xlink:href="#DejaVuSans-74" x="332.519531"/>
     <use xlink:href="#DejaVuSans-69" x="371.728516"/>
     <use xlink:href="#DejaVuSans-6f" x="399.511719"/>
     <use xlink:href="#DejaVuSans-6e" x="460.693359"/>
    </g>
   </g>
   <g id="legend_1">
    <g id="patch_7">
     <path d="M 295.27625 64.150125 
L 407.72 64.150125 
Q 409.72 64.150125 409.72 62.150125 
L 409.72 48.472 
Q 409.72 46.472 407.72 46.472 
L 295.27625 46.472 
Q 293.27625 46.472 293.27625 48.472 
L 293.27625 62.150125 
Q 293.27625 64.150125 295.27625 64.150125 
z
" style="fill: #ffffff; opacity: 0.8; stroke: #cccccc; stroke-linejoin: miter"/>
    </g>
    <g id="line2d_13">
     <path d="M 297.27625 54.570438 
L 307.27625 54.570438 
L 317.27625 54.570438 
" style="fill: none; stroke-dasharray: 5.55,2.4; stroke-dashoffset: 0; stroke: #000000; stroke-width: 1.5"/>
    </g>
    <g id="text_15">
     <!-- phase threshold -->
     <g transform="translate(325.27625 58.070438) scale(0.1 -0.1)">
      <defs>
       <path id="DejaVuSans-68" d="M 3513 2113 
L 3513 0 
L 2938 0 
L 2938 2094 
Q 2938 2591 2744 2837 
Q 2550 3084 2163 3084 
Q 1697 3084 1428 2787 
Q 1159 2491 1159 1978 
L 1159 0 
L 581 0 
L 581 4863 
L 1159 4863 
L 1159 2956 
Q 1366 3272 1645 3428 
Q 1925 3584 2291 3584 
Q 2894 3584 3203 3211 
Q 3513 2838 3513 2113 
z
" transform="scale(0.015625)"/>
       <path id="DejaVuSans-6c" d="M 603 4863 
L 1178 4863 
L 1178 0 
L 603 0 
L 603 4863 
z
" transform="scale(0.015625)"/>
       <path id="DejaVuSans-64" d="M 2906 2969 
L 2906 4863 
L 3481 4863 
L 3481 0 
L 2906 0 
L 2906 525 
Q 2725 213 2448 61 
Q 2172 -91 1784 -91 
Q 1150 -91 751 415 
Q 353 922 353 1747 
Q 353 2572 751 3078 
Q 1150 3584 1784 3584 
Q 2172 3584 2448 3432 
Q 2725 3281 2906 2969 
z
M 947 1747 
Q 947 1113 1208 752 
Q 1469 391 1925 391 
Q 2381 391 2643 752 
Q 2906 1113 2906 1747 
Q 2906 2381 2643 2742 
Q 2381 3103 1925 3103 
Q 1469 3103 1208 2742 
Q 947 2381 947 1747 
z
" transform="scale(0.015625)"/>
      </defs>
      <use xlink:href="#DejaVuSans-70"/>
      <use xlink:href="#DejaVuSans-68" x="63.476562"/>
      <use xlink:href="#DejaVuSans-61" x="126.855469"/>
      <use xlink:href="#DejaVuSans-73" x="188.134766"/>
      <use xlink:href="#DejaVuSans-65" x="240.234375"/>
      <use xlink:href="#DejaVuSans-20" x="301.757812"/>
      <use xlink:href="#DejaVuSans-74" x="333.544922"/>
      <use xlink:href="#DejaVuSans-68" x="372.753906"/>
      <use xlink:href="#DejaVuSans-72" x="436.132812"/>
      <use xlink:href="#DejaVuSans-65" x="474.996094"/>
      <use xlink:href="#DejaVuSans-73" x="536.519531"/>
      <use xlink:href="#DejaVuSans-68" x="588.619141"/>
      <use xlink:href="#DejaVuSans-6f" x="651.998047"/>
      <use xlink:href="#DejaVuSans-6c" x="713.179688"/>
      <use xlink:href="#DejaVuSans-64" x="740.962891"/>
     </g>
    </g>
   </g>
  </g>
 </g>
 <defs>
  <clipPath id="pf1aed881cc">
   <rect x="57.6" y="41.472" width="357.12" height="266.112"/>
  </clipPath>
 </defs>
</svg>
